<svg xmlns="http://www.w3.org/2000/svg" width="446.0613708496094" height="369.0183410644531" viewBox="-134.33413696289062 -122.73384857177734 446.0613708496094 369.0183410644531"><title>Neo4j Graph Visualization</title><desc>Created using Neo4j (http://www.neo4j.com/)</desc><g class="layer relationships"><g class="relationship" transform="translate(147.81414189224643 217.28447673713913) rotate(255.74788961641082)"><path class="outline" fill="#F16667" stroke="none" d="M 25 0.5 L 30.27901103622085 0.5 L 30.27901103622085 -0.5 L 25 -0.5 Z M 77.16963603622085 0.5 L 82.4486470724417 0.5 L 82.4486470724417 3.5 L 89.4486470724417 0 L 82.4486470724417 -3.5 L 82.4486470724417 -0.5 L 77.16963603622085 -0.5 Z"/><text text-anchor="middle" pointer-events="none" font-size="8px" fill="#000000" x="53.72432353622085" y="3" transform="rotate(180 53.72432353622085 0)" font-family="sans-serif">DIRECTED</text></g><g class="relationship" transform="translate(36.95391860108772 50.72696919455306) rotate(393.93334892381915)"><path class="outline" fill="#F16667" stroke="none" d="M 25 0.5 L 26.883222447105076 0.5 L 26.883222447105076 -0.5 L 25 -0.5 Z M 65.77384744710508 0.5 L 67.65706989421015 0.5 L 67.65706989421015 3.5 L 74.65706989421015 0 L 67.65706989421015 -3.5 L 67.65706989421015 -0.5 L 65.77384744710508 -0.5 Z"/><text text-anchor="middle" pointer-events="none" font-size="8px" fill="#000000" x="46.32853494710508" y="3" font-family="sans-serif">DIREC…</text></g><g class="relationship" transform="translate(68.01415500465 -0.4712672616193522) rotate(424.2084623295938)"><path class="outline" fill="#F16667" stroke="none" d="M 25 0.5 L 32.379225104646764 0.5 L 32.379225104646764 -0.5 L 25 -0.5 Z M 79.26985010464676 0.5 L 86.64907520929353 0.5 L 86.64907520929353 3.5 L 93.64907520929353 0 L 86.64907520929353 -3.5 L 86.64907520929353 -0.5 L 79.26985010464676 -0.5 Z"/><text text-anchor="middle" pointer-events="none" font-size="8px" fill="#000000" x="55.824537604646764" y="3" font-family="sans-serif">DIRECTED</text></g><g class="relationship" transform="translate(282.72725814789595 90.89992581146626) rotate(257.5488408447007)"><path class="outline" fill="#F16667" stroke="none" d="M 25 0.5 L 27.74842492626839 0.5 L 27.74842492626839 -0.5 L 25 -0.5 Z M 74.6390499262684 0.5 L 77.38747485253678 0.5 L 77.38747485253678 3.5 L 84.38747485253678 0 L 77.38747485253678 -3.5 L 77.38747485253678 -0.5 L 74.6390499262684 -0.5 Z"/><text text-anchor="middle" pointer-events="none" font-size="8px" fill="#000000" x="51.19373742626839" y="3" transform="rotate(180 51.19373742626839 0)" font-family="sans-serif">DIRECTED</text></g><g class="relationship" transform="translate(36.95391860108772 50.72696919455306) rotate(239.948526090806)"><path class="outline" fill="#F16667" stroke="none" d="M 25 0.5 L 56.5024947653536 0.5 L 56.5024947653536 -0.5 L 25 -0.5 Z M 103.3931197653536 0.5 L 134.8956145307072 0.5 L 134.8956145307072 3.5 L 141.8956145307072 0 L 134.8956145307072 -3.5 L 134.8956145307072 -0.5 L 103.3931197653536 -0.5 Z"/><text text-anchor="middle" pointer-events="none" font-size="8px" fill="#000000" x="79.9478072653536" y="3" transform="rotate(180 79.9478072653536 0)" font-family="sans-serif">DIRECTED</text></g><g class="relationship" transform="translate(68.01415500465 -0.4712672616193522) rotate(219.12976179514385)"><path class="outline" fill="#F16667" stroke="none" d="M 25 0.5 L 46.94607294997314 0.5 L 46.94607294997314 -0.5 L 25 -0.5 Z M 93.83669794997314 0.5 L 115.78277089994629 0.5 L 115.78277089994629 3.5 L 122.78277089994629 0 L 115.78277089994629 -3.5 L 115.78277089994629 -0.5 L 93.83669794997314 -0.5 Z"/><text text-anchor="middle" pointer-events="none" font-size="8px" fill="#000000" x="70.39138544997314" y="3" transform="rotate(180 70.39138544997314 0)" font-family="sans-serif">DIRECTED</text></g><g class="relationship" transform="translate(36.95391860108772 50.72696919455306) rotate(197.5811621213261)"><path class="outline" fill="#F16667" stroke="none" d="M 25 0.5 L 47.68467398226464 0.5 L 47.68467398226464 -0.5 L 25 -0.5 Z M 94.57529898226464 0.5 L 117.25997296452928 0.5 L 117.25997296452928 3.5 L 124.25997296452928 0 L 117.25997296452928 -3.5 L 117.25997296452928 -0.5 L 94.57529898226464 -0.5 Z"/><text text-anchor="middle" pointer-events="none" font-size="8px" fill="#000000" x="71.12998648226464" y="3" transform="rotate(180 71.12998648226464 0)" font-family="sans-serif">DIRECTED</text></g><g class="relationship" transform="translate(68.01415500465 -0.4712672616193522) rotate(537.9802461497195)"><path class="outline" fill="#F16667" stroke="none" d="M 25 0.5 L 59.78270883611057 0.5 L 59.78270883611057 -0.5 L 25 -0.5 Z M 106.67333383611057 0.5 L 141.45604267222114 0.5 L 141.45604267222114 3.5 L 148.45604267222114 0 L 141.45604267222114 -3.5 L 141.45604267222114 -0.5 L 106.67333383611057 -0.5 Z"/><text text-anchor="middle" pointer-events="none" font-size="8px" fill="#000000" x="83.22802133611057" y="3" transform="rotate(180 83.22802133611057 0)" font-family="sans-serif">DIRECTED</text></g><g class="relationship" transform="translate(36.95391860108772 50.72696919455306) rotate(492.40763514337596)"><path class="outline" fill="#F16667" stroke="none" d="M 25 0.5 L 54.113929869959875 0.5 L 54.113929869959875 -0.5 L 25 -0.5 Z M 101.00455486995988 0.5 L 130.11848473991975 0.5 L 130.11848473991975 3.5 L 137.11848473991975 0 L 130.11848473991975 -3.5 L 130.11848473991975 -0.5 L 101.00455486995988 -0.5 Z"/><text text-anchor="middle" pointer-events="none" font-size="8px" fill="#000000" x="77.55924236995988" y="3" transform="rotate(180 77.55924236995988 0)" font-family="sans-serif">DIRECTED</text></g><g class="relationship" transform="translate(68.01415500465 -0.4712672616193522) rotate(489.40269532218673)"><path class="outline" fill="#F16667" stroke="none" d="M 25 0.5 L 83.64101307838493 0.5 L 83.64101307838493 -0.5 L 25 -0.5 Z M 130.53163807838493 0.5 L 189.17265115676986 0.5 L 189.17265115676986 3.5 L 196.17265115676986 0 L 189.17265115676986 -3.5 L 189.17265115676986 -0.5 L 130.53163807838493 -0.5 Z"/><text text-anchor="middle" pointer-events="none" font-size="8px" fill="#000000" x="107.08632557838493" y="3" transform="rotate(180 107.08632557838493 0)" font-family="sans-serif">DIRECTED</text></g><g class="relationship" transform="translate(36.95391860108772 50.72696919455306) rotate(343.30426632463866)"><path class="outline" fill="#A5ABB6" stroke="none" d="M 24.018736134675446,6.953439040707552 L 24.277555179777966,5.987513214418485 A 351.0025054084826 351.0025054084826 0 0 0 86.63751966200613,16.789803669129867 L 86.55636306523758,17.78650503202698 A 352.0025054084826 352.0025054084826 0 0 1 24.018736134675446,6.953439040707552 Z M 138.36290238868008,18.17966908877952 L 138.296882364466,17.181850790489307 A 351.0025054084826 351.0025054084826 0 0 0 200.81361360673222,7.327259775386961 L 200.08122631181408,4.418031552946779 L 207.72387734157903,6.103227457651286 L 201.79012999995643,11.206230738640537 L 201.0577427050383,8.297002516200354 A 352.0025054084826 352.0025054084826 0 0 1 138.36290238868008,18.17966908877952"/><text text-anchor="middle" pointer-events="none" font-size="8px" fill="#000000" x="112.45618406090179" y="21.437511748084717" font-family="sans-serif">PRODUCED</text></g><g class="relationship" transform="translate(36.95391860108772 50.72696919455306) rotate(343.30426632463866)"><path class="outline" fill="#A5ABB6" stroke="none" d="M 24.018736134675446,-6.953439040707552 L 24.277555179777966,-5.987513214418485 A 351.0025054084826 351.0025054084826 0 0 1 94.61037251380928,-17.347700444687916 L 94.55193043539587,-18.345991245742766 A 352.0025054084826 352.0025054084826 0 0 0 24.018736134675446,-6.953439040707552 Z M 130.35976447740512,-18.61773982187492 L 130.3164804786122,-17.61867701331454 A 351.0025054084826 351.0025054084826 0 0 1 200.81361360673222,-7.327259775386961 L 200.08122631181408,-4.418031552946779 L 207.72387734157903,-6.103227457651286 L 201.79012999995643,-11.206230738640537 L 201.0577427050383,-8.297002516200354 A 352.0025054084826 352.0025054084826 0 0 0 130.35976447740512,-18.61773982187492"/><text text-anchor="middle" pointer-events="none" font-size="8px" fill="#000000" x="112.4561840609017" y="-15.437511748084717" font-family="sans-serif">WROTE</text></g><g class="relationship" transform="translate(68.01415500465 -0.4712672616193522) rotate(355.38043725625107)"><path class="outline" fill="#A5ABB6" stroke="none" d="M 24.018736134675446,6.953439040707552 L 24.277555179777966,5.987513214418485 A 272.61392067667265 272.61392067667265 0 0 0 66.55502251212124,13.805784680016416 L 66.45128530299908,14.80038942133001 A 273.61392067667265 273.61392067667265 0 0 1 24.018736134675446,6.953439040707552 Z M 118.24751243109664,15.273109411092719 L 118.16194557630274,14.276776979943008 A 272.61392067667265 272.61392067667265 0 0 0 160.57506615307102,7.231436981928294 L 159.85162727461326,4.3199706522009915 L 167.48906073551103,6.028657320481386 L 161.53965132434806,11.113392088231363 L 160.8162124458903,8.20192575850406 A 273.61392067667265 273.61392067667265 0 0 1 118.24751243109664,15.273109411092719"/><text text-anchor="middle" pointer-events="none" font-size="8px" fill="#000000" x="92.34275033107389" y="18.76523369196616" font-family="sans-serif">PRODUCED</text></g><g class="relationship" transform="translate(68.01415500465 -0.4712672616193522) rotate(355.38043725625107)"><path class="outline" fill="#A5ABB6" stroke="none" d="M 24.018736134675446,-6.953439040707552 L 24.277555179777966,-5.987513214418485 A 272.61392067667265 272.61392067667265 0 0 1 74.51217757722405,-14.518021859836267 L 74.4376287347317,-15.515239223344906 A 273.61392067667265 273.61392067667265 0 0 0 24.018736134675446,-6.953439040707552 Z M 110.24945219704732,-15.84207702136871 L 110.19311653127433,-14.843665136041864 A 272.61392067667265 272.61392067667265 0 0 1 160.57506615307102,-7.231436981928294 L 159.85162727461326,-4.3199706522009915 L 167.48906073551103,-6.028657320481386 L 161.53965132434806,-11.113392088231363 L 160.8162124458903,-8.20192575850406 A 273.61392067667265 273.61392067667265 0 0 0 110.24945219704732,-15.84207702136871"/><text text-anchor="middle" pointer-events="none" font-size="8px" fill="#000000" x="92.34275033107374" y="-12.76523369196616" font-family="sans-serif">WROTE</text></g></g><g class="layer nodes"><g class="node" transform="translate(147.81414189224643,217.28447673713913)"><circle class="outline" cx="0" cy="0" r="25" fill="#57C7E3" stroke="#23b3d7" stroke-width="2px"/><text text-anchor="middle" pointer-events="none" font-family="sans-serif" dy="1.5625" font-size="25" fill="#2A2C34"/><text text-anchor="middle" pointer-events="none" font-family="sans-serif" dy="1.5625" font-size="25" fill="#2A2C34"/><text text-anchor="middle" pointer-events="none" x="0" y="0" font-size="10px" fill="#2A2C34" font-family="sans-serif"> Tom</text><text text-anchor="middle" pointer-events="none" x="0" y="10" font-size="10px" fill="#2A2C34" font-family="sans-serif"> Tykwer</text></g><g class="node" transform="translate(119.63814475568198,106.35834815566996)"><circle class="outline" cx="0" cy="0" r="25" fill="#F79767" stroke="#f36924" stroke-width="2px"/><text text-anchor="middle" pointer-events="none" font-family="sans-serif" dy="1.5625" font-size="25" fill="#FFFFFF"/><text text-anchor="middle" pointer-events="none" font-family="sans-serif" dy="1.5625" font-size="25" fill="#FFFFFF"/><text text-anchor="middle" pointer-events="none" x="0" y="0" font-size="10px" fill="#FFFFFF" font-family="sans-serif"> Cloud</text><text text-anchor="middle" pointer-events="none" x="0" y="10" font-size="10px" fill="#FFFFFF" font-family="sans-serif"> Atlas</text></g><g class="node" transform="translate(36.95391860108772,50.72696919455306)"><circle class="outline" cx="0" cy="0" r="25" fill="#57C7E3" stroke="#23b3d7" stroke-width="2px"/><text text-anchor="middle" pointer-events="none" font-family="sans-serif" dy="1.5625" font-size="25" fill="#2A2C34"/><text text-anchor="middle" pointer-events="none" font-family="sans-serif" dy="1.5625" font-size="25" fill="#2A2C34"/><text text-anchor="middle" pointer-events="none" x="0" y="0" font-size="10px" fill="#2A2C34" font-family="sans-serif"> Lana</text><text text-anchor="middle" pointer-events="none" x="0" y="10" font-size="10px" fill="#2A2C34" font-family="sans-serif"> Wacho…</text></g><g class="node" transform="translate(68.01415500465,-0.4712672616193522)"><circle class="outline" cx="0" cy="0" r="25" fill="#57C7E3" stroke="#23b3d7" stroke-width="2px"/><text text-anchor="middle" pointer-events="none" font-family="sans-serif" dy="1.5625" font-size="25" fill="#2A2C34"/><text text-anchor="middle" pointer-events="none" font-family="sans-serif" dy="1.5625" font-size="25" fill="#2A2C34"/><text text-anchor="middle" pointer-events="none" x="0" y="0" font-size="10px" fill="#2A2C34" font-family="sans-serif"> Lilly</text><text text-anchor="middle" pointer-events="none" x="0" y="10" font-size="10px" fill="#2A2C34" font-family="sans-serif"> Wacho…</text></g><g class="node" transform="translate(282.72725814789595,90.89992581146626)"><circle class="outline" cx="0" cy="0" r="25" fill="#57C7E3" stroke="#23b3d7" stroke-width="2px"/><text text-anchor="middle" pointer-events="none" font-family="sans-serif" dy="1.5625" font-size="25" fill="#2A2C34"/><text text-anchor="middle" pointer-events="none" font-family="sans-serif" dy="1.5625" font-size="25" fill="#2A2C34"/><text text-anchor="middle" pointer-events="none" x="0" y="0" font-size="10px" fill="#2A2C34" font-family="sans-serif"> James</text><text text-anchor="middle" pointer-events="none" x="0" y="10" font-size="10px" fill="#2A2C34" font-family="sans-serif"> Marshall</text></g><g class="node" transform="translate(259.14251917356603,-15.914772344391906)"><circle class="outline" cx="0" cy="0" r="25" fill="#F79767" stroke="#f36924" stroke-width="2px"/><text text-anchor="middle" pointer-events="none" font-family="sans-serif" dy="1.5625" font-size="25" fill="#FFFFFF"/><text text-anchor="middle" pointer-events="none" font-family="sans-serif" dy="1.5625" font-size="25" fill="#FFFFFF"/><text text-anchor="middle" pointer-events="none" x="0" y="0" font-size="10px" fill="#FFFFFF" font-family="sans-serif"> V for</text><text text-anchor="middle" pointer-events="none" x="0" y="10" font-size="10px" fill="#FFFFFF" font-family="sans-serif"> Vendetta</text></g><g class="node" transform="translate(-46.62370440991775,-93.73384584334106)"><circle class="outline" cx="0" cy="0" r="25" fill="#F79767" stroke="#f36924" stroke-width="2px"/><text text-anchor="middle" pointer-events="none" font-family="sans-serif" dy="1.5625" font-size="25" fill="#FFFFFF"/><text text-anchor="middle" pointer-events="none" font-family="sans-serif" dy="1.5625" font-size="25" fill="#FFFFFF"/><text text-anchor="middle" pointer-events="none" font-family="sans-serif" dy="1.5625" font-size="25" fill="#FFFFFF"/><text text-anchor="middle" pointer-events="none" x="0" y="-5" font-size="10px" fill="#FFFFFF" font-family="sans-serif"> The</text><text text-anchor="middle" pointer-events="none" x="0" y="5" font-size="10px" fill="#FFFFFF" font-family="sans-serif"> Matrix</text><text text-anchor="middle" pointer-events="none" x="0" y="15" font-size="10px" fill="#FFFFFF" font-family="sans-serif"> Revol…</text></g><g class="node" transform="translate(-105.33412555689361,5.642026929220602)"><circle class="outline" cx="0" cy="0" r="25" fill="#F79767" stroke="#f36924" stroke-width="2px"/><text text-anchor="middle" pointer-events="none" font-family="sans-serif" dy="1.5625" font-size="25" fill="#FFFFFF"/><text text-anchor="middle" pointer-events="none" font-family="sans-serif" dy="1.5625" font-size="25" fill="#FFFFFF"/><text text-anchor="middle" pointer-events="none" font-family="sans-serif" dy="1.5625" font-size="25" fill="#FFFFFF"/><text text-anchor="middle" pointer-events="none" x="0" y="-5" font-size="10px" fill="#FFFFFF" font-family="sans-serif"> The</text><text text-anchor="middle" pointer-events="none" x="0" y="5" font-size="10px" fill="#FFFFFF" font-family="sans-serif"> Matrix</text><text text-anchor="middle" pointer-events="none" x="0" y="15" font-size="10px" fill="#FFFFFF" font-family="sans-serif"> Reloa…</text></g><g class="node" transform="translate(-72.37891508936606,170.42966161031774)"><circle class="outline" cx="0" cy="0" r="25" fill="#F79767" stroke="#f36924" stroke-width="2px"/><text text-anchor="middle" pointer-events="none" font-family="sans-serif" dy="1.5625" font-size="25" fill="#FFFFFF"/><text text-anchor="middle" pointer-events="none" font-family="sans-serif" dy="1.5625" font-size="25" fill="#FFFFFF"/><text text-anchor="middle" pointer-events="none" x="0" y="0" font-size="10px" fill="#FFFFFF" font-family="sans-serif"> The</text><text text-anchor="middle" pointer-events="none" x="0" y="10" font-size="10px" fill="#FFFFFF" font-family="sans-serif"> Matrix</text></g></g></svg>