<svg xmlns="http://www.w3.org/2000/svg" width="363.1920166015625" height="364.601806640625" viewBox="-89.83879089355469 -76.42678833007812 363.1920166015625 364.601806640625"><title>Neo4j Graph Visualization</title><desc>Created using Neo4j (http://www.neo4j.com/)</desc><g class="layer relationships"><g class="relationship" transform="translate(135.12839438273897 259.1750186236764) rotate(330.2239365477693)"><path class="outline" fill="#A5ABB6" stroke="none" d="M 21.40063509461097,12.933012701892217 L 21.90063509461097,12.06698729810778 A 57.57274218984343 57.57274218984343 0 0 0 24.23976197568155,13.34620339264385 L 23.78039104409308,14.234447923846574 A 58.57274218984343 58.57274218984343 0 0 1 21.40063509461097,12.933012701892217 Z M 74.26944186703304,15.823151368625943 L 73.86682394620793,14.90778324058649 A 57.57274218984343 57.57274218984343 0 0 0 76.28174809502511,13.778159525481872 L 74.94805748387991,11.09091756508025 L 82.77426110448641,11.114088426210007 L 78.0600022432187,17.361148806017365 L 76.7263116320735,14.673906845615743 A 58.57274218984343 58.57274218984343 0 0 1 74.26944186703304,15.823151368625943"/><text text-anchor="middle" pointer-events="none" font-size="8px" fill="#000000" x="48.86057603934187" y="23.251543799099224" font-family="sans-serif">PRODUCED</text></g><g class="relationship" transform="translate(135.12839438273897 259.1750186236764) rotate(330.2239365477693)"><path class="outline" fill="#A5ABB6" stroke="none" d="M 25 0.5 L 25.638659553916632 0.5 L 25.638659553916632 -0.5 L 25 -0.5 Z M 72.52928455391663 0.5 L 73.16794410783326 0.5 L 73.16794410783326 3.5 L 80.16794410783326 0 L 73.16794410783326 -3.5 L 73.16794410783326 -0.5 L 72.52928455391663 -0.5 Z"/><text text-anchor="middle" pointer-events="none" font-size="8px" fill="#000000" x="49.08397205391663" y="3" font-family="sans-serif">DIRECTED</text></g><g class="relationship" transform="translate(135.12839438273897 259.1750186236764) rotate(330.2239365477693)"><path class="outline" fill="#A5ABB6" stroke="none" d="M 21.40063509461097,-12.933012701892217 L 21.90063509461097,-12.06698729810778 A 57.57274218984343 57.57274218984343 0 0 1 31.5164801240844,-16.49483582020477 L 31.183500916628304,-17.437769989381977 A 58.57274218984343 58.57274218984343 0 0 0 21.40063509461097,-12.933012701892217 Z M 66.67958358533379,-18.554700252335607 L 66.40654570460819,-17.592696969758634 A 57.57274218984343 57.57274218984343 0 0 1 76.28174809502511,-13.778159525481872 L 74.94805748387991,-11.09091756508025 L 82.77426110448641,-11.114088426210007 L 78.0600022432187,-17.361148806017365 L 76.7263116320735,-14.673906845615743 A 58.57274218984343 58.57274218984343 0 0 0 66.67958358533379,-18.554700252335607"/><text text-anchor="middle" pointer-events="none" font-size="8px" fill="#000000" x="48.86057603934188" y="-17.251543799099224" font-family="sans-serif">WROTE</text></g><g class="relationship" transform="translate(244.35320905497912 17.140423331669766) rotate(203.5803409076915)"><path class="outline" fill="#A5ABB6" stroke="none" d="M 24.018736134675446,6.953439040707552 L 24.277555179777966,5.987513214418485 A 99.64388934424213 99.64388934424213 0 0 0 25.369047348988747,6.2733642342631555 L 25.121182233689588,7.242158786589769 A 100.64388934424213 100.64388934424213 0 0 1 24.018736134675446,6.953439040707552 Z M 71.81036523295985,8.006049109869537 L 71.59432555181802,7.029664525716271 A 99.64388934424213 99.64388934424213 0 0 0 72.69458473710823,6.779673153507018 L 72.01333995383463,3.8580459450386777 L 79.62525568741329,5.677039860613339 L 73.60291111480636,10.675176098131471 L 72.92166633153276,7.753548889663131 A 100.64388934424213 100.64388934424213 0 0 1 71.81036523295985,8.006049109869537"/><text text-anchor="middle" pointer-events="none" font-size="8px" fill="#000000" x="48.429038105912895" y="12.869395423398231" transform="rotate(180 48.429038105912895 9.869395423398231)" font-family="sans-serif">DIRECTED</text></g><g class="relationship" transform="translate(244.35320905497912 17.140423331669766) rotate(203.5803409076915)"><path class="outline" fill="#A5ABB6" stroke="none" d="M 24.018736134675446,-6.953439040707552 L 24.277555179777966,-5.987513214418485 A 99.64388934424213 99.64388934424213 0 0 1 30.762581671835846,-7.494893394408663 L 30.56884465569402,-8.47594689375336 A 100.64388934424213 100.64388934424213 0 0 0 24.018736134675446,-6.953439040707552 Z M 66.32525691732403,-9.060964141159204 L 66.16371739860014,-8.074097896985023 A 99.64388934424213 99.64388934424213 0 0 1 72.69458473710823,-6.779673153507018 L 72.01333995383463,-3.8580459450386777 L 79.62525568741329,-5.677039860613339 L 73.60291111480636,-10.675176098131471 L 72.92166633153276,-7.753548889663131 A 100.64388934424213 100.64388934424213 0 0 0 66.32525691732403,-9.060964141159204"/><text text-anchor="middle" pointer-events="none" font-size="8px" fill="#000000" x="48.42903810591286" y="-6.869395423398217" transform="rotate(180 48.42903810591286 -9.869395423398217)" font-family="sans-serif">WROTE</text></g><g class="relationship" transform="translate(47.769286232150705 -47.42678580776703) rotate(372.77926163262504)"><path class="outline" fill="#A5ABB6" stroke="none" d="M 24.018736134675446,6.953439040707552 L 24.277555179777966,5.987513214418485 A 99.43177972680338 99.43177972680338 0 0 0 25.317351093946606,6.26011028018435 L 25.068989428939517,7.228777655166553 A 100.43177972680338 100.43177972680338 0 0 1 24.018736134675446,6.953439040707552 Z M 71.75683364765638,7.993377187301789 L 71.54032409017076,7.017096688921654 A 99.43177972680338 99.43177972680338 0 0 0 72.58848857037958,6.7786938243954085 L 71.90733526594626,3.857045287035112 L 79.51919404162582,5.67627753694437 L 73.49669297629067,10.674225207542472 L 72.81553967185735,7.752576670182175 A 100.43177972680338 100.43177972680338 0 0 1 71.75683364765638,7.993377187301789"/><text text-anchor="middle" pointer-events="none" font-size="8px" fill="#000000" x="48.3760457346051" y="12.8621707419465" font-family="sans-serif">DIRECTED</text></g><g class="relationship" transform="translate(47.769286232150705 -47.42678580776703) rotate(372.77926163262504)"><path class="outline" fill="#A5ABB6" stroke="none" d="M 24.018736134675446,-6.953439040707552 L 24.277555179777966,-5.987513214418485 A 99.43177972680338 99.43177972680338 0 0 1 30.710270309204546,-7.484072497851102 L 30.516146024138514,-8.465049440468817 A 100.43177972680338 100.43177972680338 0 0 0 24.018736134675446,-6.953439040707552 Z M 66.27211653221403,-9.05061938440204 L 66.11021834505723,-8.063811917367389 A 99.43177972680338 99.43177972680338 0 0 1 72.58848857037958,-6.7786938243954085 L 71.90733526594626,-3.857045287035112 L 79.51919404162582,-5.67627753694437 L 73.49669297629067,-10.674225207542472 L 72.81553967185735,-7.752576670182175 A 100.43177972680338 100.43177972680338 0 0 0 66.27211653221403,-9.05061938440204"/><text text-anchor="middle" pointer-events="none" font-size="8px" fill="#000000" x="48.37604573460505" y="-6.8621707419465" font-family="sans-serif">WROTE</text></g><g class="relationship" transform="translate(-60.8387924494855 94.68896756184505) rotate(432.3280576543872)"><path class="outline" fill="#A5ABB6" stroke="none" d="M 21.40063509461097,12.933012701892217 L 21.90063509461097,12.06698729810778 A 57.173834351184325 57.173834351184325 0 0 0 31.329166366281434,16.421385643494844 L 30.994076265690257,17.36357173152937 A 58.173834351184325 58.173834351184325 0 0 1 21.40063509461097,12.933012701892217 Z M 66.48429236507211,18.484195891725513 L 66.20931066112769,17.5227464325776 A 57.173834351184325 57.173834351184325 0 0 0 75.8937712573108,13.771851892317336 L 74.5606674375957,11.08431878445411 L 82.38686581227752,11.109198497625945 L 77.67124301693096,17.355229369468308 L 76.33813919721585,14.66769626160508 A 58.173834351184325 58.173834351184325 0 0 1 66.48429236507211,18.484195891725513"/><text text-anchor="middle" pointer-events="none" font-size="8px" fill="#000000" x="48.667374643822285" y="23.19809924635878" font-family="sans-serif">WROTE</text></g><g class="relationship" transform="translate(-60.8387924494855 94.68896756184505) rotate(432.3280576543872)"><path class="outline" fill="#A5ABB6" stroke="none" d="M 25 0.5 L 25.446175022235543 0.5 L 25.446175022235543 -0.5 L 25 -0.5 Z M 72.33680002223554 0.5 L 72.78297504447109 0.5 L 72.78297504447109 3.5 L 79.78297504447109 0 L 72.78297504447109 -3.5 L 72.78297504447109 -0.5 L 72.33680002223554 -0.5 Z"/><text text-anchor="middle" pointer-events="none" font-size="8px" fill="#000000" x="48.89148752223554" y="3" font-family="sans-serif">DIRECTED</text></g><g class="relationship" transform="translate(-60.8387924494855 94.68896756184505) rotate(432.3280576543872)"><path class="outline" fill="#A5ABB6" stroke="none" d="M 21.40063509461097,-12.933012701892217 L 21.90063509461097,-12.06698729810778 A 57.173834351184325 57.173834351184325 0 0 1 24.061543742710224,-13.253225163073282 L 23.599339155115594,-14.139998482026037 A 58.173834351184325 58.173834351184325 0 0 0 21.40063509461097,-12.933012701892217 Z M 74.06766842884822,-15.733565254076886 L 73.66232956092529,-14.819398747279052 A 57.173834351184325 57.173834351184325 0 0 1 75.8937712573108,-13.771851892317336 L 74.5606674375957,-11.08431878445411 L 82.38686581227752,-11.109198497625945 L 77.67124301693096,-17.355229369468308 L 76.33813919721585,-14.66769626160508 A 58.173834351184325 58.173834351184325 0 0 0 74.06766842884822,-15.733565254076886"/><text text-anchor="middle" pointer-events="none" font-size="8px" fill="#000000" x="48.66737464382229" y="-17.19809924635878" font-family="sans-serif">PRODUCED</text></g></g><g class="layer nodes"><g class="node" transform="translate(135.12839438273897,259.1750186236764)"><circle class="outline" cx="0" cy="0" r="25" fill="#F79767" stroke="#f36924" stroke-width="2px"/><text text-anchor="middle" pointer-events="none" font-family="sans-serif" dy="1.5625" font-size="25" fill="#FFFFFF"/><text text-anchor="middle" pointer-events="none" font-family="sans-serif" dy="1.5625" font-size="25" fill="#FFFFFF"/><text text-anchor="middle" pointer-events="none" x="0" y="0" font-size="10px" fill="#FFFFFF" font-family="sans-serif"> Cameron</text><text text-anchor="middle" pointer-events="none" x="0" y="10" font-size="10px" fill="#FFFFFF" font-family="sans-serif"> Crowe</text></g><g class="node" transform="translate(226.4113302526592,206.94741972389573)"><circle class="outline" cx="0" cy="0" r="25" fill="#57C7E3" stroke="#23b3d7" stroke-width="2px"/><text text-anchor="middle" pointer-events="none" font-family="sans-serif" dy="1.5625" font-size="25" fill="#2A2C34"/><text text-anchor="middle" pointer-events="none" font-family="sans-serif" dy="1.5625" font-size="25" fill="#2A2C34"/><text text-anchor="middle" pointer-events="none" x="0" y="0" font-size="10px" fill="#2A2C34" font-family="sans-serif"> Jerry</text><text text-anchor="middle" pointer-events="none" x="0" y="10" font-size="10px" fill="#2A2C34" font-family="sans-serif"> Maguire</text></g><g class="node" transform="translate(244.35320905497912,17.140423331669766)"><circle class="outline" cx="0" cy="0" r="25" fill="#F79767" stroke="#f36924" stroke-width="2px"/><text text-anchor="middle" pointer-events="none" font-family="sans-serif" dy="1.5625" font-size="25" fill="#FFFFFF"/><text text-anchor="middle" pointer-events="none" font-family="sans-serif" dy="1.5625" font-size="25" fill="#FFFFFF"/><text text-anchor="middle" pointer-events="none" x="0" y="0" font-size="10px" fill="#FFFFFF" font-family="sans-serif"> Lana</text><text text-anchor="middle" pointer-events="none" x="0" y="10" font-size="10px" fill="#FFFFFF" font-family="sans-serif"> Wacho…</text></g><g class="node" transform="translate(149.06273007375515,-24.45203274146664)"><circle class="outline" cx="0" cy="0" r="25" fill="#57C7E3" stroke="#23b3d7" stroke-width="2px"/><text text-anchor="middle" pointer-events="none" font-family="sans-serif" dy="1.5625" font-size="25" fill="#2A2C34"/><text text-anchor="middle" pointer-events="none" font-family="sans-serif" dy="1.5625" font-size="25" fill="#2A2C34"/><text text-anchor="middle" pointer-events="none" x="0" y="0" font-size="10px" fill="#2A2C34" font-family="sans-serif"> Speed</text><text text-anchor="middle" pointer-events="none" x="0" y="10" font-size="10px" fill="#2A2C34" font-family="sans-serif"> Racer</text></g><g class="node" transform="translate(47.769286232150705,-47.42678580776703)"><circle class="outline" cx="0" cy="0" r="25" fill="#F79767" stroke="#f36924" stroke-width="2px"/><text text-anchor="middle" pointer-events="none" font-family="sans-serif" dy="1.5625" font-size="25" fill="#FFFFFF"/><text text-anchor="middle" pointer-events="none" font-family="sans-serif" dy="1.5625" font-size="25" fill="#FFFFFF"/><text text-anchor="middle" pointer-events="none" x="0" y="0" font-size="10px" fill="#FFFFFF" font-family="sans-serif"> Lilly</text><text text-anchor="middle" pointer-events="none" x="0" y="10" font-size="10px" fill="#FFFFFF" font-family="sans-serif"> Wacho…</text></g><g class="node" transform="translate(-60.8387924494855,94.68896756184505)"><circle class="outline" cx="0" cy="0" r="25" fill="#F79767" stroke="#f36924" stroke-width="2px"/><text text-anchor="middle" pointer-events="none" font-family="sans-serif" dy="1.5625" font-size="25" fill="#FFFFFF"/><text text-anchor="middle" pointer-events="none" font-family="sans-serif" dy="1.5625" font-size="25" fill="#FFFFFF"/><text text-anchor="middle" pointer-events="none" x="0" y="0" font-size="10px" fill="#FFFFFF" font-family="sans-serif"> Nancy</text><text text-anchor="middle" pointer-events="none" x="0" y="10" font-size="10px" fill="#FFFFFF" font-family="sans-serif"> Meyers</text></g><g class="node" transform="translate(-29.030190655141357,194.52726037106277)"><circle class="outline" cx="0" cy="0" r="25" fill="#57C7E3" stroke="#23b3d7" stroke-width="2px"/><text text-anchor="middle" pointer-events="none" font-family="sans-serif" dy="1.5625" font-size="25" fill="#2A2C34"/><text text-anchor="middle" pointer-events="none" x="0" y="5" font-size="10px" fill="#2A2C34" font-family="sans-serif"> Somethi…</text></g></g></svg>