<svg xmlns="http://www.w3.org/2000/svg" width="732.6707763671875" height="634.8905639648438" viewBox="-256.00079345703125 -213.61740112304688 732.6707763671875 634.8905639648438"><title>Neo4j Graph Visualization</title><desc>Created using Neo4j (http://www.neo4j.com/)</desc><g class="layer relationships"><g class="relationship" transform="translate(-51.48470505845085 216.71276749145875) rotate(260.9057348694281)"><path class="outline" fill="#A5ABB6" stroke="none" d="M 21.40063509461097,12.933012701892217 L 21.90063509461097,12.06698729810778 A 71.56598989625104 71.56598989625104 0 0 0 26.14753758723249,14.332043275414378 L 25.706880055614167,15.229718572962469 A 72.56598989625104 72.56598989625104 0 0 1 21.40063509461097,12.933012701892217 Z M 85.95896743099706,16.919615184057676 L 85.56931743891832,15.99865216434786 A 71.56598989625104 71.56598989625104 0 0 0 89.93650027158948,13.975196341210262 L 88.58448081616338,11.297129241201505 L 96.4106600808476,11.266828795217494 L 91.73919287882428,17.54595247455527 L 90.38717342339818,14.867885374546516 A 72.56598989625104 72.56598989625104 0 0 1 85.95896743099706,16.919615184057676"/><text text-anchor="middle" pointer-events="none" font-size="8px" fill="#000000" x="55.66318219555465" y="25.126683610880264" transform="rotate(180 55.66318219555465 22.126683610880264)" font-family="sans-serif">PublicTransport</text></g><g class="relationship" transform="translate(-70.2507437474859 99.47733476913825) rotate(219.9257060718038)"><path class="outline" fill="#A5ABB6" stroke="none" d="M 25 0.5 L 47.459863708972186 0.5 L 47.459863708972186 -0.5 L 25 -0.5 Z M 66.7958012089722 0.5 L 89.25566491794437 0.5 L 89.25566491794437 3.5 L 96.25566491794437 0 L 89.25566491794437 -3.5 L 89.25566491794437 -0.5 L 66.7958012089722 -0.5 Z"/><text text-anchor="middle" pointer-events="none" font-size="8px" fill="#000000" x="57.127832458972186" y="3" transform="rotate(180 57.127832458972186 0)" font-family="sans-serif">trek</text></g><g class="relationship" transform="translate(-163.23895880813336 21.656205668311244) rotate(284.1873008157211)"><path class="outline" fill="#A5ABB6" stroke="none" d="M 25 0.5 L 49.66009541570644 0.5 L 49.66009541570644 -0.5 L 25 -0.5 Z M 68.99603291570644 0.5 L 93.65612833141287 0.5 L 93.65612833141287 3.5 L 100.65612833141287 0 L 93.65612833141287 -3.5 L 93.65612833141287 -0.5 L 68.99603291570644 -0.5 Z"/><text text-anchor="middle" pointer-events="none" font-size="8px" fill="#000000" x="59.32806416570644" y="3" font-family="sans-serif">trek</text></g><g class="relationship" transform="translate(-51.48470505845085 216.71276749145875) rotate(260.9057348694281)"><path class="outline" fill="#A5ABB6" stroke="none" d="M 25 0.5 L 46.195974207126966 0.5 L 46.195974207126966 -0.5 L 25 -0.5 Z M 65.53191170712697 0.5 L 86.72788591425393 0.5 L 86.72788591425393 3.5 L 93.72788591425393 0 L 86.72788591425393 -3.5 L 86.72788591425393 -0.5 L 65.53191170712697 -0.5 Z"/><text text-anchor="middle" pointer-events="none" font-size="8px" fill="#000000" x="55.863942957126966" y="3" transform="rotate(180 55.863942957126966 0)" font-family="sans-serif">trek</text></g><g class="relationship" transform="translate(-51.48470505845085 216.71276749145875) rotate(260.9057348694281)"><path class="outline" fill="#A5ABB6" stroke="none" d="M 21.40063509461097,-12.933012701892217 L 21.90063509461097,-12.06698729810778 A 71.56598989625104 71.56598989625104 0 0 1 44.817768264073756,-20.48902562684492 L 44.63799206315326,-21.472733163454564 A 72.56598989625104 72.56598989625104 0 0 0 21.40063509461097,-12.933012701892217 Z M 66.70769424896221,-22.091724414318946 L 66.58333758795438,-21.099486831447294 A 71.56598989625104 71.56598989625104 0 0 1 89.93650027158948,-13.975196341210262 L 88.58448081616338,-11.297129241201505 L 96.4106600808476,-11.266828795217494 L 91.73919287882428,-17.54595247455527 L 90.38717342339818,-14.867885374546516 A 72.56598989625104 72.56598989625104 0 0 0 66.70769424896221,-22.091724414318946"/><text text-anchor="middle" pointer-events="none" font-size="8px" fill="#000000" x="55.66318219555465" y="-19.126683610880264" transform="rotate(180 55.66318219555465 -22.126683610880264)" font-family="sans-serif">road</text></g><g class="relationship" transform="translate(447.6699889162792 119.65683841433219) rotate(521.3497378508799)"><path class="outline" fill="#A5ABB6" stroke="none" d="M 21.40063509461097,12.933012701892217 L 21.90063509461097,12.06698729810778 A 64.87437101515962 64.87437101515962 0 0 0 41.58090015279417,19.49187714651164 L 41.38425978079865,20.472352829076726 A 65.87437101515962 65.87437101515962 0 0 1 21.40063509461097,12.933012701892217 Z M 63.45005001803323,21.125225533378853 L 63.311722634023056,20.134838975093203 A 64.87437101515962 64.87437101515962 0 0 0 83.39654503307582,13.886500698416334 L 82.05277596173818,11.20428432330482 L 89.87901142022564,11.198075594480407 L 85.1882371281927,17.46278919856502 L 83.84446805685505,14.780572823453507 A 65.87437101515962 65.87437101515962 0 0 1 63.45005001803323,21.125225533378853"/><text text-anchor="middle" pointer-events="none" font-size="8px" fill="#000000" x="52.40439913103801" y="24.229908613067025" transform="rotate(180 52.40439913103801 21.229908613067025)" font-family="sans-serif">road</text></g><g class="relationship" transform="translate(341.33261179913444 155.54719870145607) rotate(213.70314238932343)"><path class="outline" fill="#A5ABB6" stroke="none" d="M 25 0.5 L 44.03246884337726 0.5 L 44.03246884337726 -0.5 L 25 -0.5 Z M 63.36840634337726 0.5 L 82.40087518675452 0.5 L 82.40087518675452 3.5 L 89.40087518675452 0 L 82.40087518675452 -3.5 L 82.40087518675452 -0.5 L 63.36840634337726 -0.5 Z"/><text text-anchor="middle" pointer-events="none" font-size="8px" fill="#000000" x="53.70043759337726" y="3" transform="rotate(180 53.70043759337726 0)" font-family="sans-serif">trek</text></g><g class="relationship" transform="translate(246.15981352713362 92.0672907575056) rotate(475.75918928646445)"><path class="outline" fill="#A5ABB6" stroke="none" d="M 25 0.5 L 50.322775739676956 0.5 L 50.322775739676956 -0.5 L 25 -0.5 Z M 69.65871323967696 0.5 L 94.98148897935391 0.5 L 94.98148897935391 3.5 L 101.98148897935391 0 L 94.98148897935391 -3.5 L 94.98148897935391 -0.5 L 69.65871323967696 -0.5 Z"/><text text-anchor="middle" pointer-events="none" font-size="8px" fill="#000000" x="59.990744489676956" y="3" transform="rotate(180 59.990744489676956 0)" font-family="sans-serif">trek</text></g><g class="relationship" transform="translate(447.6699889162792 119.65683841433219) rotate(521.3497378508799)"><path class="outline" fill="#A5ABB6" stroke="none" d="M 25 0.5 L 26.64275102307746 0.5 L 26.64275102307746 -0.5 L 25 -0.5 Z M 78.58806352307747 0.5 L 80.23081454615492 0.5 L 80.23081454615492 3.5 L 87.23081454615492 0 L 80.23081454615492 -3.5 L 80.23081454615492 -0.5 L 78.58806352307747 -0.5 Z"/><text text-anchor="middle" pointer-events="none" font-size="8px" fill="#000000" x="52.61540727307746" y="3" transform="rotate(180 52.61540727307746 0)" font-family="sans-serif">PublicTran…</text></g><g class="relationship" transform="translate(447.6699889162792 119.65683841433219) rotate(521.3497378508799)"><path class="outline" fill="#A5ABB6" stroke="none" d="M 21.40063509461097,-12.933012701892217 L 21.90063509461097,-12.06698729810778 A 64.87437101515962 64.87437101515962 0 0 1 42.885217090680484,-19.739610510049218 L 42.70868199165295,-20.72390485566507 A 65.87437101515962 65.87437101515962 0 0 0 21.40063509461097,-12.933012701892217 Z M 62.11307204158561,-21.29803324495137 L 61.99504053222052,-20.305023394649268 A 64.87437101515962 64.87437101515962 0 0 1 83.39654503307582,-13.886500698416334 L 82.05277596173818,-11.20428432330482 L 89.87901142022564,-11.198075594480407 L 85.1882371281927,-17.46278919856502 L 83.84446805685505,-14.780572823453507 A 65.87437101515962 65.87437101515962 0 0 0 62.11307204158561,-21.29803324495137"/><text text-anchor="middle" pointer-events="none" font-size="8px" fill="#000000" x="52.40439913103801" y="-18.229908613067025" transform="rotate(180 52.40439913103801 -21.229908613067025)" font-family="sans-serif">trek</text></g><g class="relationship" transform="translate(447.6699889162792 119.65683841433219) rotate(231.93180837283455)"><path class="outline" fill="#A5ABB6" stroke="none" d="M 24.018736134675446,-6.953439040707552 L 24.277555179777966,-5.987513214418485 A 99.2729042794067 99.2729042794067 0 0 1 38.748997366029954,-8.733806428662973 L 38.635952661784046,-9.72739633141056 A 100.2729042794067 100.2729042794067 0 0 0 24.018736134675446,-6.953439040707552 Z M 58.03578812618256,-10.04533232233969 L 57.95536246469196,-9.04857171267767 A 99.2729042794067 99.2729042794067 0 0 1 72.50902467438972,-6.77795909607961 L 71.82794000074014,-3.85629455898442 L 79.43975603988676,-5.675705613746465 L 73.41713757258916,-10.673511812206531 L 72.73605289893958,-7.7518472751113405 A 100.2729042794067 100.2729042794067 0 0 0 58.03578812618256,-10.04533232233969"/><text text-anchor="middle" pointer-events="none" font-size="8px" fill="#000000" x="48.3363555787297" y="-6.856759297817234" transform="rotate(180 48.3363555787297 -9.856759297817234)" font-family="sans-serif">trek</text></g><g class="relationship" transform="translate(383.6750627534056 37.94770429524071) rotate(212.89268915529857)"><path class="outline" fill="#A5ABB6" stroke="none" d="M 21.40063509461097,-12.933012701892217 L 21.90063509461097,-12.06698729810778 A 62.3238637061792 62.3238637061792 0 0 1 41.65347613238004,-19.36362138275843 L 41.47041477936272,-20.346722873466014 A 63.3238637061792 63.3238637061792 0 0 0 21.40063509461097,-12.933012701892217 Z M 60.87454895389075,-20.933089656235687 L 60.751183423915556,-19.940728358111897 A 62.3238637061792 62.3238637061792 0 0 1 80.90856865829281,-13.85012752226902 L 79.56818312754956,-11.166218688315425 L 87.39442019264173,-11.16987942286038 L 82.69574936595046,-17.428672634207146 L 81.35536383520721,-14.744763800253551 A 63.3238637061792 63.3238637061792 0 0 0 60.87454895389075,-20.933089656235687"/><text text-anchor="middle" pointer-events="none" font-size="8px" fill="#000000" x="51.16498066639441" y="-17.888137065187898" transform="rotate(180 51.16498066639441 -20.888137065187898)" font-family="sans-serif">trek</text></g><g class="relationship" transform="translate(291.510505212821 -21.659541470044523) rotate(471.7405621145253)"><path class="outline" fill="#A5ABB6" stroke="none" d="M 21.40063509461097,12.933012701892217 L 21.90063509461097,12.06698729810778 A 75.37547983707078 75.37547983707078 0 0 0 34.919565121918495,18.014290256094625 L 34.5922861454589,18.95921801606761 A 76.37547983707078 76.37547983707078 0 0 1 21.40063509461097,12.933012701892217 Z M 80.61884685378357,20.212881369177083 L 80.34349052364331,19.251539134875642 A 75.37547983707078 75.37547983707078 0 0 0 93.6668604044552,14.021743101655723 L 92.31051141145488,11.345866159569816 L 100.13663143482238,11.302908275002638 L 95.47532572845563,17.589579024436933 L 94.1189767354553,14.913702082351026 A 76.37547983707078 76.37547983707078 0 0 1 80.61884685378357,20.212881369177083"/><text text-anchor="middle" pointer-events="none" font-size="8px" fill="#000000" x="57.52245826736841" y="25.637256452123182" transform="rotate(180 57.52245826736841 22.637256452123182)" font-family="sans-serif">twowheeler</text></g><g class="relationship" transform="translate(447.6699889162792 119.65683841433219) rotate(231.93180837283455)"><path class="outline" fill="#A5ABB6" stroke="none" d="M 24.018736134675446,6.953439040707552 L 24.277555179777966,5.987513214418485 A 99.2729042794067 99.2729042794067 0 0 0 37.427393017725024,8.574459586283325 L 37.301035472901944,9.56644434970778 A 100.2729042794067 100.2729042794067 0 0 1 24.018736134675446,6.953439040707552 Z M 59.37526256380632,9.928209854215297 L 59.28147861328191,8.932617281611414 A 99.2729042794067 99.2729042794067 0 0 0 72.50902467438972,6.77795909607961 L 71.82794000074014,3.85629455898442 L 79.43975603988676,5.675705613746465 L 73.41713757258916,10.673511812206531 L 72.73605289893958,7.7518472751113405 A 100.2729042794067 100.2729042794067 0 0 1 59.37526256380632,9.928209854215297"/><text text-anchor="middle" pointer-events="none" font-size="8px" fill="#000000" x="48.336355578729716" y="12.856759297817234" transform="rotate(180 48.336355578729716 9.856759297817234)" font-family="sans-serif">road</text></g><g class="relationship" transform="translate(383.6750627534056 37.94770429524071) rotate(212.89268915529857)"><path class="outline" fill="#A5ABB6" stroke="none" d="M 25 0.5 L 28.147741696127518 0.5 L 28.147741696127518 -0.5 L 25 -0.5 Z M 74.61258544612753 0.5 L 77.76032714225504 0.5 L 77.76032714225504 3.5 L 84.76032714225504 0 L 77.76032714225504 -3.5 L 77.76032714225504 -0.5 L 74.61258544612753 -0.5 Z"/><text text-anchor="middle" pointer-events="none" font-size="8px" fill="#000000" x="51.38016357112752" y="3" transform="rotate(180 51.38016357112752 0)" font-family="sans-serif">twowheeler</text></g><g class="relationship" transform="translate(383.6750627534056 37.94770429524071) rotate(212.89268915529857)"><path class="outline" fill="#A5ABB6" stroke="none" d="M 21.40063509461097,12.933012701892217 L 21.90063509461097,12.06698729810778 A 62.3238637061792 62.3238637061792 0 0 0 40.351347503430055,19.106779836323263 L 40.14739321227448,20.085760248343455 A 63.3238637061792 63.3238637061792 0 0 1 21.40063509461097,12.933012701892217 Z M 62.21091393472913,20.752490108394653 L 62.066444749628914,19.762980808510875 A 62.3238637061792 62.3238637061792 0 0 0 80.90856865829281,13.85012752226902 L 79.56818312754956,11.166218688315425 L 87.39442019264173,11.16987942286038 L 82.69574936595046,17.428672634207146 L 81.35536383520721,14.744763800253551 A 63.3238637061792 63.3238637061792 0 0 1 62.21091393472913,20.752490108394653"/><text text-anchor="middle" pointer-events="none" font-size="8px" fill="#000000" x="51.16498066639443" y="23.888137065187898" transform="rotate(180 51.16498066639443 20.888137065187898)" font-family="sans-serif">road</text></g><g class="relationship" transform="translate(291.510505212821 -21.659541470044523) rotate(471.7405621145253)"><path class="outline" fill="#A5ABB6" stroke="none" d="M 25 0.5 L 48.049834226102476 0.5 L 48.049834226102476 -0.5 L 25 -0.5 Z M 67.38577172610248 0.5 L 90.43560595220495 0.5 L 90.43560595220495 3.5 L 97.43560595220495 0 L 90.43560595220495 -3.5 L 90.43560595220495 -0.5 L 67.38577172610248 -0.5 Z"/><text text-anchor="middle" pointer-events="none" font-size="8px" fill="#000000" x="57.717802976102476" y="3" transform="rotate(180 57.717802976102476 0)" font-family="sans-serif">trek</text></g><g class="relationship" transform="translate(291.510505212821 -21.659541470044523) rotate(471.7405621145253)"><path class="outline" fill="#A5ABB6" stroke="none" d="M 21.40063509461097,-12.933012701892217 L 21.90063509461097,-12.06698729810778 A 75.37547983707078 75.37547983707078 0 0 1 46.66662935572373,-21.049528871119122 L 46.495197668849514,-22.03472488041649 A 76.37547983707078 76.37547983707078 0 0 0 21.40063509461097,-12.933012701892217 Z M 68.56616773183572,-22.635890075245783 L 68.44861962951491,-21.642822885353382 A 75.37547983707078 75.37547983707078 0 0 1 93.6668604044552,-14.021743101655723 L 92.31051141145488,-11.345866159569816 L 100.13663143482238,-11.302908275002638 L 95.47532572845563,-17.589579024436933 L 94.1189767354553,-14.913702082351026 A 76.37547983707078 76.37547983707078 0 0 0 68.56616773183572,-22.635890075245783"/><text text-anchor="middle" pointer-events="none" font-size="8px" fill="#000000" x="57.52245826736841" y="-19.637256452123182" transform="rotate(180 57.52245826736841 -22.637256452123182)" font-family="sans-serif">road</text></g><g class="relationship" transform="translate(-70.2507437474859 99.47733476913825) rotate(309.6085706933347)"><path class="outline" fill="#A5ABB6" stroke="none" d="M 24.018736134675446,-6.953439040707552 L 24.277555179777966,-5.987513214418485 A 164.20586459602666 164.20586459602666 0 0 1 41.63770890230056,-9.646892644568766 L 41.484611743351316,-10.635103785935655 A 165.20586459602666 165.20586459602666 0 0 0 24.018736134675446,-6.953439040707552 Z M 87.93240101459665,-11.222589040451624 L 87.80434720239347,-10.230821819184342 A 164.20586459602666 164.20586459602666 0 0 1 105.25150228284623,-7.011695434269724 L 104.54858569476802,-4.095206402882073 L 112.17379612076378,-5.857638233985162 L 106.18872440028385,-10.900347476119926 L 105.48580781220564,-7.983858444732274 A 165.20586459602666 165.20586459602666 0 0 0 87.93240101459665,-11.222589040451624"/><text text-anchor="middle" pointer-events="none" font-size="8px" fill="#000000" x="64.6940788153955" y="-9.069519183513279" font-family="sans-serif">twowheeler</text></g><g class="relationship" transform="translate(16.759254819763353 -5.6676581044097105) rotate(247.19032670819888)"><path class="outline" fill="#A5ABB6" stroke="none" d="M 24.018736134675446,-6.953439040707552 L 24.277555179777966,-5.987513214418485 A 101.2987704159884 101.2987704159884 0 0 1 25.97825166438697,-6.42744443227501 L 25.73622153466442,-7.397713166341248 A 102.2987704159884 102.2987704159884 0 0 0 24.018736134675446,-6.953439040707552 Z M 72.01890925721035,-8.149343572233562 L 71.80851275918027,-7.171727434060358 A 101.2987704159884 101.2987704159884 0 0 1 73.52259759615951,-6.787252232201978 L 72.8406448549951,-3.8657901908914383 L 80.4530011494115,-5.682939509703439 L 74.43186791771205,-10.682534953949364 L 73.74991517654765,-7.7610729126388245 A 102.2987704159884 102.2987704159884 0 0 0 72.01890925721035,-8.149343572233562"/><text text-anchor="middle" pointer-events="none" font-size="8px" fill="#000000" x="48.8426131147032" y="-6.925763703130997" transform="rotate(180 48.8426131147032 -9.925763703130997)" font-family="sans-serif">twowheeler</text></g><g class="relationship" transform="translate(-23.868114550152637 -102.2706925633851) rotate(538.8901866651426)"><path class="outline" fill="#A5ABB6" stroke="none" d="M 24.018736134675446,6.953439040707552 L 24.277555179777966,5.987513214418485 A 108.88782867664592 108.88782867664592 0 0 0 27.838345664310452,6.87758267602625 L 27.61222807471318,7.851682689204935 A 109.88782867664592 109.88782867664592 0 0 1 24.018736134675446,6.953439040707552 Z M 73.93361826923633,8.579191446978868 L 73.73820245743363,7.598470966669879 A 108.88782867664592 108.88782867664592 0 0 0 77.32518809802585,6.820662162779833 L 76.64011458579579,3.8999303567351946 L 84.25440789750168,5.7089459352504734 L 78.23861944766593,10.714971237506017 L 77.55354593543586,7.794239431461378 A 109.88782867664592 109.88782867664592 0 0 1 73.93361826923633,8.579191446978868"/><text text-anchor="middle" pointer-events="none" font-size="8px" fill="#000000" x="50.742001048497166" y="13.184287246104091" transform="rotate(180 50.742001048497166 10.184287246104091)" font-family="sans-serif">twowheeler</text></g><g class="relationship" transform="translate(-70.2507437474859 99.47733476913825) rotate(309.6085706933347)"><path class="outline" fill="#A5ABB6" stroke="none" d="M 24.018736134675446,6.953439040707552 L 24.277555179777966,5.987513214418485 A 164.20586459602666 164.20586459602666 0 0 0 55.07166408814455,11.164944946435412 L 55.000378594198224,12.1624008995245 A 165.20586459602666 165.20586459602666 0 0 1 24.018736134675446,6.953439040707552 Z M 74.382328735057,12.40754948657613 L 74.33629424046507,11.408609635880566 A 164.20586459602666 164.20586459602666 0 0 0 105.25150228284623,7.011695434269724 L 104.54858569476802,4.095206402882073 L 112.17379612076378,5.857638233985162 L 106.18872440028385,10.900347476119926 L 105.48580781220564,7.983858444732274 A 165.20586459602666 165.20586459602666 0 0 1 74.382328735057,12.40754948657613"/><text text-anchor="middle" pointer-events="none" font-size="8px" fill="#000000" x="64.69407881539551" y="15.069519183513279" font-family="sans-serif">trek</text></g><g class="relationship" transform="translate(341.33261179913444 155.54719870145607) rotate(486.409658426496)"><path class="outline" fill="#A5ABB6" stroke="none" d="M 24.018736134675446,-6.953439040707552 L 24.277555179777966,-5.987513214418485 A 169.40168924576346 169.40168924576346 0 0 1 56.38798291983197,-11.35285890943453 L 56.31871586729234,-12.350457062716941 A 170.40168924576346 170.40168924576346 0 0 0 24.018736134675446,-6.953439040707552 Z M 75.69959801752167,-12.591165471334364 L 75.6551286262736,-11.5921547240238 A 169.40168924576346 169.40168924576346 0 0 1 107.88890503609504,-7.025956914259593 L 107.1846564553867,-4.109789234483567 L 114.81067105235716,-5.868738172569476 L 108.82790314370617,-10.914180487294296 L 108.12365456299783,-7.998012807518268 A 170.40168924576346 170.40168924576346 0 0 0 75.69959801752167,-12.591165471334364"/><text text-anchor="middle" pointer-events="none" font-size="8px" fill="#000000" x="66.01194120743233" y="-9.246633338880855" transform="rotate(180 66.01194120743233 -12.246633338880855)" font-family="sans-serif">trek</text></g><g class="relationship" transform="translate(258.76200923106137 267.5037222343483) rotate(522.9283706039101)"><path class="outline" fill="#A5ABB6" stroke="none" d="M 24.018736134675446,-6.953439040707552 L 24.277555179777966,-5.987513214418485 A 141.5893393793845 141.5893393793845 0 0 1 49.3563495925048,-10.33876643533435 L 49.27465401250673,-11.335423764715301 A 142.5893393793845 142.5893393793845 0 0 0 24.018736134675446,-6.953439040707552 Z M 68.66183263541738,-11.601922172669362 L 68.60756308150508,-10.603395850773865 A 141.5893393793845 141.5893393793845 0 0 1 93.79648478616852,-6.943128491046779 L 93.09997234810764,-4.025103401431117 L 100.72129540161522,-5.804270317174001 L 94.72516803691637,-10.833828610534328 L 94.0286555988555,-7.915803520918666 A 142.5893393793845 142.5893393793845 0 0 0 68.66183263541738,-11.601922172669362"/><text text-anchor="middle" pointer-events="none" font-size="8px" fill="#000000" x="58.9705807465641" y="-8.298630566372026" transform="rotate(180 58.9705807465641 -11.298630566372026)" font-family="sans-serif">trek</text></g><g class="relationship" transform="translate(139.23320811598768 304.2108053128609) rotate(297.8861408139099)"><path class="outline" fill="#A5ABB6" stroke="none" d="M 24.018736134675446,6.953439040707552 L 24.277555179777966,5.987513214418485 A 112.94491965763801 112.94491965763801 0 0 0 42.16065691384961,9.264363250770558 L 42.06017258436138,10.259301891857191 A 113.94491965763801 113.94491965763801 0 0 1 24.018736134675446,6.953439040707552 Z M 61.45552200485826,10.558644462721261 L 61.385789448163464,9.561078740306542 A 112.94491965763801 112.94491965763801 0 0 0 79.36149764604367,6.837663866190517 L 78.67483605144542,3.917305009045766 L 86.29011191181446,5.722179954985397 L 80.27704643884132,10.731475675716851 L 79.59038484424308,7.8111168185721 A 113.94491965763801 113.94491965763801 0 0 1 61.45552200485826,10.558644462721261"/><text text-anchor="middle" pointer-events="none" font-size="8px" fill="#000000" x="51.759181756991204" y="13.322509150135545" font-family="sans-serif">trek</text></g><g class="relationship" transform="translate(341.33261179913444 155.54719870145607) rotate(486.409658426496)"><path class="outline" fill="#A5ABB6" stroke="none" d="M 24.018736134675446,6.953439040707552 L 24.277555179777966,5.987513214418485 A 169.40168924576346 169.40168924576346 0 0 0 42.947636592433184,9.878752249143673 L 42.79902944365697,10.867648560863273 A 170.40168924576346 170.40168924576346 0 0 1 24.018736134675446,6.953439040707552 Z M 89.25194111641332,11.444588576169139 L 89.12793998367327,10.452306499802148 A 169.40168924576346 169.40168924576346 0 0 0 107.88890503609504,7.025956914259593 L 107.1846564553867,4.109789234483567 L 114.81067105235716,5.868738172569476 L 108.82790314370617,10.914180487294296 L 108.12365456299783,7.998012807518268 A 170.40168924576346 170.40168924576346 0 0 1 89.25194111641332,11.444588576169139"/><text text-anchor="middle" pointer-events="none" font-size="8px" fill="#000000" x="66.01194120743239" y="15.246633338880855" transform="rotate(180 66.01194120743239 12.246633338880855)" font-family="sans-serif">twowheeler</text></g><g class="relationship" transform="translate(258.76200923106137 267.5037222343483) rotate(522.9283706039101)"><path class="outline" fill="#A5ABB6" stroke="none" d="M 24.018736134675446,6.953439040707552 L 24.277555179777966,5.987513214418485 A 141.5893393793845 141.5893393793845 0 0 0 35.957931683825095,8.593649538689078 L 35.781607384126744,9.577981668275385 A 142.5893393793845 142.5893393793845 0 0 1 24.018736134675446,6.953439040707552 Z M 82.19808792907835,10.216027998206187 L 82.04888662674377,9.227221155905 A 141.5893393793845 141.5893393793845 0 0 0 93.79648478616852,6.943128491046779 L 93.09997234810764,4.025103401431117 L 100.72129540161522,5.804270317174001 L 94.72516803691637,10.833828610534328 L 94.0286555988555,7.915803520918666 A 142.5893393793845 142.5893393793845 0 0 1 82.19808792907835,10.216027998206187"/><text text-anchor="middle" pointer-events="none" font-size="8px" fill="#000000" x="58.970580746564096" y="14.298630566372026" transform="rotate(180 58.970580746564096 11.298630566372026)" font-family="sans-serif">twowheeler</text></g><g class="relationship" transform="translate(139.23320811598768 304.2108053128609) rotate(297.8861408139099)"><path class="outline" fill="#A5ABB6" stroke="none" d="M 24.018736134675446,-6.953439040707552 L 24.277555179777966,-5.987513214418485 A 112.94491965763801 112.94491965763801 0 0 1 28.837364090872402,-7.108262389529031 L 28.618917015796654,-8.084111186930997 A 113.94491965763801 113.94491965763801 0 0 0 24.018736134675446,-6.953439040707552 Z M 74.9575023033467,-8.79928836417335 L 74.76927407050367,-7.817163050193102 A 112.94491965763801 112.94491965763801 0 0 1 79.36149764604367,-6.837663866190517 L 78.67483605144542,-3.917305009045766 L 86.29011191181446,-5.722179954985397 L 80.27704643884132,-10.731475675716851 L 79.59038484424308,-7.8111168185721 A 113.94491965763801 113.94491965763801 0 0 0 74.9575023033467,-8.79928836417335"/><text text-anchor="middle" pointer-events="none" font-size="8px" fill="#000000" x="51.75918175699117" y="-7.322509150135545" font-family="sans-serif">twowheeler</text></g><g class="relationship" transform="translate(16.759254819763353 -5.6676581044097105) rotate(247.19032670819888)"><path class="outline" fill="#A5ABB6" stroke="none" d="M 24.018736134675446,6.953439040707552 L 24.277555179777966,5.987513214418485 A 101.2987704159884 101.2987704159884 0 0 0 39.25338347434008,8.81341661924813 L 39.14240263332496,9.807239165242933 A 102.2987704159884 102.2987704159884 0 0 1 24.018736134675446,6.953439040707552 Z M 58.54155699041949,10.122281246437524 L 58.46290549980237,9.125379073190956 A 101.2987704159884 101.2987704159884 0 0 0 73.52259759615951,6.787252232201978 L 72.8406448549951,3.8657901908914383 L 80.4530011494115,5.682939509703439 L 74.43186791771205,10.682534953949364 L 73.74991517654765,7.7610729126388245 A 102.2987704159884 102.2987704159884 0 0 1 58.54155699041949,10.122281246437524"/><text text-anchor="middle" pointer-events="none" font-size="8px" fill="#000000" x="48.8426131147032" y="12.925763703130997" transform="rotate(180 48.8426131147032 9.925763703130997)" font-family="sans-serif">trek</text></g><g class="relationship" transform="translate(-23.868114550152637 -102.2706925633851) rotate(538.8901866651426)"><path class="outline" fill="#A5ABB6" stroke="none" d="M 24.018736134675446,-6.953439040707552 L 24.277555179777966,-5.987513214418485 A 108.88782867664592 108.88782867664592 0 0 1 41.14645924233221,-9.108458752534546 L 41.04256021232751,-10.103046602633313 A 109.88782867664592 109.88782867664592 0 0 0 24.018736134675446,-6.953439040707552 Z M 60.439209225369495,-10.407684092337234 L 60.36659508511111,-9.410323983532734 A 108.88782867664592 108.88782867664592 0 0 1 77.32518809802585,-6.820662162779833 L 76.64011458579579,-3.8999303567351946 L 84.25440789750168,-5.7089459352504734 L 78.23861944766593,-10.714971237506017 L 77.55354593543586,-7.794239431461378 A 109.88782867664592 109.88782867664592 0 0 0 60.439209225369495,-10.407684092337234"/><text text-anchor="middle" pointer-events="none" font-size="8px" fill="#000000" x="50.74200104849715" y="-7.184287246104091" transform="rotate(180 50.74200104849715 -10.184287246104091)" font-family="sans-serif">trek</text></g><g class="relationship" transform="translate(-51.48470505845085 216.71276749145875) rotate(191.94020419093079)"><path class="outline" fill="#A5ABB6" stroke="none" d="M 24.018736134675446,-6.953439040707552 L 24.277555179777966,-5.987513214418485 A 88.42420930706496 88.42420930706496 0 0 1 34.737230848542836,-8.123019012794018 L 34.59670153145407,-9.113095530563513 A 89.42420930706496 89.42420930706496 0 0 0 24.018736134675446,-6.953439040707552 Z M 56.67244065988095,-9.49348222088787 L 56.566104622503744,-8.499151970339838 A 88.42420930706496 88.42420930706496 0 0 1 67.09314292267332,-6.725267888047509 L 66.4169801902404,-3.8024603406251964 L 74.02572098873088,-5.634689436941063 L 67.9946932325839,-10.622344617943927 L 67.31853050015097,-7.699537070521614 A 89.42420930706496 89.42420930706496 0 0 0 56.67244065988095,-9.49348222088787"/><text text-anchor="middle" pointer-events="none" font-size="8px" fill="#000000" x="45.6314004561274" y="-6.487296921059837" transform="rotate(180 45.6314004561274 -9.487296921059837)" font-family="sans-serif">road</text></g><g class="relationship" transform="translate(-147.7385579919727 196.3583485169474) rotate(223.4499682229606)"><path class="outline" fill="#A5ABB6" stroke="none" d="M 21.40063509461097,-12.933012701892217 L 21.90063509461097,-12.06698729810778 A 61.72456131755527 61.72456131755527 0 0 1 28.514599901442505,-15.374090135739209 L 28.12175278622049,-16.293693933068113 A 62.72456131755527 62.72456131755527 0 0 0 21.40063509461097,-12.933012701892217 Z M 73.85821811580567,-17.682744064734003 L 73.52190165668182,-16.740995032707744 A 61.72456131755527 61.72456131755527 0 0 1 80.32436968929576,-13.841359140058238 L 78.98479983180688,-11.157043101118857 L 86.81103542306914,-11.16308214574073 L 82.11046283261429,-17.42044719197741 L 80.7708929751254,-14.73613115303803 A 62.72456131755527 62.72456131755527 0 0 0 73.85821811580567,-17.682744064734003"/><text text-anchor="middle" pointer-events="none" font-size="8px" fill="#000000" x="50.873980963577175" y="-17.80783291832499" transform="rotate(180 50.873980963577175 -20.80783291832499)" font-family="sans-serif">twowheeler</text></g><g class="relationship" transform="translate(-227.00077176234595 121.27274948377425) rotate(302.6221909766492)"><path class="outline" fill="#A5ABB6" stroke="none" d="M 21.40063509461097,12.933012701892217 L 21.90063509461097,12.06698729810778 A 71.10044874794073 71.10044874794073 0 0 0 32.896105155821694,17.218033429256195 L 32.55075214124637,18.15650628199289 A 72.10044874794073 72.10044874794073 0 0 1 21.40063509461097,12.933012701892217 Z M 78.50515864013241,19.450086832680213 L 78.21314521251622,18.493672613791844 A 71.10044874794073 71.10044874794073 0 0 0 89.48097014794945,13.96932079981561 L 88.12949721451191,11.290977858707107 L 95.95568249944222,11.262274445312785 L 91.28293405919949,17.540444721293618 L 89.93146112576196,14.862101780185112 A 72.10044874794073 72.10044874794073 0 0 1 78.50515864013241,19.450086832680213"/><text text-anchor="middle" pointer-events="none" font-size="8px" fill="#000000" x="55.436160958729964" y="25.0642907322694" font-family="sans-serif">twowheeler</text></g><g class="relationship" transform="translate(-51.48470505845085 216.71276749145875) rotate(191.94020419093079)"><path class="outline" fill="#A5ABB6" stroke="none" d="M 24.018736134675446,6.953439040707552 L 24.277555179777966,5.987513214418485 A 88.42420930706496 88.42420930706496 0 0 0 36.05575362800876,8.300059276413918 L 35.93013564334579,9.292137963781613 A 89.42420930706496 89.42420930706496 0 0 1 24.018736134675446,6.953439040707552 Z M 55.33362980132321,9.626479245880603 L 55.24226522266991,8.630661735607006 A 88.42420930706496 88.42420930706496 0 0 0 67.09314292267332,6.725267888047509 L 66.4169801902404,3.8024603406251964 L 74.02572098873088,5.634689436941063 L 67.9946932325839,10.622344617943927 L 67.31853050015097,7.699537070521614 A 89.42420930706496 89.42420930706496 0 0 1 55.33362980132321,9.626479245880603"/><text text-anchor="middle" pointer-events="none" font-size="8px" fill="#000000" x="45.63140045612742" y="12.487296921059837" transform="rotate(180 45.63140045612742 9.487296921059837)" font-family="sans-serif">trek</text></g><g class="relationship" transform="translate(-147.7385579919727 196.3583485169474) rotate(223.4499682229606)"><path class="outline" fill="#A5ABB6" stroke="none" d="M 25 0.5 L 41.42219912378199 0.5 L 41.42219912378199 -0.5 L 25 -0.5 Z M 60.75813662378199 0.5 L 77.18033574756399 0.5 L 77.18033574756399 3.5 L 84.18033574756399 0 L 77.18033574756399 -3.5 L 77.18033574756399 -0.5 L 60.75813662378199 -0.5 Z"/><text text-anchor="middle" pointer-events="none" font-size="8px" fill="#000000" x="51.09016787378199" y="3" transform="rotate(180 51.09016787378199 0)" font-family="sans-serif">trek</text></g><g class="relationship" transform="translate(-147.7385579919727 196.3583485169474) rotate(223.4499682229606)"><path class="outline" fill="#A5ABB6" stroke="none" d="M 21.40063509461097,12.933012701892217 L 21.90063509461097,12.06698729810778 A 61.72456131755527 61.72456131755527 0 0 0 40.0628097399119,19.01582964005997 L 39.85705524376994,19.994433281641882 A 62.72456131755527 62.72456131755527 0 0 1 21.40063509461097,12.933012701892217 Z M 61.91996335415313,20.66450004772919 L 61.77397512548454,19.675213720577034 A 61.72456131755527 61.72456131755527 0 0 0 80.32436968929576,13.841359140058238 L 78.98479983180688,11.157043101118857 L 86.81103542306914,11.16308214574073 L 82.11046283261429,17.42044719197741 L 80.7708929751254,14.73613115303803 A 62.72456131755527 62.72456131755527 0 0 1 61.91996335415313,20.66450004772919"/><text text-anchor="middle" pointer-events="none" font-size="8px" fill="#000000" x="50.873980963577196" y="23.80783291832499" transform="rotate(180 50.873980963577196 20.80783291832499)" font-family="sans-serif">road</text></g><g class="relationship" transform="translate(-227.00077176234595 121.27274948377425) rotate(302.6221909766492)"><path class="outline" fill="#A5ABB6" stroke="none" d="M 25 0.5 L 44.631744129339886 0.5 L 44.631744129339886 -0.5 L 25 -0.5 Z M 66.64346287933989 0.5 L 86.27520700867977 0.5 L 86.27520700867977 3.5 L 93.27520700867977 0 L 86.27520700867977 -3.5 L 86.27520700867977 -0.5 L 66.64346287933989 -0.5 Z"/><text text-anchor="middle" pointer-events="none" font-size="8px" fill="#000000" x="55.637603504339886" y="3" font-family="sans-serif">road</text></g><g class="relationship" transform="translate(-227.00077176234595 121.27274948377425) rotate(302.6221909766492)"><path class="outline" fill="#A5ABB6" stroke="none" d="M 21.40063509461097,-12.933012701892217 L 21.90063509461097,-12.06698729810778 A 71.10044874794073 71.10044874794073 0 0 1 45.9009209234431,-20.648252298271586 L 45.73847555567779,-21.63496983763713 A 72.10044874794073 72.10044874794073 0 0 0 21.40063509461097,-12.933012701892217 Z M 65.1426410139612,-22.181181897622338 L 65.03595954832608,-21.18688864868119 A 71.10044874794073 71.10044874794073 0 0 1 89.48097014794945,-13.96932079981561 L 88.12949721451191,-11.290977858707107 L 95.95568249944222,-11.262274445312785 L 91.28293405919949,-17.540444721293618 L 89.93146112576196,-14.862101780185112 A 72.10044874794073 72.10044874794073 0 0 0 65.1426410139612,-22.181181897622338"/><text text-anchor="middle" pointer-events="none" font-size="8px" fill="#000000" x="55.43616095872997" y="-19.0642907322694" font-family="sans-serif">trek</text></g><g class="relationship" transform="translate(16.759254819763353 -5.6676581044097105) rotate(295.2328232756534)"><path class="outline" fill="#A5ABB6" stroke="none" d="M 24.018736134675446,-6.953439040707552 L 24.277555179777966,-5.987513214418485 A 155.42096615024846 155.42096615024846 0 0 1 39.42692730692085,-9.247016255090472 L 39.26558141812659,-10.233914174922688 A 156.42096615024846 156.42096615024846 0 0 0 24.018736134675446,-6.953439040707552 Z M 85.70317955693909,-10.840098054363636 L 85.56764965419652,-9.849324798031688 A 155.42096615024846 155.42096615024846 0 0 1 100.79694260752348,-6.986376656596124 L 100.09639076541085,-4.069318700964697 L 107.72016981101558,-5.8379320176052305 L 101.73101173034031,-10.875787264104694 L 101.03045988822768,-7.958729308473267 A 156.42096615024846 156.42096615024846 0 0 0 85.70317955693909,-10.840098054363636"/><text text-anchor="middle" pointer-events="none" font-size="8px" fill="#000000" x="62.46828438521011" y="-8.7700714544101" font-family="sans-serif">twowheeler</text></g><g class="relationship" transform="translate(73.04289126513413 -125.0988325990827) rotate(526.7451674283412)"><path class="outline" fill="#A5ABB6" stroke="none" d="M 21.40063509461097,12.933012701892217 L 21.90063509461097,12.06698729810778 A 51.75461430508516 51.75461430508516 0 0 0 35.287622976938586,17.47099139364728 L 35.04628566937821,18.44143268706977 A 52.75461430508516 52.75461430508516 0 0 1 21.40063509461097,12.933012701892217 Z M 57.09258849606769,19.171957193217686 L 56.91602296958982,18.187668305309472 A 51.75461430508516 51.75461430508516 0 0 0 70.63138604977483,13.681725517735321 L 69.30666684688963,10.990049639493817 L 77.13274963281921,11.039326690710086 L 72.39767832028845,17.270626688723993 L 71.07295911740324,14.57895081048249 A 52.75461430508516 52.75461430508516 0 0 1 57.09258849606769,19.171957193217686"/><text text-anchor="middle" pointer-events="none" font-size="8px" fill="#000000" x="46.04738738133735" y="22.472126954941288" transform="rotate(180 46.04738738133735 19.472126954941288)" font-family="sans-serif">road</text></g><g class="relationship" transform="translate(16.759254819763353 -5.6676581044097105) rotate(295.2328232756534)"><path class="outline" fill="#A5ABB6" stroke="none" d="M 24.018736134675446,6.953439040707552 L 24.277555179777966,5.987513214418485 A 155.42096615024846 155.42096615024846 0 0 0 52.84873769220104,10.845755359033149 L 52.77374958844528,11.842939787459045 A 156.42096615024846 156.42096615024846 0 0 1 24.018736134675446,6.953439040707552 Z M 72.15761376684719,12.095971521596027 L 72.10868073230885,11.097169460058865 A 155.42096615024846 155.42096615024846 0 0 0 100.79694260752348,6.986376656596124 L 100.09639076541085,4.069318700964697 L 107.72016981101558,5.8379320176052305 L 101.73101173034031,10.875787264104694 L 101.03045988822768,7.958729308473267 A 156.42096615024846 156.42096615024846 0 0 1 72.15761376684719,12.095971521596027"/><text text-anchor="middle" pointer-events="none" font-size="8px" fill="#000000" x="62.46828438521016" y="14.7700714544101" font-family="sans-serif">trek</text></g><g class="relationship" transform="translate(73.04289126513413 -125.0988325990827) rotate(526.7451674283412)"><path class="outline" fill="#A5ABB6" stroke="none" d="M 25 0.5 L 36.61372222574922 0.5 L 36.61372222574922 -0.5 L 25 -0.5 Z M 55.94965972574922 0.5 L 67.56338195149844 0.5 L 67.56338195149844 3.5 L 74.56338195149844 0 L 67.56338195149844 -3.5 L 67.56338195149844 -0.5 L 55.94965972574922 -0.5 Z"/><text text-anchor="middle" pointer-events="none" font-size="8px" fill="#000000" x="46.28169097574922" y="3" transform="rotate(180 46.28169097574922 0)" font-family="sans-serif">trek</text></g><g class="relationship" transform="translate(73.04289126513413 -125.0988325990827) rotate(526.7451674283412)"><path class="outline" fill="#A5ABB6" stroke="none" d="M 21.40063509461097,-12.933012701892217 L 21.90063509461097,-12.06698729810778 A 51.75461430508516 51.75461430508516 0 0 1 23.98327448754715,-13.2065278083125 L 23.52351513895379,-14.094571355319637 A 52.75461430508516 52.75461430508516 0 0 0 21.40063509461097,-12.933012701892217 Z M 68.87784156044141,-15.597428644870163 L 68.47787845595798,-14.680897404239502 A 51.75461430508516 51.75461430508516 0 0 1 70.63138604977483,-13.681725517735321 L 69.30666684688963,-10.990049639493817 L 77.13274963281921,-11.039326690710086 L 72.39767832028845,-17.270626688723993 L 71.07295911740324,-14.57895081048249 A 52.75461430508516 52.75461430508516 0 0 0 68.87784156044141,-15.597428644870163"/><text text-anchor="middle" pointer-events="none" font-size="8px" fill="#000000" x="46.047387381337344" y="-16.472126954941288" transform="rotate(180 46.047387381337344 -19.472126954941288)" font-family="sans-serif">twowheeler</text></g><g class="relationship" transform="translate(-70.2507437474859 99.47733476913825) rotate(488.6536784970739)"><path class="outline" fill="#A5ABB6" stroke="none" d="M 25 0.5 L 48.86083943859749 0.5 L 48.86083943859749 -0.5 L 25 -0.5 Z M 68.19677693859748 0.5 L 92.05761637719498 0.5 L 92.05761637719498 3.5 L 99.05761637719498 0 L 92.05761637719498 -3.5 L 92.05761637719498 -0.5 L 68.19677693859748 -0.5 Z"/><text text-anchor="middle" pointer-events="none" font-size="8px" fill="#000000" x="58.52880818859749" y="3" transform="rotate(180 58.52880818859749 0)" font-family="sans-serif">trek</text></g><g class="relationship" transform="translate(73.04289126513413 -125.0988325990827) rotate(209.05815095331747)"><path class="outline" fill="#A5ABB6" stroke="none" d="M 25 0.5 L 48.10332415123691 0.5 L 48.10332415123691 -0.5 L 25 -0.5 Z M 67.4392616512369 0.5 L 90.54258580247382 0.5 L 90.54258580247382 3.5 L 97.54258580247382 0 L 90.54258580247382 -3.5 L 90.54258580247382 -0.5 L 67.4392616512369 -0.5 Z"/><text text-anchor="middle" pointer-events="none" font-size="8px" fill="#000000" x="57.77129290123691" y="3" transform="rotate(180 57.77129290123691 0)" font-family="sans-serif">trek</text></g><g class="relationship" transform="translate(-34.0749174994916 -184.61740432776023) rotate(499.3531556111776)"><path class="outline" fill="#A5ABB6" stroke="none" d="M 25 0.5 L 51.65449790311615 0.5 L 51.65449790311615 -0.5 L 25 -0.5 Z M 70.99043540311615 0.5 L 97.6449333062323 0.5 L 97.6449333062323 3.5 L 104.6449333062323 0 L 97.6449333062323 -3.5 L 97.6449333062323 -0.5 L 70.99043540311615 -0.5 Z"/><text text-anchor="middle" pointer-events="none" font-size="8px" fill="#000000" x="61.32246665311615" y="3" transform="rotate(180 61.32246665311615 0)" font-family="sans-serif">trek</text></g><g class="relationship" transform="translate(258.76200923106137 267.5037222343483) rotate(478.140197732949)"><path class="outline" fill="#A5ABB6" stroke="none" d="M 24.018736134675446,-6.953439040707552 L 24.277555179777966,-5.987513214418485 A 174.09780738261045 174.09780738261045 0 0 1 57.578639533195,-11.522199446843842 L 57.51109851079745,-12.519915944799806 A 175.09780738261045 175.09780738261045 0 0 0 24.018736134675446,-6.953439040707552 Z M 76.8910538887014,-12.75674465442944 L 76.8479141683324,-11.757675605501134 A 174.09780738261045 174.09780738261045 0 0 1 110.2743047002957,-7.038418586703712 L 109.56889223345156,-4.122532228900846 L 117.19560827964308,-5.878437223701189 L 111.2148546560879,-10.9262670637742 L 110.50944218924376,-8.010380705971334 A 175.09780738261045 175.09780738261045 0 0 0 76.8910538887014,-12.75674465442944"/><text text-anchor="middle" pointer-events="none" font-size="8px" fill="#000000" x="67.20390658457076" y="-9.406716777650416" transform="rotate(180 67.20390658457076 -12.406716777650416)" font-family="sans-serif">trek</text></g><g class="relationship" transform="translate(192.0287901295609 392.2731761636281) rotate(239.0562642579)"><path class="outline" fill="#A5ABB6" stroke="none" d="M 21.40063509461097,12.933012701892217 L 21.90063509461097,12.06698729810778 A 54.98868742603748 54.98868742603748 0 0 0 36.83092736797988,17.979491675144565 L 36.602443073704826,18.953039274016668 A 55.98868742603748 55.98868742603748 0 0 1 21.40063509461097,12.933012701892217 Z M 58.655745681635615,19.662878104979015 L 58.49034143124593,18.67665225155951 A 54.98868742603748 54.98868742603748 0 0 0 73.76995182529011,13.736526586870855 L 72.44013432143828,11.047365861579541 L 80.26629643494513,11.081812532098494 L 75.54304183042586,17.32207422059261 L 74.21322432657404,14.632913495301295 A 55.98868742603748 55.98868742603748 0 0 1 58.655745681635615,19.662878104979015"/><text text-anchor="middle" pointer-events="none" font-size="8px" fill="#000000" x="47.60986580341325" y="22.90535284196082" transform="rotate(180 47.60986580341325 19.90535284196082)" font-family="sans-serif">road</text></g><g class="relationship" transform="translate(258.76200923106137 267.5037222343483) rotate(478.140197732949)"><path class="outline" fill="#A5ABB6" stroke="none" d="M 24.018736134675446,6.953439040707552 L 24.277555179777966,5.987513214418485 A 174.09780738261045 174.09780738261045 0 0 0 44.132956145822014,10.08564778903866 L 43.98818449318554,11.075112881193462 A 175.09780738261045 175.09780738261045 0 0 1 24.018736134675446,6.953439040707552 Z M 90.4452361637855,11.64283160839392 L 90.32468723722656,10.650124221342963 A 174.09780738261045 174.09780738261045 0 0 0 110.2743047002957,7.038418586703712 L 109.56889223345156,4.122532228900846 L 117.19560827964308,5.878437223701189 L 111.2148546560879,10.9262670637742 L 110.50944218924376,8.010380705971334 A 175.09780738261045 175.09780738261045 0 0 1 90.4452361637855,11.64283160839392"/><text text-anchor="middle" pointer-events="none" font-size="8px" fill="#000000" x="67.20390658457077" y="15.406716777650416" transform="rotate(180 67.20390658457077 12.406716777650416)" font-family="sans-serif">twowheeler</text></g><g class="relationship" transform="translate(192.0287901295609 392.2731761636281) rotate(239.0562642579)"><path class="outline" fill="#A5ABB6" stroke="none" d="M 25 0.5 L 38.17001582285304 0.5 L 38.17001582285304 -0.5 L 25 -0.5 Z M 57.50595332285304 0.5 L 70.67596914570608 0.5 L 70.67596914570608 3.5 L 77.67596914570608 0 L 70.67596914570608 -3.5 L 70.67596914570608 -0.5 L 57.50595332285304 -0.5 Z"/><text text-anchor="middle" pointer-events="none" font-size="8px" fill="#000000" x="47.83798457285304" y="3" transform="rotate(180 47.83798457285304 0)" font-family="sans-serif">trek</text></g><g class="relationship" transform="translate(192.0287901295609 392.2731761636281) rotate(239.0562642579)"><path class="outline" fill="#A5ABB6" stroke="none" d="M 21.40063509461097,-12.933012701892217 L 21.90063509461097,-12.06698729810778 A 54.98868742603748 54.98868742603748 0 0 1 25.43403119243085,-13.939111256643457 L 24.998287974383913,-14.83918228046663 A 55.98868742603748 55.98868742603748 0 0 0 21.40063509461097,-12.933012701892217 Z M 70.50043593418052,-16.303778857599823 L 70.12347662156166,-15.377549039126073 A 54.98868742603748 54.98868742603748 0 0 1 73.76995182529011,-13.736526586870855 L 72.44013432143828,-11.047365861579541 L 80.26629643494513,-11.081812532098494 L 75.54304183042586,-17.32207422059261 L 74.21322432657404,-14.632913495301295 A 55.98868742603748 55.98868742603748 0 0 0 70.50043593418052,-16.303778857599823"/><text text-anchor="middle" pointer-events="none" font-size="8px" fill="#000000" x="47.609865803413236" y="-16.90535284196082" transform="rotate(180 47.609865803413236 -19.90535284196082)" font-family="sans-serif">twowheeler</text></g><g class="relationship" transform="translate(192.0287901295609 392.2731761636281) rotate(315.02572370656094)"><path class="outline" fill="#A5ABB6" stroke="none" d="M 25 0.5 L 32.690905858525134 0.5 L 32.690905858525134 -0.5 L 25 -0.5 Z M 52.026843358525134 0.5 L 59.71774921705027 0.5 L 59.71774921705027 3.5 L 66.71774921705027 0 L 59.71774921705027 -3.5 L 59.71774921705027 -0.5 L 52.026843358525134 -0.5 Z"/><text text-anchor="middle" pointer-events="none" font-size="8px" fill="#000000" x="42.358874608525134" y="3" font-family="sans-serif">trek</text></g><g class="relationship" transform="translate(256.91214319843533 327.4480574519627) rotate(241.41597538649285)"><path class="outline" fill="#A5ABB6" stroke="none" d="M 25 0.5 L 55.73953075523818 0.5 L 55.73953075523818 -0.5 L 25 -0.5 Z M 75.07546825523818 0.5 L 105.81499901047636 0.5 L 105.81499901047636 3.5 L 112.81499901047636 0 L 105.81499901047636 -3.5 L 105.81499901047636 -0.5 L 75.07546825523818 -0.5 Z"/><text text-anchor="middle" pointer-events="none" font-size="8px" fill="#000000" x="65.40749950523818" y="3" transform="rotate(180 65.40749950523818 0)" font-family="sans-serif">trek</text></g><g class="relationship" transform="translate(341.33261179913444 155.54719870145607) rotate(289.8017371880829)"><path class="outline" fill="#A5ABB6" stroke="none" d="M 25 0.5 L 49.32707952866832 0.5 L 49.32707952866832 -0.5 L 25 -0.5 Z M 68.66301702866832 0.5 L 92.99009655733664 0.5 L 92.99009655733664 3.5 L 99.99009655733664 0 L 92.99009655733664 -3.5 L 92.99009655733664 -0.5 L 68.66301702866832 -0.5 Z"/><text text-anchor="middle" pointer-events="none" font-size="8px" fill="#000000" x="58.99504827866832" y="3" font-family="sans-serif">trek</text></g></g><g class="layer nodes"><g class="node" transform="translate(-51.48470505845085,216.71276749145875)"><circle class="outline" cx="0" cy="0" r="25" fill="#F16667" stroke="#eb2728" stroke-width="2px"/><text text-anchor="middle" pointer-events="none" font-family="sans-serif" dy="1.5625" font-size="25" fill="#FFFFFF"/><text text-anchor="middle" pointer-events="none" x="0" y="5" font-size="10px" fill="#FFFFFF" font-family="sans-serif"> Darjeeling</text></g><g class="node" transform="translate(-132.44158298276827,-100.16737263043895)"><circle class="outline" cx="0" cy="0" r="25" fill="#D9C8AE" stroke="#c0a378" stroke-width="2px"/><text text-anchor="middle" pointer-events="none" font-family="sans-serif" dy="1.5625" font-size="25" fill="#2A2C34"/><text text-anchor="middle" pointer-events="none" x="0" y="5" font-size="10px" fill="#2A2C34" font-family="sans-serif"> Sandak…</text></g><g class="node" transform="translate(447.6699889162792,119.65683841433219)"><circle class="outline" cx="0" cy="0" r="25" fill="#F16667" stroke="#eb2728" stroke-width="2px"/><text text-anchor="middle" pointer-events="none" font-family="sans-serif" dy="1.5625" font-size="25" fill="#FFFFFF"/><text text-anchor="middle" pointer-events="none" x="0" y="5" font-size="10px" fill="#FFFFFF" font-family="sans-serif"> Darjeeling</text></g><g class="node" transform="translate(190.97496521160315,206.43044505033575)"><circle class="outline" cx="0" cy="0" r="25" fill="#D9C8AE" stroke="#c0a378" stroke-width="2px"/><text text-anchor="middle" pointer-events="none" font-family="sans-serif" dy="1.5625" font-size="25" fill="#2A2C34"/><text text-anchor="middle" pointer-events="none" x="0" y="5" font-size="10px" fill="#2A2C34" font-family="sans-serif"> Sandak…</text></g><g class="node" transform="translate(-70.2507437474859,99.47733476913825)"><circle class="outline" cx="0" cy="0" r="25" fill="#F16667" stroke="#eb2728" stroke-width="2px"/><text text-anchor="middle" pointer-events="none" font-family="sans-serif" dy="1.5625" font-size="25" fill="#FFFFFF"/><text text-anchor="middle" pointer-events="none" x="0" y="5" font-size="10px" fill="#FFFFFF" font-family="sans-serif"> Rimbik</text></g><g class="node" transform="translate(-163.23895880813336,21.656205668311244)"><circle class="outline" cx="0" cy="0" r="25" fill="#8DCC93" stroke="#5db665" stroke-width="2px"/><text text-anchor="middle" pointer-events="none" font-family="sans-serif" dy="1.5625" font-size="25" fill="#2A2C34"/><text text-anchor="middle" pointer-events="none" x="0" y="5" font-size="10px" fill="#2A2C34" font-family="sans-serif"> BhikeBh…</text></g><g class="node" transform="translate(341.33261179913444,155.54719870145607)"><circle class="outline" cx="0" cy="0" r="25" fill="#F16667" stroke="#eb2728" stroke-width="2px"/><text text-anchor="middle" pointer-events="none" font-family="sans-serif" dy="1.5625" font-size="25" fill="#FFFFFF"/><text text-anchor="middle" pointer-events="none" x="0" y="5" font-size="10px" fill="#FFFFFF" font-family="sans-serif"> Rimbik</text></g><g class="node" transform="translate(246.15981352713362,92.0672907575056)"><circle class="outline" cx="0" cy="0" r="25" fill="#8DCC93" stroke="#5db665" stroke-width="2px"/><text text-anchor="middle" pointer-events="none" font-family="sans-serif" dy="1.5625" font-size="25" fill="#2A2C34"/><text text-anchor="middle" pointer-events="none" x="0" y="5" font-size="10px" fill="#2A2C34" font-family="sans-serif"> BhikeBh…</text></g><g class="node" transform="translate(383.6750627534056,37.94770429524071)"><circle class="outline" cx="0" cy="0" r="25" fill="#8DCC93" stroke="#5db665" stroke-width="2px"/><text text-anchor="middle" pointer-events="none" font-family="sans-serif" dy="1.5625" font-size="25" fill="#2A2C34"/><text text-anchor="middle" pointer-events="none" x="0" y="5" font-size="10px" fill="#2A2C34" font-family="sans-serif"> Tumbling</text></g><g class="node" transform="translate(291.510505212821,-21.659541470044523)"><circle class="outline" cx="0" cy="0" r="25" fill="#8DCC93" stroke="#5db665" stroke-width="2px"/><text text-anchor="middle" pointer-events="none" font-family="sans-serif" dy="1.5625" font-size="25" fill="#2A2C34"/><text text-anchor="middle" pointer-events="none" x="0" y="5" font-size="10px" fill="#2A2C34" font-family="sans-serif"> Gairibus</text></g><g class="node" transform="translate(16.759254819763353,-5.6676581044097105)"><circle class="outline" cx="0" cy="0" r="25" fill="#8DCC93" stroke="#5db665" stroke-width="2px"/><text text-anchor="middle" pointer-events="none" font-family="sans-serif" dy="1.5625" font-size="25" fill="#2A2C34"/><text text-anchor="middle" pointer-events="none" x="0" y="5" font-size="10px" fill="#2A2C34" font-family="sans-serif"> Sirikhola</text></g><g class="node" transform="translate(-23.868114550152637,-102.2706925633851)"><circle class="outline" cx="0" cy="0" r="25" fill="#8DCC93" stroke="#5db665" stroke-width="2px"/><text text-anchor="middle" pointer-events="none" font-family="sans-serif" dy="1.5625" font-size="25" fill="#2A2C34"/><text text-anchor="middle" pointer-events="none" x="0" y="5" font-size="10px" fill="#2A2C34" font-family="sans-serif"> Gurdum</text></g><g class="node" transform="translate(258.76200923106137,267.5037222343483)"><circle class="outline" cx="0" cy="0" r="25" fill="#8DCC93" stroke="#5db665" stroke-width="2px"/><text text-anchor="middle" pointer-events="none" font-family="sans-serif" dy="1.5625" font-size="25" fill="#2A2C34"/><text text-anchor="middle" pointer-events="none" x="0" y="5" font-size="10px" fill="#2A2C34" font-family="sans-serif"> Sirikhola</text></g><g class="node" transform="translate(139.23320811598768,304.2108053128609)"><circle class="outline" cx="0" cy="0" r="25" fill="#8DCC93" stroke="#5db665" stroke-width="2px"/><text text-anchor="middle" pointer-events="none" font-family="sans-serif" dy="1.5625" font-size="25" fill="#2A2C34"/><text text-anchor="middle" pointer-events="none" x="0" y="5" font-size="10px" fill="#2A2C34" font-family="sans-serif"> Gurdum</text></g><g class="node" transform="translate(-147.7385579919727,196.3583485169474)"><circle class="outline" cx="0" cy="0" r="25" fill="#8DCC93" stroke="#5db665" stroke-width="2px"/><text text-anchor="middle" pointer-events="none" font-family="sans-serif" dy="1.5625" font-size="25" fill="#2A2C34"/><text text-anchor="middle" pointer-events="none" x="0" y="5" font-size="10px" fill="#2A2C34" font-family="sans-serif"> Tumbling</text></g><g class="node" transform="translate(-227.00077176234595,121.27274948377425)"><circle class="outline" cx="0" cy="0" r="25" fill="#8DCC93" stroke="#5db665" stroke-width="2px"/><text text-anchor="middle" pointer-events="none" font-family="sans-serif" dy="1.5625" font-size="25" fill="#2A2C34"/><text text-anchor="middle" pointer-events="none" x="0" y="5" font-size="10px" fill="#2A2C34" font-family="sans-serif"> Gairibus</text></g><g class="node" transform="translate(73.04289126513413,-125.0988325990827)"><circle class="outline" cx="0" cy="0" r="25" fill="#8DCC93" stroke="#5db665" stroke-width="2px"/><text text-anchor="middle" pointer-events="none" font-family="sans-serif" dy="1.5625" font-size="25" fill="#2A2C34"/><text text-anchor="middle" pointer-events="none" x="0" y="5" font-size="10px" fill="#2A2C34" font-family="sans-serif"> Rammam</text></g><g class="node" transform="translate(-34.0749174994916,-184.61740432776023)"><circle class="outline" cx="0" cy="0" r="25" fill="#D9C8AE" stroke="#c0a378" stroke-width="2px"/><text text-anchor="middle" pointer-events="none" font-family="sans-serif" dy="1.5625" font-size="25" fill="#2A2C34"/><text text-anchor="middle" pointer-events="none" x="0" y="5" font-size="10px" fill="#2A2C34" font-family="sans-serif"> Sabargr…</text></g><g class="node" transform="translate(192.0287901295609,392.2731761636281)"><circle class="outline" cx="0" cy="0" r="25" fill="#8DCC93" stroke="#5db665" stroke-width="2px"/><text text-anchor="middle" pointer-events="none" font-family="sans-serif" dy="1.5625" font-size="25" fill="#2A2C34"/><text text-anchor="middle" pointer-events="none" x="0" y="5" font-size="10px" fill="#2A2C34" font-family="sans-serif"> Rammam</text></g><g class="node" transform="translate(256.91214319843533,327.4480574519627)"><circle class="outline" cx="0" cy="0" r="25" fill="#D9C8AE" stroke="#c0a378" stroke-width="2px"/><text text-anchor="middle" pointer-events="none" font-family="sans-serif" dy="1.5625" font-size="25" fill="#2A2C34"/><text text-anchor="middle" pointer-events="none" x="0" y="5" font-size="10px" fill="#2A2C34" font-family="sans-serif"> Sabargr…</text></g></g></svg>