<svg xmlns="http://www.w3.org/2000/svg" width="658.0562744140625" height="595.6669921875" viewBox="-228.3942108154297 -193.41656494140625 658.0562744140625 595.6669921875"><title>Neo4j Graph Visualization</title><desc>Created using Neo4j (http://www.neo4j.com/)</desc><g class="layer relationships"><g class="relationship" transform="translate(222.30605903972224 27.405777869051924) rotate(502.11927936071044)"><path class="outline" fill="#A5ABB6" stroke="none" d="M 25 0.5 L 60.78560360811012 0.5 L 60.78560360811012 -0.5 L 25 -0.5 Z M 95.23091610811012 0.5 L 131.01651971622024 0.5 L 131.01651971622024 3.5 L 138.01651971622024 0 L 131.01651971622024 -3.5 L 131.01651971622024 -0.5 L 95.23091610811012 -0.5 Z"/><text text-anchor="middle" pointer-events="none" font-size="8px" fill="#000000" x="78.00825985811012" y="3" transform="rotate(180 78.00825985811012 0)" font-family="sans-serif">ORIGIN</text></g><g class="relationship" transform="translate(222.30605903972224 27.405777869051924) rotate(324.1130963448219)"><path class="outline" fill="#A5ABB6" stroke="none" d="M 25 0.5 L 46.352893083688656 0.5 L 46.352893083688656 -0.5 L 25 -0.5 Z M 105.54429933368866 0.5 L 126.89719241737731 0.5 L 126.89719241737731 3.5 L 133.8971924173773 0 L 126.89719241737731 -3.5 L 126.89719241737731 -0.5 L 105.54429933368866 -0.5 Z"/><text text-anchor="middle" pointer-events="none" font-size="8px" fill="#000000" x="75.94859620868866" y="3" font-family="sans-serif">DESTINATION</text></g><g class="relationship" transform="translate(112.67594726921243 327.4523268954175) rotate(264.5612735611972)"><path class="outline" fill="#A5ABB6" stroke="none" d="M 25 0.5 L 79.70505786770657 0.5 L 79.70505786770657 -0.5 L 25 -0.5 Z M 114.15037036770657 0.5 L 168.85542823541314 0.5 L 168.85542823541314 3.5 L 175.85542823541314 0 L 168.85542823541314 -3.5 L 168.85542823541314 -0.5 L 114.15037036770657 -0.5 Z"/><text text-anchor="middle" pointer-events="none" font-size="8px" fill="#000000" x="96.92771411770657" y="3" transform="rotate(180 96.92771411770657 0)" font-family="sans-serif">ORIGIN</text></g><g class="relationship" transform="translate(112.67594726921243 327.4523268954175) rotate(375.9883375667233)"><path class="outline" fill="#A5ABB6" stroke="none" d="M 25 0.5 L 35.47793332252655 0.5 L 35.47793332252655 -0.5 L 25 -0.5 Z M 94.66933957252655 0.5 L 105.1472728950531 0.5 L 105.1472728950531 3.5 L 112.1472728950531 0 L 105.1472728950531 -3.5 L 105.1472728950531 -0.5 L 94.66933957252655 -0.5 Z"/><text text-anchor="middle" pointer-events="none" font-size="8px" fill="#000000" x="65.07363644752655" y="3" font-family="sans-serif">DESTINATION</text></g><g class="relationship" transform="translate(258.6618934814322 75.13157759388308) rotate(522.3933493810905)"><path class="outline" fill="#A5ABB6" stroke="none" d="M 25 0.5 L 65.8441488936439 0.5 L 65.8441488936439 -0.5 L 25 -0.5 Z M 100.2894613936439 0.5 L 141.1336102872878 0.5 L 141.1336102872878 3.5 L 148.1336102872878 0 L 141.1336102872878 -3.5 L 141.1336102872878 -0.5 L 100.2894613936439 -0.5 Z"/><text text-anchor="middle" pointer-events="none" font-size="8px" fill="#000000" x="83.0668051436439" y="3" transform="rotate(180 83.0668051436439 0)" font-family="sans-serif">ORIGIN</text></g><g class="relationship" transform="translate(258.6618934814322 75.13157759388308) rotate(368.48680259490686)"><path class="outline" fill="#A5ABB6" stroke="none" d="M 25 0.5 L 38.69043752888987 0.5 L 38.69043752888987 -0.5 L 25 -0.5 Z M 97.88184377888987 0.5 L 111.57228130777975 0.5 L 111.57228130777975 3.5 L 118.57228130777975 0 L 111.57228130777975 -3.5 L 111.57228130777975 -0.5 L 97.88184377888987 -0.5 Z"/><text text-anchor="middle" pointer-events="none" font-size="8px" fill="#000000" x="68.28614065388987" y="3" font-family="sans-serif">DESTINATION</text></g><g class="relationship" transform="translate(214.4236580227084 263.91971158324765) rotate(228.4783192426337)"><path class="outline" fill="#A5ABB6" stroke="none" d="M 25 0.5 L 70.38038180186551 0.5 L 70.38038180186551 -0.5 L 25 -0.5 Z M 104.82569430186551 0.5 L 150.20607610373102 0.5 L 150.20607610373102 3.5 L 157.20607610373102 0 L 150.20607610373102 -3.5 L 150.20607610373102 -0.5 L 104.82569430186551 -0.5 Z"/><text text-anchor="middle" pointer-events="none" font-size="8px" fill="#000000" x="87.60303805186551" y="3" transform="rotate(180 87.60303805186551 0)" font-family="sans-serif">ORIGIN</text></g><g class="relationship" transform="translate(214.4236580227084 263.91971158324765) rotate(433.45560779713753)"><path class="outline" fill="#A5ABB6" stroke="none" d="M 25 0.5 L 25.006100644753836 0.5 L 25.006100644753836 -0.5 L 25 -0.5 Z M 73.67797564475384 0.5 L 73.68407628950767 0.5 L 73.68407628950767 3.5 L 80.68407628950767 0 L 73.68407628950767 -3.5 L 73.68407628950767 -0.5 L 73.67797564475384 -0.5 Z"/><text text-anchor="middle" pointer-events="none" font-size="8px" fill="#000000" x="49.342038144753836" y="3" font-family="sans-serif">DESTINA…</text></g><g class="relationship" transform="translate(163.57463949608118 295.77002390864845) rotate(247.4312263321488)"><path class="outline" fill="#A5ABB6" stroke="none" d="M 25 0.5 L 70.38918189511287 0.5 L 70.38918189511287 -0.5 L 25 -0.5 Z M 104.83449439511287 0.5 L 150.22367629022574 0.5 L 150.22367629022574 3.5 L 157.22367629022574 0 L 150.22367629022574 -3.5 L 150.22367629022574 -0.5 L 104.83449439511287 -0.5 Z"/><text text-anchor="middle" pointer-events="none" font-size="8px" fill="#000000" x="87.61183814511287" y="3" transform="rotate(180 87.61183814511287 0)" font-family="sans-serif">ORIGIN</text></g><g class="relationship" transform="translate(163.57463949608118 295.77002390864845) rotate(400.6332321142244)"><path class="outline" fill="#A5ABB6" stroke="none" d="M 25 0.5 L 25.493940780551753 0.5 L 25.493940780551753 -0.5 L 25 -0.5 Z M 74.16581578055175 0.5 L 74.6597565611035 0.5 L 74.6597565611035 3.5 L 81.6597565611035 0 L 74.6597565611035 -3.5 L 74.6597565611035 -0.5 L 74.16581578055175 -0.5 Z"/><text text-anchor="middle" pointer-events="none" font-size="8px" fill="#000000" x="49.82987828055175" y="3" font-family="sans-serif">DESTINA…</text></g><g class="relationship" transform="translate(179.89519726763612 -16.63687351888685) rotate(480.89758708667273)"><path class="outline" fill="#A5ABB6" stroke="none" d="M 25 0.5 L 63.26537528748301 0.5 L 63.26537528748301 -0.5 L 25 -0.5 Z M 97.71068778748301 0.5 L 135.97606307496602 0.5 L 135.97606307496602 3.5 L 142.97606307496602 0 L 135.97606307496602 -3.5 L 135.97606307496602 -0.5 L 97.71068778748301 -0.5 Z"/><text text-anchor="middle" pointer-events="none" font-size="8px" fill="#000000" x="80.48803153748301" y="3" transform="rotate(180 80.48803153748301 0)" font-family="sans-serif">ORIGIN</text></g><g class="relationship" transform="translate(179.89519726763612 -16.63687351888685) rotate(293.50111023891293)"><path class="outline" fill="#A5ABB6" stroke="none" d="M 25 0.5 L 47.12129862216477 0.5 L 47.12129862216477 -0.5 L 25 -0.5 Z M 106.31270487216477 0.5 L 128.43400349432954 0.5 L 128.43400349432954 3.5 L 135.43400349432954 0 L 128.43400349432954 -3.5 L 128.43400349432954 -0.5 L 106.31270487216477 -0.5 Z"/><text text-anchor="middle" pointer-events="none" font-size="8px" fill="#000000" x="76.71700174716477" y="3" font-family="sans-serif">DESTINATION</text></g><g class="relationship" transform="translate(110.68140020389336 267.6530572600494) rotate(263.06675281352125)"><path class="outline" fill="#A5ABB6" stroke="none" d="M 25 0.5 L 49.869518352529255 0.5 L 49.869518352529255 -0.5 L 25 -0.5 Z M 84.31483085252925 0.5 L 109.18434920505851 0.5 L 109.18434920505851 3.5 L 116.18434920505851 0 L 109.18434920505851 -3.5 L 109.18434920505851 -0.5 L 84.31483085252925 -0.5 Z"/><text text-anchor="middle" pointer-events="none" font-size="8px" fill="#000000" x="67.09217460252925" y="3" transform="rotate(180 67.09217460252925 0)" font-family="sans-serif">ORIGIN</text></g><g class="relationship" transform="translate(110.68140020389336 267.6530572600494) rotate(396.09440301870677)"><path class="outline" fill="#A5ABB6" stroke="none" d="M 25 0.5 L 49.719149808039035 0.5 L 49.719149808039035 -0.5 L 25 -0.5 Z M 108.91055605803903 0.5 L 133.62970586607807 0.5 L 133.62970586607807 3.5 L 140.62970586607807 0 L 133.62970586607807 -3.5 L 133.62970586607807 -0.5 L 108.91055605803903 -0.5 Z"/><text text-anchor="middle" pointer-events="none" font-size="8px" fill="#000000" x="79.31485293303903" y="3" font-family="sans-serif">DESTINATION</text></g><g class="relationship" transform="translate(13.460422614730959 -26.419196994531326) rotate(422.4846672713639)"><path class="outline" fill="#A5ABB6" stroke="none" d="M 25 0.5 L 66.052930825339 0.5 L 66.052930825339 -0.5 L 25 -0.5 Z M 100.498243325339 0.5 L 141.551174150678 0.5 L 141.551174150678 3.5 L 148.551174150678 0 L 141.551174150678 -3.5 L 141.551174150678 -0.5 L 100.498243325339 -0.5 Z"/><text text-anchor="middle" pointer-events="none" font-size="8px" fill="#000000" x="83.275587075339" y="3" font-family="sans-serif">ORIGIN</text></g><g class="relationship" transform="translate(13.460422614730959 -26.419196994531326) rotate(281.050454301835)"><path class="outline" fill="#A5ABB6" stroke="none" d="M 25 0.5 L 37.206472368354895 0.5 L 37.206472368354895 -0.5 L 25 -0.5 Z M 96.3978786183549 0.5 L 108.60435098670979 0.5 L 108.60435098670979 3.5 L 115.60435098670979 0 L 108.60435098670979 -3.5 L 108.60435098670979 -0.5 L 96.3978786183549 -0.5 Z"/><text text-anchor="middle" pointer-events="none" font-size="8px" fill="#000000" x="66.8021754933549" y="3" font-family="sans-serif">DESTINATION</text></g><g class="relationship" transform="translate(116.82300279855535 -42.99623715413257) rotate(457.7436323160117)"><path class="outline" fill="#A5ABB6" stroke="none" d="M 25 0.5 L 65.3105717530501 0.5 L 65.3105717530501 -0.5 L 25 -0.5 Z M 99.7558842530501 0.5 L 140.0664560061002 0.5 L 140.0664560061002 3.5 L 147.0664560061002 0 L 140.0664560061002 -3.5 L 140.0664560061002 -0.5 L 99.7558842530501 -0.5 Z"/><text text-anchor="middle" pointer-events="none" font-size="8px" fill="#000000" x="82.5332280030501" y="3" transform="rotate(180 82.5332280030501 0)" font-family="sans-serif">ORIGIN</text></g><g class="relationship" transform="translate(116.82300279855535 -42.99623715413257) rotate(237.81689409095736)"><path class="outline" fill="#A5ABB6" stroke="none" d="M 25 0.5 L 38.63602615660635 0.5 L 38.63602615660635 -0.5 L 25 -0.5 Z M 97.82743240660635 0.5 L 111.4634585632127 0.5 L 111.4634585632127 3.5 L 118.4634585632127 0 L 111.4634585632127 -3.5 L 111.4634585632127 -0.5 L 97.82743240660635 -0.5 Z"/><text text-anchor="middle" pointer-events="none" font-size="8px" fill="#000000" x="68.23172928160635" y="3" transform="rotate(180 68.23172928160635 0)" font-family="sans-serif">DESTINATION</text></g><g class="relationship" transform="translate(265.152767230529 232.0626454811319) rotate(211.36806885345214)"><path class="outline" fill="#A5ABB6" stroke="none" d="M 25 0.5 L 79.71415375656882 0.5 L 79.71415375656882 -0.5 L 25 -0.5 Z M 114.15946625656882 0.5 L 168.87362001313764 0.5 L 168.87362001313764 3.5 L 175.87362001313764 0 L 168.87362001313764 -3.5 L 168.87362001313764 -0.5 L 114.15946625656882 -0.5 Z"/><text text-anchor="middle" pointer-events="none" font-size="8px" fill="#000000" x="96.93681000656882" y="3" transform="rotate(180 96.93681000656882 0)" font-family="sans-serif">ORIGIN</text></g><g class="relationship" transform="translate(265.152767230529 232.0626454811319) rotate(458.8082184576423)"><path class="outline" fill="#A5ABB6" stroke="none" d="M 25 0.5 L 34.281797172866945 0.5 L 34.281797172866945 -0.5 L 25 -0.5 Z M 93.47320342286694 0.5 L 102.75500059573389 0.5 L 102.75500059573389 3.5 L 109.75500059573389 0 L 102.75500059573389 -3.5 L 102.75500059573389 -0.5 L 93.47320342286694 -0.5 Z"/><text text-anchor="middle" pointer-events="none" font-size="8px" fill="#000000" x="63.877500297866945" y="3" transform="rotate(180 63.877500297866945 0)" font-family="sans-serif">DESTINATION</text></g><g class="relationship" transform="translate(-36.91146345915811 21.503497751444705) rotate(399.0742049648231)"><path class="outline" fill="#A5ABB6" stroke="none" d="M 25 0.5 L 63.35888681204777 0.5 L 63.35888681204777 -0.5 L 25 -0.5 Z M 97.80419931204777 0.5 L 136.16308612409554 0.5 L 136.16308612409554 3.5 L 143.16308612409554 0 L 136.16308612409554 -3.5 L 136.16308612409554 -0.5 L 97.80419931204777 -0.5 Z"/><text text-anchor="middle" pointer-events="none" font-size="8px" fill="#000000" x="80.58154306204777" y="3" font-family="sans-serif">ORIGIN</text></g><g class="relationship" transform="translate(-36.91146345915811 21.503497751444705) rotate(219.32553269674736)"><path class="outline" fill="#A5ABB6" stroke="none" d="M 25 0.5 L 46.648875007630735 0.5 L 46.648875007630735 -0.5 L 25 -0.5 Z M 105.84028125763074 0.5 L 127.48915626526147 0.5 L 127.48915626526147 3.5 L 134.48915626526147 0 L 127.48915626526147 -3.5 L 127.48915626526147 -0.5 L 105.84028125763074 -0.5 Z"/><text text-anchor="middle" pointer-events="none" font-size="8px" fill="#000000" x="76.24457813263074" y="3" transform="rotate(180 76.24457813263074 0)" font-family="sans-serif">DESTINATION</text></g><g class="relationship" transform="translate(263.6183249374595 134.834967287036) rotate(182.47051759864286)"><path class="outline" fill="#A5ABB6" stroke="none" d="M 25 0.5 L 64.3462600722786 0.5 L 64.3462600722786 -0.5 L 25 -0.5 Z M 98.7915725722786 0.5 L 138.1378326445572 0.5 L 138.1378326445572 3.5 L 145.1378326445572 0 L 138.1378326445572 -3.5 L 138.1378326445572 -0.5 L 98.7915725722786 -0.5 Z"/><text text-anchor="middle" pointer-events="none" font-size="8px" fill="#000000" x="81.5689163222786" y="3" transform="rotate(180 81.5689163222786 0)" font-family="sans-serif">ORIGIN</text></g><g class="relationship" transform="translate(263.6183249374595 134.834967287036) rotate(344.3025141761767)"><path class="outline" fill="#A5ABB6" stroke="none" d="M 25 0.5 L 38.08078038426336 0.5 L 38.08078038426336 -0.5 L 25 -0.5 Z M 97.27218663426336 0.5 L 110.35296701852673 0.5 L 110.35296701852673 3.5 L 117.35296701852673 0 L 110.35296701852673 -3.5 L 110.35296701852673 -0.5 L 97.27218663426336 -0.5 Z"/><text text-anchor="middle" pointer-events="none" font-size="8px" fill="#000000" x="67.67648350926336" y="3" font-family="sans-serif">DESTINATION</text></g><g class="relationship" transform="translate(-38.02088935234345 131.7444311731006) rotate(358.15403038771103)"><path class="outline" fill="#A5ABB6" stroke="none" d="M 25 0.5 L 45.14128414816729 0.5 L 45.14128414816729 -0.5 L 25 -0.5 Z M 79.58659664816729 0.5 L 99.72788079633457 0.5 L 99.72788079633457 3.5 L 106.72788079633457 0 L 99.72788079633457 -3.5 L 99.72788079633457 -0.5 L 79.58659664816729 -0.5 Z"/><text text-anchor="middle" pointer-events="none" font-size="8px" fill="#000000" x="62.36394039816729" y="3" font-family="sans-serif">ORIGIN</text></g><g class="relationship" transform="translate(-38.02088935234345 131.7444311731006) rotate(537.7456489341405)"><path class="outline" fill="#A5ABB6" stroke="none" d="M 25 0.5 L 47.653452250080306 0.5 L 47.653452250080306 -0.5 L 25 -0.5 Z M 106.8448585000803 0.5 L 129.4983107501606 0.5 L 129.4983107501606 3.5 L 136.4983107501606 0 L 129.4983107501606 -3.5 L 129.4983107501606 -0.5 L 106.8448585000803 -0.5 Z"/><text text-anchor="middle" pointer-events="none" font-size="8px" fill="#000000" x="77.2491553750803" y="3" transform="rotate(180 77.2491553750803 0)" font-family="sans-serif">DESTINATION</text></g><g class="relationship" transform="translate(212.30126909797428 204.0274423896058) rotate(212.81823642006788)"><path class="outline" fill="#A5ABB6" stroke="none" d="M 25 0.5 L 49.87674078088965 0.5 L 49.87674078088965 -0.5 L 25 -0.5 Z M 84.32205328088965 0.5 L 109.1987940617793 0.5 L 109.1987940617793 3.5 L 116.1987940617793 0 L 109.1987940617793 -3.5 L 109.1987940617793 -0.5 L 84.32205328088965 -0.5 Z"/><text text-anchor="middle" pointer-events="none" font-size="8px" fill="#000000" x="67.09939703088965" y="3" transform="rotate(180 67.09939703088965 0)" font-family="sans-serif">ORIGIN</text></g><g class="relationship" transform="translate(212.30126909797428 204.0274423896058) rotate(438.69806558209825)"><path class="outline" fill="#A5ABB6" stroke="none" d="M 25 0.5 L 49.09868738933177 0.5 L 49.09868738933177 -0.5 L 25 -0.5 Z M 108.29009363933177 0.5 L 132.38878102866354 0.5 L 132.38878102866354 3.5 L 139.38878102866354 0 L 132.38878102866354 -3.5 L 132.38878102866354 -0.5 L 108.29009363933177 -0.5 Z"/><text text-anchor="middle" pointer-events="none" font-size="8px" fill="#000000" x="78.69439051433177" y="3" font-family="sans-serif">DESTINATION</text></g><g class="relationship" transform="translate(-72.07251668022282 82.35126058003858) rotate(375.24093009670514)"><path class="outline" fill="#A5ABB6" stroke="none" d="M 25 0.5 L 65.15326317318403 0.5 L 65.15326317318403 -0.5 L 25 -0.5 Z M 99.59857567318403 0.5 L 139.75183884636806 0.5 L 139.75183884636806 3.5 L 146.75183884636806 0 L 139.75183884636806 -3.5 L 139.75183884636806 -0.5 L 99.59857567318403 -0.5 Z"/><text text-anchor="middle" pointer-events="none" font-size="8px" fill="#000000" x="82.37591942318403" y="3" font-family="sans-serif">ORIGIN</text></g><g class="relationship" transform="translate(-72.07251668022282 82.35126058003858) rotate(516.3545416637635)"><path class="outline" fill="#A5ABB6" stroke="none" d="M 25 0.5 L 36.399637821716496 0.5 L 36.399637821716496 -0.5 L 25 -0.5 Z M 95.5910440717165 0.5 L 106.99068189343299 0.5 L 106.99068189343299 3.5 L 113.99068189343299 0 L 106.99068189343299 -3.5 L 106.99068189343299 -0.5 L 95.5910440717165 -0.5 Z"/><text text-anchor="middle" pointer-events="none" font-size="8px" fill="#000000" x="65.9953409467165" y="3" transform="rotate(180 65.9953409467165 0)" font-family="sans-serif">DESTINATION</text></g><g class="relationship" transform="translate(60.519472303735924 -63.5807201095224) rotate(440.16692965888353)"><path class="outline" fill="#A5ABB6" stroke="none" d="M 25 0.5 L 76.24273665028589 0.5 L 76.24273665028589 -0.5 L 25 -0.5 Z M 110.68804915028589 0.5 L 161.93078580057178 0.5 L 161.93078580057178 3.5 L 168.93078580057178 0 L 161.93078580057178 -3.5 L 161.93078580057178 -0.5 L 110.68804915028589 -0.5 Z"/><text text-anchor="middle" pointer-events="none" font-size="8px" fill="#000000" x="93.46539290028589" y="3" font-family="sans-serif">ORIGIN</text></g><g class="relationship" transform="translate(60.519472303735924 -63.5807201095224) rotate(258.7218828522856)"><path class="outline" fill="#A5ABB6" stroke="none" d="M 25 0.5 L 26.242727052639765 0.5 L 26.242727052639765 -0.5 L 25 -0.5 Z M 69.57866455263976 0.5 L 70.82139160527953 0.5 L 70.82139160527953 3.5 L 77.82139160527953 0 L 70.82139160527953 -3.5 L 70.82139160527953 -0.5 L 69.57866455263976 -0.5 Z"/><text text-anchor="middle" pointer-events="none" font-size="8px" fill="#000000" x="47.910695802639765" y="3" transform="rotate(180 47.910695802639765 0)" font-family="sans-serif">DESTIN…</text></g><g class="relationship" transform="translate(-67.1485164221409 188.1345770312488) rotate(339.3383471030811)"><path class="outline" fill="#A5ABB6" stroke="none" d="M 25 0.5 L 65.19725115859556 0.5 L 65.19725115859556 -0.5 L 25 -0.5 Z M 99.64256365859556 0.5 L 139.83981481719113 0.5 L 139.83981481719113 3.5 L 146.83981481719113 0 L 139.83981481719113 -3.5 L 139.83981481719113 -0.5 L 99.64256365859556 -0.5 Z"/><text text-anchor="middle" pointer-events="none" font-size="8px" fill="#000000" x="82.41990740859556" y="3" font-family="sans-serif">ORIGIN</text></g><g class="relationship" transform="translate(-67.1485164221409 188.1345770312488) rotate(200.7250231682628)"><path class="outline" fill="#A5ABB6" stroke="none" d="M 25 0.5 L 37.60202363155693 0.5 L 37.60202363155693 -0.5 L 25 -0.5 Z M 96.79342988155693 0.5 L 109.39545351311386 0.5 L 109.39545351311386 3.5 L 116.39545351311386 0 L 109.39545351311386 -3.5 L 109.39545351311386 -0.5 L 96.79342988155693 -0.5 Z"/><text text-anchor="middle" pointer-events="none" font-size="8px" fill="#000000" x="67.19772675655693" y="3" transform="rotate(180 67.19772675655693 0)" font-family="sans-serif">DESTINATION</text></g><g class="relationship" transform="translate(-97.64706592734515 136.55333865005133) rotate(357.2906126086766)"><path class="outline" fill="#A5ABB6" stroke="none" d="M 25 0.5 L 75.0272261171977 0.5 L 75.0272261171977 -0.5 L 25 -0.5 Z M 109.4725386171977 0.5 L 159.4997647343954 0.5 L 159.4997647343954 3.5 L 166.4997647343954 0 L 159.4997647343954 -3.5 L 159.4997647343954 -0.5 L 109.4725386171977 -0.5 Z"/><text text-anchor="middle" pointer-events="none" font-size="8px" fill="#000000" x="92.2498823671977" y="3" font-family="sans-serif">ORIGIN</text></g><g class="relationship" transform="translate(-97.64706592734515 136.55333865005133) rotate(539.1307562230256)"><path class="outline" fill="#A5ABB6" stroke="none" d="M 25 0.5 L 25.71145788729764 0.5 L 25.71145788729764 -0.5 L 25 -0.5 Z M 69.04739538729764 0.5 L 69.75885327459528 0.5 L 69.75885327459528 3.5 L 76.75885327459528 0 L 69.75885327459528 -3.5 L 69.75885327459528 -0.5 L 69.04739538729764 -0.5 Z"/><text text-anchor="middle" pointer-events="none" font-size="8px" fill="#000000" x="47.37942663729764" y="3" transform="rotate(180 47.37942663729764 0)" font-family="sans-serif">DESTIN…</text></g><g class="relationship" transform="translate(161.5147058453611 235.8735082354317) rotate(237.94015509006908)"><path class="outline" fill="#A5ABB6" stroke="none" d="M 25 0.5 L 43.214295939609954 0.5 L 43.214295939609954 -0.5 L 25 -0.5 Z M 77.65960843960995 0.5 L 95.87390437921991 0.5 L 95.87390437921991 3.5 L 102.87390437921991 0 L 95.87390437921991 -3.5 L 95.87390437921991 -0.5 L 77.65960843960995 -0.5 Z"/><text text-anchor="middle" pointer-events="none" font-size="8px" fill="#000000" x="60.436952189609954" y="3" transform="rotate(180 60.436952189609954 0)" font-family="sans-serif">ORIGIN</text></g><g class="relationship" transform="translate(161.5147058453611 235.8735082354317) rotate(417.31286601863997)"><path class="outline" fill="#A5ABB6" stroke="none" d="M 25 0.5 L 43.751947355486706 0.5 L 43.751947355486706 -0.5 L 25 -0.5 Z M 102.9433536054867 0.5 L 121.69530096097341 0.5 L 121.69530096097341 3.5 L 128.6953009609734 0 L 121.69530096097341 -3.5 L 121.69530096097341 -0.5 L 102.9433536054867 -0.5 Z"/><text text-anchor="middle" pointer-events="none" font-size="8px" fill="#000000" x="73.3476504804867" y="3" font-family="sans-serif">DESTINATION</text></g><g class="relationship" transform="translate(19.711523466736367 280.78343954183674) rotate(295.74772377635026)"><path class="outline" fill="#A5ABB6" stroke="none" d="M 25 0.5 L 64.36654005370029 0.5 L 64.36654005370029 -0.5 L 25 -0.5 Z M 98.81185255370029 0.5 L 138.17839260740058 0.5 L 138.17839260740058 3.5 L 145.17839260740058 0 L 138.17839260740058 -3.5 L 138.17839260740058 -0.5 L 98.81185255370029 -0.5 Z"/><text text-anchor="middle" pointer-events="none" font-size="8px" fill="#000000" x="81.58919630370029" y="3" font-family="sans-serif">ORIGIN</text></g><g class="relationship" transform="translate(19.711523466736367 280.78343954183674) rotate(498.12750762609545)"><path class="outline" fill="#A5ABB6" stroke="none" d="M 25 0.5 L 36.17052929417834 0.5 L 36.17052929417834 -0.5 L 25 -0.5 Z M 95.36193554417834 0.5 L 106.53246483835667 0.5 L 106.53246483835667 3.5 L 113.53246483835667 0 L 106.53246483835667 -3.5 L 106.53246483835667 -0.5 L 95.36193554417834 -0.5 Z"/><text text-anchor="middle" pointer-events="none" font-size="8px" fill="#000000" x="65.76623241917834" y="3" transform="rotate(180 65.76623241917834 0)" font-family="sans-serif">DESTINATION</text></g><g class="relationship" transform="translate(-27.493904371607268 243.87620464695303) rotate(316.14752338024624)"><path class="outline" fill="#A5ABB6" stroke="none" d="M 25 0.5 L 63.265810520134664 0.5 L 63.265810520134664 -0.5 L 25 -0.5 Z M 97.71112302013466 0.5 L 135.97693354026933 0.5 L 135.97693354026933 3.5 L 142.97693354026933 0 L 135.97693354026933 -3.5 L 135.97693354026933 -0.5 L 97.71112302013466 -0.5 Z"/><text text-anchor="middle" pointer-events="none" font-size="8px" fill="#000000" x="80.48846677013466" y="3" font-family="sans-serif">ORIGIN</text></g><g class="relationship" transform="translate(-27.493904371607268 243.87620464695303) rotate(473.386969313872)"><path class="outline" fill="#A5ABB6" stroke="none" d="M 25 0.5 L 37.38145873928403 0.5 L 37.38145873928403 -0.5 L 25 -0.5 Z M 96.57286498928403 0.5 L 108.95432372856806 0.5 L 108.95432372856806 3.5 L 115.95432372856806 0 L 108.95432372856806 -3.5 L 108.95432372856806 -0.5 L 96.57286498928403 -0.5 Z"/><text text-anchor="middle" pointer-events="none" font-size="8px" fill="#000000" x="66.97716186428403" y="3" transform="rotate(180 66.97716186428403 0)" font-family="sans-serif">DESTINATION</text></g><g class="relationship" transform="translate(69.96335707671939 -4.52437412872123) rotate(439.8335756650454)"><path class="outline" fill="#A5ABB6" stroke="none" d="M 25 0.5 L 46.343077647062316 0.5 L 46.343077647062316 -0.5 L 25 -0.5 Z M 80.78839014706232 0.5 L 102.13146779412463 0.5 L 102.13146779412463 3.5 L 109.13146779412463 0 L 102.13146779412463 -3.5 L 102.13146779412463 -0.5 L 80.78839014706232 -0.5 Z"/><text text-anchor="middle" pointer-events="none" font-size="8px" fill="#000000" x="63.565733897062316" y="3" font-family="sans-serif">ORIGIN</text></g><g class="relationship" transform="translate(69.96335707671939 -4.52437412872123) rotate(259.5282158183891)"><path class="outline" fill="#A5ABB6" stroke="none" d="M 25 0.5 L 48.2044882843836 0.5 L 48.2044882843836 -0.5 L 25 -0.5 Z M 107.3958945343836 0.5 L 130.6003828187672 0.5 L 130.6003828187672 3.5 L 137.6003828187672 0 L 130.6003828187672 -3.5 L 130.6003828187672 -0.5 L 107.3958945343836 -0.5 Z"/><text text-anchor="middle" pointer-events="none" font-size="8px" fill="#000000" x="77.8001914093836" y="3" transform="rotate(180 77.8001914093836 0)" font-family="sans-serif">DESTINATION</text></g></g><g class="layer nodes"><g class="node" transform="translate(93.63862956797459,127.501123882349)"><circle class="outline" cx="0" cy="0" r="25" fill="#ECB5C9" stroke="#da7298" stroke-width="2px"/><text text-anchor="middle" pointer-events="none" font-family="sans-serif" dy="1.5625" font-size="25" fill="#2A2C34"/><text text-anchor="middle" pointer-events="none" x="0" y="5" font-size="10px" fill="#2A2C34" font-family="sans-serif"> LAX</text></g><g class="node" transform="translate(351.04069502384704,-65.73772032679592)"><circle class="outline" cx="0" cy="0" r="25" fill="#ECB5C9" stroke="#da7298" stroke-width="2px"/><text text-anchor="middle" pointer-events="none" font-family="sans-serif" dy="1.5625" font-size="25" fill="#2A2C34"/><text text-anchor="middle" pointer-events="none" x="0" y="5" font-size="10px" fill="#2A2C34" font-family="sans-serif"> BOS</text></g><g class="node" transform="translate(244.51805937625926,365.22840315676405)"><circle class="outline" cx="0" cy="0" r="25" fill="#ECB5C9" stroke="#da7298" stroke-width="2px"/><text text-anchor="middle" pointer-events="none" font-family="sans-serif" dy="1.5625" font-size="25" fill="#2A2C34"/><text text-anchor="middle" pointer-events="none" x="0" y="5" font-size="10px" fill="#2A2C34" font-family="sans-serif"> ABQ</text></g><g class="node" transform="translate(400.6620415503696,96.32020445642607)"><circle class="outline" cx="0" cy="0" r="25" fill="#ECB5C9" stroke="#da7298" stroke-width="2px"/><text text-anchor="middle" pointer-events="none" font-family="sans-serif" dy="1.5625" font-size="25" fill="#2A2C34"/><text text-anchor="middle" pointer-events="none" x="0" y="5" font-size="10px" fill="#2A2C34" font-family="sans-serif"> TUS</text></g><g class="node" transform="translate(243.87095771256105,-163.76325304585043)"><circle class="outline" cx="0" cy="0" r="25" fill="#ECB5C9" stroke="#da7298" stroke-width="2px"/><text text-anchor="middle" pointer-events="none" font-family="sans-serif" dy="1.5625" font-size="25" fill="#2A2C34"/><text text-anchor="middle" pointer-events="none" x="0" y="5" font-size="10px" fill="#2A2C34" font-family="sans-serif"> IAH</text></g><g class="node" transform="translate(40.41052762255368,-164.4165714494868)"><circle class="outline" cx="0" cy="0" r="25" fill="#ECB5C9" stroke="#da7298" stroke-width="2px"/><text text-anchor="middle" pointer-events="none" font-family="sans-serif" dy="1.5625" font-size="25" fill="#2A2C34"/><text text-anchor="middle" pointer-events="none" x="0" y="5" font-size="10px" fill="#2A2C34" font-family="sans-serif"> FAT</text></g><g class="node" transform="translate(-160.2855570018057,-79.56887240348458)"><circle class="outline" cx="0" cy="0" r="25" fill="#ECB5C9" stroke="#da7298" stroke-width="2px"/><text text-anchor="middle" pointer-events="none" font-family="sans-serif" dy="1.5625" font-size="25" fill="#2A2C34"/><text text-anchor="middle" pointer-events="none" x="0" y="5" font-size="10px" fill="#2A2C34" font-family="sans-serif"> LAS</text></g><g class="node" transform="translate(-199.39420880020376,138.0970798753567)"><circle class="outline" cx="0" cy="0" r="25" fill="#ECB5C9" stroke="#da7298" stroke-width="2px"/><text text-anchor="middle" pointer-events="none" font-family="sans-serif" dy="1.5625" font-size="25" fill="#2A2C34"/><text text-anchor="middle" pointer-events="none" x="0" y="5" font-size="10px" fill="#2A2C34" font-family="sans-serif"> SMF</text></g><g class="node" transform="translate(-83.44419479677408,373.25041528847714)"><circle class="outline" cx="0" cy="0" r="25" fill="#ECB5C9" stroke="#da7298" stroke-width="2px"/><text text-anchor="middle" pointer-events="none" font-family="sans-serif" dy="1.5625" font-size="25" fill="#2A2C34"/><text text-anchor="middle" pointer-events="none" x="0" y="5" font-size="10px" fill="#2A2C34" font-family="sans-serif"> EWR</text></g><g class="node" transform="translate(222.30605903972224,27.405777869051924)"><circle class="outline" cx="0" cy="0" r="25" fill="#4C8EDA" stroke="#2870c2" stroke-width="2px"/><text text-anchor="middle" pointer-events="none" font-family="sans-serif" dy="1.5625" font-size="25" fill="#FFFFFF"/><text text-anchor="middle" pointer-events="none" x="0" y="5" font-size="10px" fill="#FFFFFF" font-family="sans-serif"> 11/29/20…</text></g><g class="node" transform="translate(112.67594726921243,327.4523268954175)"><circle class="outline" cx="0" cy="0" r="25" fill="#4C8EDA" stroke="#2870c2" stroke-width="2px"/><text text-anchor="middle" pointer-events="none" font-family="sans-serif" dy="1.5625" font-size="25" fill="#FFFFFF"/><text text-anchor="middle" pointer-events="none" x="0" y="5" font-size="10px" fill="#FFFFFF" font-family="sans-serif"> 11/4/2015</text></g><g class="node" transform="translate(258.6618934814322,75.13157759388308)"><circle class="outline" cx="0" cy="0" r="25" fill="#4C8EDA" stroke="#2870c2" stroke-width="2px"/><text text-anchor="middle" pointer-events="none" font-family="sans-serif" dy="1.5625" font-size="25" fill="#FFFFFF"/><text text-anchor="middle" pointer-events="none" x="0" y="5" font-size="10px" fill="#FFFFFF" font-family="sans-serif"> 11/1/2015</text></g><g class="node" transform="translate(214.4236580227084,263.91971158324765)"><circle class="outline" cx="0" cy="0" r="25" fill="#4C8EDA" stroke="#2870c2" stroke-width="2px"/><text text-anchor="middle" pointer-events="none" font-family="sans-serif" dy="1.5625" font-size="25" fill="#FFFFFF"/><text text-anchor="middle" pointer-events="none" x="0" y="5" font-size="10px" fill="#FFFFFF" font-family="sans-serif"> 11/3/2015</text></g><g class="node" transform="translate(163.57463949608118,295.77002390864845)"><circle class="outline" cx="0" cy="0" r="25" fill="#4C8EDA" stroke="#2870c2" stroke-width="2px"/><text text-anchor="middle" pointer-events="none" font-family="sans-serif" dy="1.5625" font-size="25" fill="#FFFFFF"/><text text-anchor="middle" pointer-events="none" x="0" y="5" font-size="10px" fill="#FFFFFF" font-family="sans-serif"> 11/1/2015</text></g><g class="node" transform="translate(179.89519726763612,-16.63687351888685)"><circle class="outline" cx="0" cy="0" r="25" fill="#4C8EDA" stroke="#2870c2" stroke-width="2px"/><text text-anchor="middle" pointer-events="none" font-family="sans-serif" dy="1.5625" font-size="25" fill="#FFFFFF"/><text text-anchor="middle" pointer-events="none" x="0" y="5" font-size="10px" fill="#FFFFFF" font-family="sans-serif"> 11/30/20…</text></g><g class="node" transform="translate(110.68140020389336,267.6530572600494)"><circle class="outline" cx="0" cy="0" r="25" fill="#4C8EDA" stroke="#2870c2" stroke-width="2px"/><text text-anchor="middle" pointer-events="none" font-family="sans-serif" dy="1.5625" font-size="25" fill="#FFFFFF"/><text text-anchor="middle" pointer-events="none" x="0" y="5" font-size="10px" fill="#FFFFFF" font-family="sans-serif"> 11/2/2015</text></g><g class="node" transform="translate(13.460422614730959,-26.419196994531326)"><circle class="outline" cx="0" cy="0" r="25" fill="#4C8EDA" stroke="#2870c2" stroke-width="2px"/><text text-anchor="middle" pointer-events="none" font-family="sans-serif" dy="1.5625" font-size="25" fill="#FFFFFF"/><text text-anchor="middle" pointer-events="none" x="0" y="5" font-size="10px" fill="#FFFFFF" font-family="sans-serif"> 11/4/2015</text></g><g class="node" transform="translate(116.82300279855535,-42.99623715413257)"><circle class="outline" cx="0" cy="0" r="25" fill="#4C8EDA" stroke="#2870c2" stroke-width="2px"/><text text-anchor="middle" pointer-events="none" font-family="sans-serif" dy="1.5625" font-size="25" fill="#FFFFFF"/><text text-anchor="middle" pointer-events="none" x="0" y="5" font-size="10px" fill="#FFFFFF" font-family="sans-serif"> 11/1/2015</text></g><g class="node" transform="translate(265.152767230529,232.0626454811319)"><circle class="outline" cx="0" cy="0" r="25" fill="#4C8EDA" stroke="#2870c2" stroke-width="2px"/><text text-anchor="middle" pointer-events="none" font-family="sans-serif" dy="1.5625" font-size="25" fill="#FFFFFF"/><text text-anchor="middle" pointer-events="none" x="0" y="5" font-size="10px" fill="#FFFFFF" font-family="sans-serif"> 11/3/2015</text></g><g class="node" transform="translate(-36.91146345915811,21.503497751444705)"><circle class="outline" cx="0" cy="0" r="25" fill="#4C8EDA" stroke="#2870c2" stroke-width="2px"/><text text-anchor="middle" pointer-events="none" font-family="sans-serif" dy="1.5625" font-size="25" fill="#FFFFFF"/><text text-anchor="middle" pointer-events="none" x="0" y="5" font-size="10px" fill="#FFFFFF" font-family="sans-serif"> 11/29/20…</text></g><g class="node" transform="translate(263.6183249374595,134.834967287036)"><circle class="outline" cx="0" cy="0" r="25" fill="#4C8EDA" stroke="#2870c2" stroke-width="2px"/><text text-anchor="middle" pointer-events="none" font-family="sans-serif" dy="1.5625" font-size="25" fill="#FFFFFF"/><text text-anchor="middle" pointer-events="none" x="0" y="5" font-size="10px" fill="#FFFFFF" font-family="sans-serif"> 11/2/2015</text></g><g class="node" transform="translate(-38.02088935234345,131.7444311731006)"><circle class="outline" cx="0" cy="0" r="25" fill="#4C8EDA" stroke="#2870c2" stroke-width="2px"/><text text-anchor="middle" pointer-events="none" font-family="sans-serif" dy="1.5625" font-size="25" fill="#FFFFFF"/><text text-anchor="middle" pointer-events="none" x="0" y="5" font-size="10px" fill="#FFFFFF" font-family="sans-serif"> 11/1/2015</text></g><g class="node" transform="translate(212.30126909797428,204.0274423896058)"><circle class="outline" cx="0" cy="0" r="25" fill="#4C8EDA" stroke="#2870c2" stroke-width="2px"/><text text-anchor="middle" pointer-events="none" font-family="sans-serif" dy="1.5625" font-size="25" fill="#FFFFFF"/><text text-anchor="middle" pointer-events="none" x="0" y="5" font-size="10px" fill="#FFFFFF" font-family="sans-serif"> 11/1/2015</text></g><g class="node" transform="translate(-72.07251668022282,82.35126058003858)"><circle class="outline" cx="0" cy="0" r="25" fill="#4C8EDA" stroke="#2870c2" stroke-width="2px"/><text text-anchor="middle" pointer-events="none" font-family="sans-serif" dy="1.5625" font-size="25" fill="#FFFFFF"/><text text-anchor="middle" pointer-events="none" x="0" y="5" font-size="10px" fill="#FFFFFF" font-family="sans-serif"> 11/2/2015</text></g><g class="node" transform="translate(60.519472303735924,-63.5807201095224)"><circle class="outline" cx="0" cy="0" r="25" fill="#4C8EDA" stroke="#2870c2" stroke-width="2px"/><text text-anchor="middle" pointer-events="none" font-family="sans-serif" dy="1.5625" font-size="25" fill="#FFFFFF"/><text text-anchor="middle" pointer-events="none" x="0" y="5" font-size="10px" fill="#FFFFFF" font-family="sans-serif"> 11/2/2015</text></g><g class="node" transform="translate(-67.1485164221409,188.1345770312488)"><circle class="outline" cx="0" cy="0" r="25" fill="#4C8EDA" stroke="#2870c2" stroke-width="2px"/><text text-anchor="middle" pointer-events="none" font-family="sans-serif" dy="1.5625" font-size="25" fill="#FFFFFF"/><text text-anchor="middle" pointer-events="none" x="0" y="5" font-size="10px" fill="#FFFFFF" font-family="sans-serif"> 11/3/2015</text></g><g class="node" transform="translate(-97.64706592734515,136.55333865005133)"><circle class="outline" cx="0" cy="0" r="25" fill="#4C8EDA" stroke="#2870c2" stroke-width="2px"/><text text-anchor="middle" pointer-events="none" font-family="sans-serif" dy="1.5625" font-size="25" fill="#FFFFFF"/><text text-anchor="middle" pointer-events="none" x="0" y="5" font-size="10px" fill="#FFFFFF" font-family="sans-serif"> 11/4/2015</text></g><g class="node" transform="translate(161.5147058453611,235.8735082354317)"><circle class="outline" cx="0" cy="0" r="25" fill="#4C8EDA" stroke="#2870c2" stroke-width="2px"/><text text-anchor="middle" pointer-events="none" font-family="sans-serif" dy="1.5625" font-size="25" fill="#FFFFFF"/><text text-anchor="middle" pointer-events="none" x="0" y="5" font-size="10px" fill="#FFFFFF" font-family="sans-serif"> 11/2/2015</text></g><g class="node" transform="translate(19.711523466736367,280.78343954183674)"><circle class="outline" cx="0" cy="0" r="25" fill="#4C8EDA" stroke="#2870c2" stroke-width="2px"/><text text-anchor="middle" pointer-events="none" font-family="sans-serif" dy="1.5625" font-size="25" fill="#FFFFFF"/><text text-anchor="middle" pointer-events="none" x="0" y="5" font-size="10px" fill="#FFFFFF" font-family="sans-serif"> 11/30/20…</text></g><g class="node" transform="translate(-27.493904371607268,243.87620464695303)"><circle class="outline" cx="0" cy="0" r="25" fill="#4C8EDA" stroke="#2870c2" stroke-width="2px"/><text text-anchor="middle" pointer-events="none" font-family="sans-serif" dy="1.5625" font-size="25" fill="#FFFFFF"/><text text-anchor="middle" pointer-events="none" x="0" y="5" font-size="10px" fill="#FFFFFF" font-family="sans-serif"> 11/29/20…</text></g><g class="node" transform="translate(69.96335707671939,-4.52437412872123)"><circle class="outline" cx="0" cy="0" r="25" fill="#4C8EDA" stroke="#2870c2" stroke-width="2px"/><text text-anchor="middle" pointer-events="none" font-family="sans-serif" dy="1.5625" font-size="25" fill="#FFFFFF"/><text text-anchor="middle" pointer-events="none" x="0" y="5" font-size="10px" fill="#FFFFFF" font-family="sans-serif"> 11/3/2015</text></g></g></svg>