<svg xmlns="http://www.w3.org/2000/svg" width="394.44952392578125" height="379.01348876953125" viewBox="-97.21360778808594 -89.55476379394531 394.44952392578125 379.01348876953125"><title>Neo4j Graph Visualization</title><desc>Created using Neo4j (http://www.neo4j.com/)</desc><g class="layer relationships"><g class="relationship" transform="translate(268.23592303226746 51.11273372618997) rotate(227.5244392563726)"><path class="outline" fill="#A5ABB6" stroke="none" d="M 21.40063509461097,12.933012701892217 L 21.90063509461097,12.06698729810778 A 57.91814841498177 57.91814841498177 0 0 0 38.23382379662978,18.433605586967694 L 38.015828473039534,19.409555400683942 A 58.91814841498177 58.91814841498177 0 0 1 21.40063509461097,12.933012701892217 Z M 60.07399797812448,20.101569964967375 L 59.91760662972156,19.113874796332475 A 57.91814841498177 57.91814841498177 0 0 0 76.61775368240866,13.783586808763049 L 75.28355817969242,11.096595487502082 L 83.10976601580363,11.118295855968652 L 78.39668101936365,17.366241903777674 L 77.06248551664741,14.679250582516707 A 58.91814841498177 58.91814841498177 0 0 1 60.07399797812448,20.101569964967375"/><text text-anchor="middle" pointer-events="none" font-size="8px" fill="#000000" x="49.02790136022001" y="23.297820937377317" transform="rotate(180 49.02790136022001 20.297820937377317)" font-family="sans-serif">road</text></g><g class="relationship" transform="translate(196.99342187904975 -26.701423515082297) rotate(198.81740231306077)"><path class="outline" fill="#A5ABB6" stroke="none" d="M 25 0.5 L 39.30917875046518 0.5 L 39.30917875046518 -0.5 L 25 -0.5 Z M 58.64511625046518 0.5 L 72.95429500093036 0.5 L 72.95429500093036 3.5 L 79.95429500093036 0 L 72.95429500093036 -3.5 L 72.95429500093036 -0.5 L 58.64511625046518 -0.5 Z"/><text text-anchor="middle" pointer-events="none" font-size="8px" fill="#000000" x="48.97714750046518" y="3" transform="rotate(180 48.97714750046518 0)" font-family="sans-serif">trek</text></g><g class="relationship" transform="translate(97.64879378500595 -60.55476763347682) rotate(528.5465626024711)"><path class="outline" fill="#A5ABB6" stroke="none" d="M 25 0.5 L 39.587850349580194 0.5 L 39.587850349580194 -0.5 L 25 -0.5 Z M 58.923787849580194 0.5 L 73.51163819916039 0.5 L 73.51163819916039 3.5 L 80.51163819916039 0 L 73.51163819916039 -3.5 L 73.51163819916039 -0.5 L 58.923787849580194 -0.5 Z"/><text text-anchor="middle" pointer-events="none" font-size="8px" fill="#000000" x="49.255819099580194" y="3" transform="rotate(180 49.255819099580194 0)" font-family="sans-serif">trek</text></g><g class="relationship" transform="translate(268.23592303226746 51.11273372618997) rotate(227.5244392563726)"><path class="outline" fill="#A5ABB6" stroke="none" d="M 25 0.5 L 39.5827114298225 0.5 L 39.5827114298225 -0.5 L 25 -0.5 Z M 58.9186489298225 0.5 L 73.501360359645 0.5 L 73.501360359645 3.5 L 80.501360359645 0 L 73.501360359645 -3.5 L 73.501360359645 -0.5 L 58.9186489298225 -0.5 Z"/><text text-anchor="middle" pointer-events="none" font-size="8px" fill="#000000" x="49.2506801798225" y="3" transform="rotate(180 49.2506801798225 0)" font-family="sans-serif">trek</text></g><g class="relationship" transform="translate(268.23592303226746 51.11273372618997) rotate(227.5244392563726)"><path class="outline" fill="#A5ABB6" stroke="none" d="M 21.40063509461097,-12.933012701892217 L 21.90063509461097,-12.06698729810778 A 57.91814841498177 57.91814841498177 0 0 1 22.57542932150467,-12.4505741146857 L 22.087080146770337,-13.323222430753688 A 58.91814841498177 58.91814841498177 0 0 0 21.40063509461097,-12.933012701892217 Z M 76.35293091334151,-15.025664651312432 L 75.92024213582458,-14.124121295832012 A 57.91814841498177 57.91814841498177 0 0 1 76.61775368240866,-13.783586808763049 L 75.28355817969242,-11.096595487502082 L 83.10976601580363,-11.118295855968652 L 78.39668101936365,-17.366241903777674 L 77.06248551664741,-14.679250582516707 A 58.91814841498177 58.91814841498177 0 0 0 76.35293091334151,-15.025664651312432"/><text text-anchor="middle" pointer-events="none" font-size="8px" fill="#000000" x="49.027901360220014" y="-17.297820937377317" transform="rotate(180 49.027901360220014 -20.297820937377317)" font-family="sans-serif">PublicTrans…</text></g><g class="relationship" transform="translate(-68.21360640390505 148.89246747822207) rotate(407.5869562633828)"><path class="outline" fill="#A5ABB6" stroke="none" d="M 21.40063509461097,12.933012701892217 L 21.90063509461097,12.06698729810778 A 57.92070750778051 57.92070750778051 0 0 0 39.532790373984746,18.708298270869598 L 39.33720922586091,19.68898579220275 A 58.92070750778051 58.92070750778051 0 0 1 21.40063509461097,12.933012701892217 Z M 58.74019894470093,20.297687894175212 L 58.6064732915397,19.30666950398934 A 57.92070750778051 57.92070750778051 0 0 0 76.6202433477127,13.783626900840334 L 75.28604411530081,11.096637431521273 L 83.11225198152582,11.118326936765762 L 78.39917565759522,17.36627952659908 L 77.06497642518333,14.679290057280019 A 58.92070750778051 58.92070750778051 0 0 1 58.74019894470093,20.297687894175212"/><text text-anchor="middle" pointer-events="none" font-size="8px" fill="#000000" x="49.02914118727821" y="23.298163803745787" font-family="sans-serif">trek</text></g><g class="relationship" transform="translate(2.945613482971313 226.78613704185355) rotate(378.7131657297326)"><path class="outline" fill="#A5ABB6" stroke="none" d="M 25 0.5 L 39.30926390005943 0.5 L 39.30926390005943 -0.5 L 25 -0.5 Z M 58.64520140005943 0.5 L 72.95446530011885 0.5 L 72.95446530011885 3.5 L 79.95446530011885 0 L 72.95446530011885 -3.5 L 72.95446530011885 -0.5 L 58.64520140005943 -0.5 Z"/><text text-anchor="middle" pointer-events="none" font-size="8px" fill="#000000" x="48.97723265005943" y="3" font-family="sans-serif">trek</text></g><g class="relationship" transform="translate(102.35182686362812 260.4587450155936) rotate(348.60376118001705)"><path class="outline" fill="#A5ABB6" stroke="none" d="M 25 0.5 L 39.58669120993313 0.5 L 39.58669120993313 -0.5 L 25 -0.5 Z M 58.92262870993313 0.5 L 73.50931991986626 0.5 L 73.50931991986626 3.5 L 80.50931991986626 0 L 73.50931991986626 -3.5 L 73.50931991986626 -0.5 L 58.92262870993313 -0.5 Z"/><text text-anchor="middle" pointer-events="none" font-size="8px" fill="#000000" x="49.25465995993313" y="3" font-family="sans-serif">trek</text></g><g class="relationship" transform="translate(-68.21360640390505 148.89246747822207) rotate(407.5869562633828)"><path class="outline" fill="#A5ABB6" stroke="none" d="M 25 0.5 L 25.503868571258984 0.5 L 25.503868571258984 -0.5 L 25 -0.5 Z M 72.99996232125898 0.5 L 73.50383089251797 0.5 L 73.50383089251797 3.5 L 80.50383089251797 0 L 73.50383089251797 -3.5 L 73.50383089251797 -0.5 L 72.99996232125898 -0.5 Z"/><text text-anchor="middle" pointer-events="none" font-size="8px" fill="#000000" x="49.251915446258984" y="3" font-family="sans-serif">PublicTra…</text></g><g class="relationship" transform="translate(-68.21360640390505 148.89246747822207) rotate(407.5869562633828)"><path class="outline" fill="#A5ABB6" stroke="none" d="M 21.40063509461097,-12.933012701892217 L 21.90063509461097,-12.06698729810778 A 57.92070750778051 57.92070750778051 0 0 1 38.23505121057451,-18.433999856672315 L 38.017064618538654,-19.40995162069172 A 58.92070750778051 58.92070750778051 0 0 0 21.40063509461097,-12.933012701892217 Z M 60.07523786280142,-20.10195097821437 L 59.91885398005386,-19.114254627498823 A 57.92070750778051 57.92070750778051 0 0 1 76.6202433477127,-13.783626900840334 L 75.28604411530081,-11.096637431521273 L 83.11225198152582,-11.118326936765762 L 78.39917565759522,-17.36627952659908 L 77.06497642518333,-14.679290057280019 A 58.92070750778051 58.92070750778051 0 0 0 60.07523786280142,-20.10195097821437"/><text text-anchor="middle" pointer-events="none" font-size="8px" fill="#000000" x="49.0291411872782" y="-17.298163803745787" font-family="sans-serif">road</text></g></g><g class="layer nodes"><g class="node" transform="translate(268.23592303226746,51.11273372618997)"><circle class="outline" cx="0" cy="0" r="25" fill="#F16667" stroke="#eb2728" stroke-width="2px"/><text text-anchor="middle" pointer-events="none" font-family="sans-serif" dy="1.5625" font-size="25" fill="#FFFFFF"/><text text-anchor="middle" pointer-events="none" x="0" y="5" font-size="10px" fill="#FFFFFF" font-family="sans-serif"> Darjeeling</text></g><g class="node" transform="translate(-5.761728013815995,-39.603162044264984)"><circle class="outline" cx="0" cy="0" r="25" fill="#D9C8AE" stroke="#c0a378" stroke-width="2px"/><text text-anchor="middle" pointer-events="none" font-family="sans-serif" dy="1.5625" font-size="25" fill="#2A2C34"/><text text-anchor="middle" pointer-events="none" x="0" y="5" font-size="10px" fill="#2A2C34" font-family="sans-serif"> Sandak…</text></g><g class="node" transform="translate(-68.21360640390505,148.89246747822207)"><circle class="outline" cx="0" cy="0" r="25" fill="#F16667" stroke="#eb2728" stroke-width="2px"/><text text-anchor="middle" pointer-events="none" font-family="sans-serif" dy="1.5625" font-size="25" fill="#FFFFFF"/><text text-anchor="middle" pointer-events="none" x="0" y="5" font-size="10px" fill="#FFFFFF" font-family="sans-serif"> Darjeeling</text></g><g class="node" transform="translate(205.78094061787215,239.6108430116907)"><circle class="outline" cx="0" cy="0" r="25" fill="#D9C8AE" stroke="#c0a378" stroke-width="2px"/><text text-anchor="middle" pointer-events="none" font-family="sans-serif" dy="1.5625" font-size="25" fill="#2A2C34"/><text text-anchor="middle" pointer-events="none" x="0" y="5" font-size="10px" fill="#2A2C34" font-family="sans-serif"> Sandak…</text></g><g class="node" transform="translate(196.99342187904975,-26.701423515082297)"><circle class="outline" cx="0" cy="0" r="25" fill="#F16667" stroke="#eb2728" stroke-width="2px"/><text text-anchor="middle" pointer-events="none" font-family="sans-serif" dy="1.5625" font-size="25" fill="#FFFFFF"/><text text-anchor="middle" pointer-events="none" x="0" y="5" font-size="10px" fill="#FFFFFF" font-family="sans-serif"> Rimbik</text></g><g class="node" transform="translate(97.64879378500595,-60.55476763347682)"><circle class="outline" cx="0" cy="0" r="25" fill="#8DCC93" stroke="#5db665" stroke-width="2px"/><text text-anchor="middle" pointer-events="none" font-family="sans-serif" dy="1.5625" font-size="25" fill="#2A2C34"/><text text-anchor="middle" pointer-events="none" x="0" y="5" font-size="10px" fill="#2A2C34" font-family="sans-serif"> BhikeBh…</text></g><g class="node" transform="translate(2.945613482971313,226.78613704185355)"><circle class="outline" cx="0" cy="0" r="25" fill="#F16667" stroke="#eb2728" stroke-width="2px"/><text text-anchor="middle" pointer-events="none" font-family="sans-serif" dy="1.5625" font-size="25" fill="#FFFFFF"/><text text-anchor="middle" pointer-events="none" x="0" y="5" font-size="10px" fill="#FFFFFF" font-family="sans-serif"> Rimbik</text></g><g class="node" transform="translate(102.35182686362812,260.4587450155936)"><circle class="outline" cx="0" cy="0" r="25" fill="#8DCC93" stroke="#5db665" stroke-width="2px"/><text text-anchor="middle" pointer-events="none" font-family="sans-serif" dy="1.5625" font-size="25" fill="#2A2C34"/><text text-anchor="middle" pointer-events="none" x="0" y="5" font-size="10px" fill="#2A2C34" font-family="sans-serif"> BhikeBh…</text></g></g></svg>