<svg xmlns="http://www.w3.org/2000/svg" width="394.5710754394531" height="379.0074462890625" viewBox="-97.160400390625 -89.56819152832031 394.5710754394531 379.0074462890625"><title>Neo4j Graph Visualization</title><desc>Created using Neo4j (http://www.neo4j.com/)</desc><g class="layer relationships"><g class="relationship" transform="translate(268.41068064545937 50.392685337764426) rotate(227.13017180462805)"><path class="outline" fill="#A5ABB6" stroke="none" d="M 21.40063509461097,12.933012701892217 L 21.90063509461097,12.06698729810778 A 57.82416160878758 57.82416160878758 0 0 0 38.188747232542035,18.419122590270078 L 37.97043073100984,19.395000607831058 A 58.82416160878758 58.82416160878758 0 0 1 21.40063509461097,12.933012701892217 Z M 60.02846233684431,20.08757409666805 L 59.87179633114534,19.09992245633208 A 57.82416160878758 57.82416160878758 0 0 0 76.52631896222613,13.782113159396934 L 75.19226055059598,11.095053771449052 L 83.01846726937622,11.117153430251234 L 78.30506351106634,17.36485900999411 L 76.97100509943618,14.677799622046228 A 58.82416160878758 58.82416160878758 0 0 1 60.02846233684431,20.08757409666805"/><text text-anchor="middle" pointer-events="none" font-size="8px" fill="#000000" x="48.98236797857131" y="23.285228637746982" transform="rotate(180 48.98236797857131 20.285228637746982)" font-family="sans-serif">road</text></g><g class="relationship" transform="translate(196.696138425602 -26.862897668997746) rotate(198.7392028146549)"><path class="outline" fill="#A5ABB6" stroke="none" d="M 25 0.5 L 39.28983810124487 0.5 L 39.28983810124487 -0.5 L 25 -0.5 Z M 58.62577560124487 0.5 L 72.91561370248974 0.5 L 72.91561370248974 3.5 L 79.91561370248974 0 L 72.91561370248974 -3.5 L 72.91561370248974 -0.5 L 58.62577560124487 -0.5 Z"/><text text-anchor="middle" pointer-events="none" font-size="8px" fill="#000000" x="48.95780685124487" y="3" transform="rotate(180 48.95780685124487 0)" font-family="sans-serif">trek</text></g><g class="relationship" transform="translate(97.3420293492193 -60.5681941104816) rotate(528.4457888802633)"><path class="outline" fill="#A5ABB6" stroke="none" d="M 25 0.5 L 39.57773718365892 0.5 L 39.57773718365892 -0.5 L 25 -0.5 Z M 58.91367468365892 0.5 L 73.49141186731784 0.5 L 73.49141186731784 3.5 L 80.49141186731784 0 L 73.49141186731784 -3.5 L 73.49141186731784 -0.5 L 58.91367468365892 -0.5 Z"/><text text-anchor="middle" pointer-events="none" font-size="8px" fill="#000000" x="49.24570593365892" y="3" transform="rotate(180 49.24570593365892 0)" font-family="sans-serif">trek</text></g><g class="relationship" transform="translate(268.41068064545937 50.392685337764426) rotate(227.13017180462805)"><path class="outline" fill="#A5ABB6" stroke="none" d="M 25 0.5 L 39.537345667804274 0.5 L 39.537345667804274 -0.5 L 25 -0.5 Z M 58.873283167804274 0.5 L 73.41062883560855 0.5 L 73.41062883560855 3.5 L 80.41062883560855 0 L 73.41062883560855 -3.5 L 73.41062883560855 -0.5 L 58.873283167804274 -0.5 Z"/><text text-anchor="middle" pointer-events="none" font-size="8px" fill="#000000" x="49.205314417804274" y="3" transform="rotate(180 49.205314417804274 0)" font-family="sans-serif">trek</text></g><g class="relationship" transform="translate(268.41068064545937 50.392685337764426) rotate(227.13017180462805)"><path class="outline" fill="#A5ABB6" stroke="none" d="M 21.40063509461097,-12.933012701892217 L 21.90063509461097,-12.06698729810778 A 57.82416160878758 57.82416160878758 0 0 1 22.534119902641564,-12.427425921147545 L 22.045075267845412,-13.299684681594869 A 58.82416160878758 58.82416160878758 0 0 0 21.40063509461097,-12.933012701892217 Z M 76.3048315760376,-15.003321225477109 L 75.87147026701344,-14.102100955043255 A 57.82416160878758 57.82416160878758 0 0 1 76.52631896222613,-13.782113159396934 L 75.19226055059598,-11.095053771449052 L 83.01846726937622,-11.117153430251234 L 78.30506351106634,-17.36485900999411 L 76.97100509943618,-14.677799622046228 A 58.82416160878758 58.82416160878758 0 0 0 76.3048315760376,-15.003321225477109"/><text text-anchor="middle" pointer-events="none" font-size="8px" fill="#000000" x="48.982367978571325" y="-17.285228637746982" transform="rotate(180 48.982367978571325 -20.285228637746982)" font-family="sans-serif">PublicTrans…</text></g><g class="relationship" transform="translate(-68.1604027253505 149.030631821239) rotate(407.53515190022875)"><path class="outline" fill="#A5ABB6" stroke="none" d="M 21.40063509461097,12.933012701892217 L 21.90063509461097,12.06698729810778 A 57.91824520677513 57.91824520677513 0 0 0 39.53160668060569,18.707929358273546 L 39.33601803704527,19.68861538474185 A 58.91824520677513 58.91824520677513 0 0 1 21.40063509461097,12.933012701892217 Z M 58.73900680982991,20.297330426674307 L 58.60527490583007,19.306312879981725 A 57.91824520677513 57.91824520677513 0 0 0 76.61784784820783,13.78358832518515 L 75.2836522044215,11.096597073970964 L 83.10986004167198,11.118297031552745 L 78.39677537325626,17.366243326804067 L 77.06257972946993,14.67925207558988 A 58.91824520677513 58.91824520677513 0 0 1 58.73900680982991,20.297330426674307"/><text text-anchor="middle" pointer-events="none" font-size="8px" fill="#000000" x="49.02794825379085" y="23.2978339055078" font-family="sans-serif">trek</text></g><g class="relationship" transform="translate(3.0676112854718305 226.858176908858) rotate(378.6608632526847)"><path class="outline" fill="#A5ABB6" stroke="none" d="M 25 0.5 L 39.308072900707444 0.5 L 39.308072900707444 -0.5 L 25 -0.5 Z M 58.644010400707444 0.5 L 72.95208330141489 0.5 L 72.95208330141489 3.5 L 79.95208330141489 0 L 72.95208330141489 -3.5 L 72.95208330141489 -0.5 L 58.644010400707444 -0.5 Z"/><text text-anchor="middle" pointer-events="none" font-size="8px" fill="#000000" x="48.976041650707444" y="3" font-family="sans-serif">trek</text></g><g class="relationship" transform="translate(102.50226452439918 260.4392657024246) rotate(348.5305259206118)"><path class="outline" fill="#A5ABB6" stroke="none" d="M 25 0.5 L 39.585259000878224 0.5 L 39.585259000878224 -0.5 L 25 -0.5 Z M 58.921196500878224 0.5 L 73.50645550175645 0.5 L 73.50645550175645 3.5 L 80.50645550175645 0 L 73.50645550175645 -3.5 L 73.50645550175645 -0.5 L 58.921196500878224 -0.5 Z"/><text text-anchor="middle" pointer-events="none" font-size="8px" fill="#000000" x="49.253227750878224" y="3" font-family="sans-serif">trek</text></g><g class="relationship" transform="translate(-68.1604027253505 149.030631821239) rotate(407.53515190022875)"><path class="outline" fill="#A5ABB6" stroke="none" d="M 25 0.5 L 25.502680025895096 0.5 L 25.502680025895096 -0.5 L 25 -0.5 Z M 72.9987737758951 0.5 L 73.50145380179019 0.5 L 73.50145380179019 3.5 L 80.50145380179019 0 L 73.50145380179019 -3.5 L 73.50145380179019 -0.5 L 72.9987737758951 -0.5 Z"/><text text-anchor="middle" pointer-events="none" font-size="8px" fill="#000000" x="49.250726900895096" y="3" font-family="sans-serif">PublicTra…</text></g><g class="relationship" transform="translate(-68.1604027253505 149.030631821239) rotate(407.53515190022875)"><path class="outline" fill="#A5ABB6" stroke="none" d="M 21.40063509461097,-12.933012701892217 L 21.90063509461097,-12.06698729810778 A 57.91824520677513 57.91824520677513 0 0 1 38.2338702206789,-18.43362049938515 L 38.015875227352645,-19.40957038687153 A 58.91824520677513 58.91824520677513 0 0 0 21.40063509461097,-12.933012701892217 Z M 60.07404487387839,-20.101584375982917 L 59.917653807859,-19.113889162635537 A 57.91824520677513 57.91824520677513 0 0 1 76.61784784820783,-13.78358832518515 L 75.2836522044215,-11.096597073970964 L 83.10986004167198,-11.118297031552745 L 78.39677537325626,-17.366243326804067 L 77.06257972946993,-14.67925207558988 A 58.91824520677513 58.91824520677513 0 0 0 60.07404487387839,-20.101584375982917"/><text text-anchor="middle" pointer-events="none" font-size="8px" fill="#000000" x="49.02794825379085" y="-17.2978339055078" font-family="sans-serif">road</text></g></g><g class="layer nodes"><g class="node" transform="translate(268.41068064545937,50.392685337764426)"><circle class="outline" cx="0" cy="0" r="25" fill="#F16667" stroke="#eb2728" stroke-width="2px"/><text text-anchor="middle" pointer-events="none" font-family="sans-serif" dy="1.5625" font-size="25" fill="#FFFFFF"/><text text-anchor="middle" pointer-events="none" x="0" y="5" font-size="10px" fill="#FFFFFF" font-family="sans-serif"> Darjeeling</text></g><g class="node" transform="translate(-6.011665680112572,-39.43879039092653)"><circle class="outline" cx="0" cy="0" r="25" fill="#D9C8AE" stroke="#c0a378" stroke-width="2px"/><text text-anchor="middle" pointer-events="none" font-family="sans-serif" dy="1.5625" font-size="25" fill="#2A2C34"/><text text-anchor="middle" pointer-events="none" x="0" y="5" font-size="10px" fill="#2A2C34" font-family="sans-serif"> Sandak…</text></g><g class="node" transform="translate(-68.1604027253505,149.030631821239)"><circle class="outline" cx="0" cy="0" r="25" fill="#F16667" stroke="#eb2728" stroke-width="2px"/><text text-anchor="middle" pointer-events="none" font-family="sans-serif" dy="1.5625" font-size="25" fill="#FFFFFF"/><text text-anchor="middle" pointer-events="none" x="0" y="5" font-size="10px" fill="#FFFFFF" font-family="sans-serif"> Darjeeling</text></g><g class="node" transform="translate(205.90183886406552,239.459747621212)"><circle class="outline" cx="0" cy="0" r="25" fill="#D9C8AE" stroke="#c0a378" stroke-width="2px"/><text text-anchor="middle" pointer-events="none" font-family="sans-serif" dy="1.5625" font-size="25" fill="#2A2C34"/><text text-anchor="middle" pointer-events="none" x="0" y="5" font-size="10px" fill="#2A2C34" font-family="sans-serif"> Sandak…</text></g><g class="node" transform="translate(196.696138425602,-26.862897668997746)"><circle class="outline" cx="0" cy="0" r="25" fill="#F16667" stroke="#eb2728" stroke-width="2px"/><text text-anchor="middle" pointer-events="none" font-family="sans-serif" dy="1.5625" font-size="25" fill="#FFFFFF"/><text text-anchor="middle" pointer-events="none" x="0" y="5" font-size="10px" fill="#FFFFFF" font-family="sans-serif"> Rimbik</text></g><g class="node" transform="translate(97.3420293492193,-60.5681941104816)"><circle class="outline" cx="0" cy="0" r="25" fill="#8DCC93" stroke="#5db665" stroke-width="2px"/><text text-anchor="middle" pointer-events="none" font-family="sans-serif" dy="1.5625" font-size="25" fill="#2A2C34"/><text text-anchor="middle" pointer-events="none" x="0" y="5" font-size="10px" fill="#2A2C34" font-family="sans-serif"> BhikeBh…</text></g><g class="node" transform="translate(3.0676112854718305,226.858176908858)"><circle class="outline" cx="0" cy="0" r="25" fill="#F16667" stroke="#eb2728" stroke-width="2px"/><text text-anchor="middle" pointer-events="none" font-family="sans-serif" dy="1.5625" font-size="25" fill="#FFFFFF"/><text text-anchor="middle" pointer-events="none" x="0" y="5" font-size="10px" fill="#FFFFFF" font-family="sans-serif"> Rimbik</text></g><g class="node" transform="translate(102.50226452439918,260.4392657024246)"><circle class="outline" cx="0" cy="0" r="25" fill="#8DCC93" stroke="#5db665" stroke-width="2px"/><text text-anchor="middle" pointer-events="none" font-family="sans-serif" dy="1.5625" font-size="25" fill="#2A2C34"/><text text-anchor="middle" pointer-events="none" x="0" y="5" font-size="10px" fill="#2A2C34" font-family="sans-serif"> BhikeBh…</text></g></g></svg>