<svg xmlns="http://www.w3.org/2000/svg" width="239.62728881835938" height="251.4661407470703" viewBox="-8.378433227539062 -9.862194061279297 239.62728881835938 251.4661407470703"><title>Neo4j Graph Visualization</title><desc>Created using Neo4j (http://www.neo4j.com/)</desc><g class="layer relationships"><g class="relationship" transform="translate(124.1497472787138 129.55484074852137) rotate(410.4077816340185)"><path class="outline" fill="#A5ABB6" stroke="none" d="M 25 0.5 L 27.604765519601784 0.5 L 27.604765519601784 -0.5 L 25 -0.5 Z M 73.16726551960178 0.5 L 75.77203103920357 0.5 L 75.77203103920357 3.5 L 82.77203103920357 0 L 75.77203103920357 -3.5 L 75.77203103920357 -0.5 L 73.16726551960178 -0.5 Z"/><text text-anchor="middle" pointer-events="none" font-size="8px" fill="#000000" x="50.386015519601784" y="3" font-family="sans-serif">ACTED_IN</text></g><g class="relationship" transform="translate(124.1497472787138 129.55484074852137) rotate(313.7507152026481)"><path class="outline" fill="#A5ABB6" stroke="none" d="M 25 0.5 L 30.187745049727205 0.5 L 30.187745049727205 -0.5 L 25 -0.5 Z M 75.7502450497272 0.5 L 80.93799009945441 0.5 L 80.93799009945441 3.5 L 87.93799009945441 0 L 80.93799009945441 -3.5 L 80.93799009945441 -0.5 L 75.7502450497272 -0.5 Z"/><text text-anchor="middle" pointer-events="none" font-size="8px" fill="#000000" x="52.968995049727205" y="3" font-family="sans-serif">ACTED_IN</text></g><g class="relationship" transform="translate(124.1497472787138 129.55484074852137) rotate(257.1834596131308)"><path class="outline" fill="#A5ABB6" stroke="none" d="M 25 0.5 L 30.33791360531793 0.5 L 30.33791360531793 -0.5 L 25 -0.5 Z M 75.90041360531794 0.5 L 81.23832721063586 0.5 L 81.23832721063586 3.5 L 88.23832721063586 0 L 81.23832721063586 -3.5 L 81.23832721063586 -0.5 L 75.90041360531794 -0.5 Z"/><text text-anchor="middle" pointer-events="none" font-size="8px" fill="#000000" x="53.11916360531793" y="3" transform="rotate(180 53.11916360531793 0)" font-family="sans-serif">ACTED_IN</text></g><g class="relationship" transform="translate(124.1497472787138 129.55484074852137) rotate(203.8857676190545)"><path class="outline" fill="#A5ABB6" stroke="none" d="M 25 0.5 L 30.331460724353818 0.5 L 30.331460724353818 -0.5 L 25 -0.5 Z M 75.89396072435382 0.5 L 81.22542144870764 0.5 L 81.22542144870764 3.5 L 88.22542144870764 0 L 81.22542144870764 -3.5 L 81.22542144870764 -0.5 L 75.89396072435382 -0.5 Z"/><text text-anchor="middle" pointer-events="none" font-size="8px" fill="#000000" x="53.11271072435382" y="3" transform="rotate(180 53.11271072435382 0)" font-family="sans-serif">ACTED_IN</text></g><g class="relationship" transform="translate(124.1497472787138 129.55484074852137) rotate(507.27407064987176)"><path class="outline" fill="#A5ABB6" stroke="none" d="M 25 0.5 L 30.167608036489028 0.5 L 30.167608036489028 -0.5 L 25 -0.5 Z M 75.73010803648903 0.5 L 80.89771607297806 0.5 L 80.89771607297806 3.5 L 87.89771607297806 0 L 80.89771607297806 -3.5 L 80.89771607297806 -0.5 L 75.73010803648903 -0.5 Z"/><text text-anchor="middle" pointer-events="none" font-size="8px" fill="#000000" x="52.94885803648903" y="3" transform="rotate(180 52.94885803648903 0)" font-family="sans-serif">ACTED_IN</text></g></g><g class="layer nodes"><g class="node" transform="translate(124.1497472787138,129.55484074852137)"><circle class="outline" cx="0" cy="0" r="25" fill="#57C7E3" stroke="#23b3d7" stroke-width="2px"/><text text-anchor="middle" pointer-events="none" font-family="sans-serif" dy="1.5625" font-size="25" fill="#2A2C34"/><text text-anchor="middle" pointer-events="none" font-family="sans-serif" dy="1.5625" font-size="25" fill="#2A2C34"/><text text-anchor="middle" pointer-events="none" x="0" y="0" font-size="10px" fill="#2A2C34" font-family="sans-serif"> Hugo</text><text text-anchor="middle" pointer-events="none" x="0" y="10" font-size="10px" fill="#2A2C34" font-family="sans-serif"> Weaving</text></g><g class="node" transform="translate(192.83494659497467,212.60394712059846)"><circle class="outline" cx="0" cy="0" r="25" fill="#F79767" stroke="#f36924" stroke-width="2px"/><text text-anchor="middle" pointer-events="none" font-family="sans-serif" dy="1.5625" font-size="25" fill="#FFFFFF"/><text text-anchor="middle" pointer-events="none" font-family="sans-serif" dy="1.5625" font-size="25" fill="#FFFFFF"/><text text-anchor="middle" pointer-events="none" x="0" y="0" font-size="10px" fill="#FFFFFF" font-family="sans-serif"> Cloud</text><text text-anchor="middle" pointer-events="none" x="0" y="10" font-size="10px" fill="#FFFFFF" font-family="sans-serif"> Atlas</text></g><g class="node" transform="translate(202.2488602832002,47.973481630050394)"><circle class="outline" cx="0" cy="0" r="25" fill="#F79767" stroke="#f36924" stroke-width="2px"/><text text-anchor="middle" pointer-events="none" font-family="sans-serif" dy="1.5625" font-size="25" fill="#FFFFFF"/><text text-anchor="middle" pointer-events="none" font-family="sans-serif" dy="1.5625" font-size="25" fill="#FFFFFF"/><text text-anchor="middle" pointer-events="none" x="0" y="0" font-size="10px" fill="#FFFFFF" font-family="sans-serif"> V for</text><text text-anchor="middle" pointer-events="none" x="0" y="10" font-size="10px" fill="#FFFFFF" font-family="sans-serif"> Vendetta</text></g><g class="node" transform="translate(99.0300893115256,19.13780613395425)"><circle class="outline" cx="0" cy="0" r="25" fill="#F79767" stroke="#f36924" stroke-width="2px"/><text text-anchor="middle" pointer-events="none" font-family="sans-serif" dy="1.5625" font-size="25" fill="#FFFFFF"/><text text-anchor="middle" pointer-events="none" font-family="sans-serif" dy="1.5625" font-size="25" fill="#FFFFFF"/><text text-anchor="middle" pointer-events="none" font-family="sans-serif" dy="1.5625" font-size="25" fill="#FFFFFF"/><text text-anchor="middle" pointer-events="none" x="0" y="-5" font-size="10px" fill="#FFFFFF" font-family="sans-serif"> The</text><text text-anchor="middle" pointer-events="none" x="0" y="5" font-size="10px" fill="#FFFFFF" font-family="sans-serif"> Matrix</text><text text-anchor="middle" pointer-events="none" x="0" y="15" font-size="10px" fill="#FFFFFF" font-family="sans-serif"> Revol…</text></g><g class="node" transform="translate(20.621566306434094,83.70822902193504)"><circle class="outline" cx="0" cy="0" r="25" fill="#F79767" stroke="#f36924" stroke-width="2px"/><text text-anchor="middle" pointer-events="none" font-family="sans-serif" dy="1.5625" font-size="25" fill="#FFFFFF"/><text text-anchor="middle" pointer-events="none" font-family="sans-serif" dy="1.5625" font-size="25" fill="#FFFFFF"/><text text-anchor="middle" pointer-events="none" font-family="sans-serif" dy="1.5625" font-size="25" fill="#FFFFFF"/><text text-anchor="middle" pointer-events="none" x="0" y="-5" font-size="10px" fill="#FFFFFF" font-family="sans-serif"> The</text><text text-anchor="middle" pointer-events="none" x="0" y="5" font-size="10px" fill="#FFFFFF" font-family="sans-serif"> Matrix</text><text text-anchor="middle" pointer-events="none" x="0" y="15" font-size="10px" fill="#FFFFFF" font-family="sans-serif"> Reloa…</text></g><g class="node" transform="translate(29.17271371206836,190.58972740668656)"><circle class="outline" cx="0" cy="0" r="25" fill="#F79767" stroke="#f36924" stroke-width="2px"/><text text-anchor="middle" pointer-events="none" font-family="sans-serif" dy="1.5625" font-size="25" fill="#FFFFFF"/><text text-anchor="middle" pointer-events="none" font-family="sans-serif" dy="1.5625" font-size="25" fill="#FFFFFF"/><text text-anchor="middle" pointer-events="none" x="0" y="0" font-size="10px" fill="#FFFFFF" font-family="sans-serif"> The</text><text text-anchor="middle" pointer-events="none" x="0" y="10" font-size="10px" fill="#FFFFFF" font-family="sans-serif"> Matrix</text></g></g></svg>