<svg xmlns="http://www.w3.org/2000/svg" width="507.5499572753906" height="518.03271484375" viewBox="-182.25564575195312 -159.48196411132812 507.5499572753906 518.03271484375"><title>Neo4j Graph Visualization</title><desc>Created using Neo4j (http://www.neo4j.com/)</desc><g class="layer relationships"><g class="relationship" transform="translate(208.78422334610025 292.2079192506944) rotate(255.86128990392604)"><path class="outline" fill="#A5ABB6" stroke="none" d="M 24.018736134675446,6.953439040707552 L 24.277555179777966,5.987513214418485 A 135.21011550501495 135.21011550501495 0 0 0 34.80763588068833,8.362934924418653 L 34.626696221026606,9.34642912346689 A 136.21011550501495 136.21011550501495 0 0 1 24.018736134675446,6.953439040707552 Z M 80.13420779815063,9.987635475080708 L 79.98104957228894,8.999433796347631 A 135.21011550501495 135.21011550501495 0 0 0 90.57387666970952,6.921636416385571 L 89.87937163826693,4.003132902373478 L 97.49946904097817,5.787541928688217 L 91.49988337829963,10.81297443506836 L 90.80537834685704,7.894470921056268 A 136.21011550501495 136.21011550501495 0 0 1 80.13420779815063,9.987635475080708"/><text text-anchor="middle" pointer-events="none" font-size="8px" fill="#000000" x="57.36052597841449" y="14.081216815787513" transform="rotate(180 57.36052597841449 11.081216815787513)" font-family="sans-serif">WATCHED</text></g><g class="relationship" transform="translate(208.78422334610025 292.2079192506944) rotate(255.86128990392604)"><path class="outline" fill="#A5ABB6" stroke="none" d="M 24.018736134675446,-6.953439040707552 L 24.277555179777966,-5.987513214418485 A 135.21011550501495 135.21011550501495 0 0 1 34.8057220732845,-8.362582814906034 L 34.62476825930159,-9.346074409788798 A 136.21011550501495 136.21011550501495 0 0 0 24.018736134675446,-6.953439040707552 Z M 80.13614498843856,-9.987335221862793 L 79.98297254050328,-8.999135747468301 A 135.21011550501495 135.21011550501495 0 0 1 90.57387666970952,-6.921636416385571 L 89.87937163826693,-4.003132902373478 L 97.49946904097817,-5.787541928688217 L 91.49988337829963,-10.81297443506836 L 90.80537834685704,-7.894470921056268 A 136.21011550501495 136.21011550501495 0 0 0 80.13614498843856,-9.987335221862793"/><text text-anchor="middle" pointer-events="none" font-size="8px" fill="#000000" x="57.36052597841449" y="-8.081216815787513" transform="rotate(180 57.36052597841449 -11.081216815787513)" font-family="sans-serif">ACTED_IN</text></g><g class="relationship" transform="translate(56.52229213282354 110.92400405568117) rotate(387.2720700788317)"><path class="outline" fill="#A5ABB6" stroke="none" d="M 25 0.5 L 42.6314648454248 0.5 L 42.6314648454248 -0.5 L 25 -0.5 Z M 88.1939648454248 0.5 L 105.8254296908496 0.5 L 105.8254296908496 3.5 L 112.8254296908496 0 L 105.8254296908496 -3.5 L 105.8254296908496 -0.5 L 88.1939648454248 -0.5 Z"/><text text-anchor="middle" pointer-events="none" font-size="8px" fill="#000000" x="65.4127148454248" y="3" font-family="sans-serif">ACTED_IN</text></g><g class="relationship" transform="translate(56.52229213282354 110.92400405568117) rotate(296.5818230892675)"><path class="outline" fill="#A5ABB6" stroke="none" d="M 25 0.5 L 39.98414051482327 0.5 L 39.98414051482327 -0.5 L 25 -0.5 Z M 85.54664051482327 0.5 L 100.53078102964653 0.5 L 100.53078102964653 3.5 L 107.53078102964653 0 L 100.53078102964653 -3.5 L 100.53078102964653 -0.5 L 85.54664051482327 -0.5 Z"/><text text-anchor="middle" pointer-events="none" font-size="8px" fill="#000000" x="62.76539051482327" y="3" font-family="sans-serif">ACTED_IN</text></g><g class="relationship" transform="translate(56.52229213282354 110.92400405568117) rotate(198.72480018463523)"><path class="outline" fill="#A5ABB6" stroke="none" d="M 25 0.5 L 33.28164399620387 0.5 L 33.28164399620387 -0.5 L 25 -0.5 Z M 78.84414399620387 0.5 L 87.12578799240774 0.5 L 87.12578799240774 3.5 L 94.12578799240774 0 L 87.12578799240774 -3.5 L 87.12578799240774 -0.5 L 78.84414399620387 -0.5 Z"/><text text-anchor="middle" pointer-events="none" font-size="8px" fill="#000000" x="56.06289399620387" y="3" transform="rotate(180 56.06289399620387 0)" font-family="sans-serif">ACTED_IN</text></g><g class="relationship" transform="translate(56.52229213282354 110.92400405568117) rotate(529.0276500761013)"><path class="outline" fill="#A5ABB6" stroke="none" d="M 25 0.5 L 30.838965054635757 0.5 L 30.838965054635757 -0.5 L 25 -0.5 Z M 76.40146505463576 0.5 L 82.24043010927151 0.5 L 82.24043010927151 3.5 L 89.24043010927151 0 L 82.24043010927151 -3.5 L 82.24043010927151 -0.5 L 76.40146505463576 -0.5 Z"/><text text-anchor="middle" pointer-events="none" font-size="8px" fill="#000000" x="53.62021505463576" y="3" transform="rotate(180 53.62021505463576 0)" font-family="sans-serif">ACTED_IN</text></g><g class="relationship" transform="translate(56.52229213282354 110.92400405568117) rotate(498.7229008815963)"><path class="outline" fill="#A5ABB6" stroke="none" d="M 25 0.5 L 48.856852406798794 0.5 L 48.856852406798794 -0.5 L 25 -0.5 Z M 94.4193524067988 0.5 L 118.27620481359759 0.5 L 118.27620481359759 3.5 L 125.27620481359759 0 L 118.27620481359759 -3.5 L 118.27620481359759 -0.5 L 94.4193524067988 -0.5 Z"/><text text-anchor="middle" pointer-events="none" font-size="8px" fill="#000000" x="71.6381024067988" y="3" transform="rotate(180 71.6381024067988 0)" font-family="sans-serif">ACTED_IN</text></g><g class="relationship" transform="translate(289.3095488773956 229.9645630915715) rotate(206.87406218098897)"><path class="outline" fill="#A5ABB6" stroke="none" d="M 25 0.5 L 35.53608511655612 0.5 L 35.53608511655612 -0.5 L 25 -0.5 Z M 81.09858511655612 0.5 L 91.63467023311225 0.5 L 91.63467023311225 3.5 L 98.63467023311225 0 L 91.63467023311225 -3.5 L 91.63467023311225 -0.5 L 81.09858511655612 -0.5 Z"/><text text-anchor="middle" pointer-events="none" font-size="8px" fill="#000000" x="58.31733511655612" y="3" transform="rotate(180 58.31733511655612 0)" font-family="sans-serif">ACTED_IN</text></g><g class="relationship" transform="translate(296.29430969863716 136.34988515149624) rotate(522.1656292128996)"><path class="outline" fill="#A5ABB6" stroke="none" d="M 25 0.5 L 35.31215196698885 0.5 L 35.31215196698885 -0.5 L 25 -0.5 Z M 80.87465196698885 0.5 L 91.1868039339777 0.5 L 91.1868039339777 3.5 L 98.1868039339777 0 L 91.1868039339777 -3.5 L 91.1868039339777 -0.5 L 80.87465196698885 -0.5 Z"/><text text-anchor="middle" pointer-events="none" font-size="8px" fill="#000000" x="58.09340196698885" y="3" transform="rotate(180 58.09340196698885 0)" font-family="sans-serif">ACTED_IN</text></g><g class="relationship" transform="translate(237.20711910537298 -13.55260269568298) rotate(537.1913695506303)"><path class="outline" fill="#A5ABB6" stroke="none" d="M 25 0.5 L 34.48202231793235 0.5 L 34.48202231793235 -0.5 L 25 -0.5 Z M 80.04452231793235 0.5 L 89.5265446358647 0.5 L 89.5265446358647 3.5 L 96.5265446358647 0 L 89.5265446358647 -3.5 L 89.5265446358647 -0.5 L 80.04452231793235 -0.5 Z"/><text text-anchor="middle" pointer-events="none" font-size="8px" fill="#000000" x="57.26327231793235" y="3" transform="rotate(180 57.26327231793235 0)" font-family="sans-serif">ACTED_IN</text></g><g class="relationship" transform="translate(205.51205593959216 -93.91247814833265) rotate(496.0972080443282)"><path class="outline" fill="#A5ABB6" stroke="none" d="M 25 0.5 L 35.95562974552065 0.5 L 35.95562974552065 -0.5 L 25 -0.5 Z M 81.51812974552065 0.5 L 92.4737594910413 0.5 L 92.4737594910413 3.5 L 99.4737594910413 0 L 92.4737594910413 -3.5 L 92.4737594910413 -0.5 L 81.51812974552065 -0.5 Z"/><text text-anchor="middle" pointer-events="none" font-size="8px" fill="#000000" x="58.73687974552065" y="3" transform="rotate(180 58.73687974552065 0)" font-family="sans-serif">ACTED_IN</text></g><g class="relationship" transform="translate(37.918005142619 -101.09582135722617) rotate(410.196775176205)"><path class="outline" fill="#A5ABB6" stroke="none" d="M 25 0.5 L 34.57026376579691 0.5 L 34.57026376579691 -0.5 L 25 -0.5 Z M 80.13276376579691 0.5 L 89.70302753159382 0.5 L 89.70302753159382 3.5 L 96.70302753159382 0 L 89.70302753159382 -3.5 L 89.70302753159382 -0.5 L 80.13276376579691 -0.5 Z"/><text text-anchor="middle" pointer-events="none" font-size="8px" fill="#000000" x="57.35151376579691" y="3" font-family="sans-serif">ACTED_IN</text></g><g class="relationship" transform="translate(124.09282611554816 -130.48195684120915) rotate(453.8484198616947)"><path class="outline" fill="#A5ABB6" stroke="none" d="M 25 0.5 L 35.299699317438964 0.5 L 35.299699317438964 -0.5 L 25 -0.5 Z M 80.86219931743896 0.5 L 91.16189863487793 0.5 L 91.16189863487793 3.5 L 98.16189863487793 0 L 91.16189863487793 -3.5 L 91.16189863487793 -0.5 L 80.86219931743896 -0.5 Z"/><text text-anchor="middle" pointer-events="none" font-size="8px" fill="#000000" x="58.080949317438964" y="3" transform="rotate(180 58.080949317438964 0)" font-family="sans-serif">ACTED_IN</text></g><g class="relationship" transform="translate(29.109366685239642 178.56532862531057) rotate(231.10965653873387)"><path class="outline" fill="#A5ABB6" stroke="none" d="M 25 0.5 L 41.73672185444602 0.5 L 41.73672185444602 -0.5 L 25 -0.5 Z M 87.29922185444602 0.5 L 104.03594370889203 0.5 L 104.03594370889203 3.5 L 111.03594370889203 0 L 104.03594370889203 -3.5 L 104.03594370889203 -0.5 L 87.29922185444602 -0.5 Z"/><text text-anchor="middle" pointer-events="none" font-size="8px" fill="#000000" x="64.51797185444602" y="3" transform="rotate(180 64.51797185444602 0)" font-family="sans-serif">ACTED_IN</text></g><g class="relationship" transform="translate(29.109366685239642 178.56532862531057) rotate(208.44136103909358)"><path class="outline" fill="#A5ABB6" stroke="none" d="M 25 0.5 L 27.01729850790906 0.5 L 27.01729850790906 -0.5 L 25 -0.5 Z M 62.35323600790906 0.5 L 64.37053451581812 0.5 L 64.37053451581812 3.5 L 71.37053451581812 0 L 64.37053451581812 -3.5 L 64.37053451581812 -0.5 L 62.35323600790906 -0.5 Z"/><text text-anchor="middle" pointer-events="none" font-size="8px" fill="#000000" x="44.68526725790906" y="3" transform="rotate(180 44.68526725790906 0)" font-family="sans-serif">ACTE…</text></g><g class="relationship" transform="translate(29.109366685239642 178.56532862531057) rotate(519.7826270538881)"><path class="outline" fill="#A5ABB6" stroke="none" d="M 25 0.5 L 27.069532888623726 0.5 L 27.069532888623726 -0.5 L 25 -0.5 Z M 57.069532888623726 0.5 L 59.13906577724745 0.5 L 59.13906577724745 3.5 L 66.13906577724745 0 L 59.13906577724745 -3.5 L 59.13906577724745 -0.5 L 57.069532888623726 -0.5 Z"/><text text-anchor="middle" pointer-events="none" font-size="8px" fill="#000000" x="42.069532888623726" y="3" transform="rotate(180 42.069532888623726 0)" font-family="sans-serif">ACT…</text></g><g class="relationship" transform="translate(-153.2556513969006 109.94315047692554) rotate(338.9779424421537)"><path class="outline" fill="#A5ABB6" stroke="none" d="M 25 0.5 L 25.654100143646417 0.5 L 25.654100143646417 -0.5 L 25 -0.5 Z M 71.21660014364642 0.5 L 71.87070028729283 0.5 L 71.87070028729283 3.5 L 78.87070028729283 0 L 71.87070028729283 -3.5 L 71.87070028729283 -0.5 L 71.21660014364642 -0.5 Z"/><text text-anchor="middle" pointer-events="none" font-size="8px" fill="#000000" x="48.43535014364642" y="3" font-family="sans-serif">ACTED_IN</text></g><g class="relationship" transform="translate(-153.2556513969006 109.94315047692554) rotate(373.1036579802162)"><path class="outline" fill="#A5ABB6" stroke="none" d="M 25 0.5 L 26.061318868342397 0.5 L 26.061318868342397 -0.5 L 25 -0.5 Z M 67.1746001183424 0.5 L 68.2359189866848 0.5 L 68.2359189866848 3.5 L 75.2359189866848 0 L 68.2359189866848 -3.5 L 68.2359189866848 -0.5 L 67.1746001183424 -0.5 Z"/><text text-anchor="middle" pointer-events="none" font-size="8px" fill="#000000" x="46.6179594933424" y="3" font-family="sans-serif">ACTED…</text></g><g class="relationship" transform="translate(-153.2556513969006 109.94315047692554) rotate(405.95321920476556)"><path class="outline" fill="#A5ABB6" stroke="none" d="M 25 0.5 L 43.36407085107692 0.5 L 43.36407085107692 -0.5 L 25 -0.5 Z M 88.92657085107692 0.5 L 107.29064170215383 0.5 L 107.29064170215383 3.5 L 114.29064170215383 0 L 107.29064170215383 -3.5 L 107.29064170215383 -0.5 L 88.92657085107692 -0.5 Z"/><text text-anchor="middle" pointer-events="none" font-size="8px" fill="#000000" x="66.14532085107692" y="3" font-family="sans-serif">ACTED_IN</text></g><g class="relationship" transform="translate(-151.30119410764783 171.41312948977915) rotate(313.8974884395133)"><path class="outline" fill="#A5ABB6" stroke="none" d="M 25 0.5 L 42.22677937128711 0.5 L 42.22677937128711 -0.5 L 25 -0.5 Z M 87.78927937128711 0.5 L 105.01605874257422 0.5 L 105.01605874257422 3.5 L 112.01605874257422 0 L 105.01605874257422 -3.5 L 105.01605874257422 -0.5 L 87.78927937128711 -0.5 Z"/><text text-anchor="middle" pointer-events="none" font-size="8px" fill="#000000" x="65.00802937128711" y="3" font-family="sans-serif">ACTED_IN</text></g><g class="relationship" transform="translate(-151.30119410764783 171.41312948977915) rotate(337.9529789163919)"><path class="outline" fill="#A5ABB6" stroke="none" d="M 25 0.5 L 25.328380933294525 0.5 L 25.328380933294525 -0.5 L 25 -0.5 Z M 70.89088093329453 0.5 L 71.21926186658905 0.5 L 71.21926186658905 3.5 L 78.21926186658905 0 L 71.21926186658905 -3.5 L 71.21926186658905 -0.5 L 70.89088093329453 -0.5 Z"/><text text-anchor="middle" pointer-events="none" font-size="8px" fill="#000000" x="48.109630933294525" y="3" font-family="sans-serif">ACTED_IN</text></g><g class="relationship" transform="translate(-151.30119410764783 171.41312948977915) rotate(382.16154570465073)"><path class="outline" fill="#A5ABB6" stroke="none" d="M 25 0.5 L 27.171236602347207 0.5 L 27.171236602347207 -0.5 L 25 -0.5 Z M 68.28451785234721 0.5 L 70.45575445469441 0.5 L 70.45575445469441 3.5 L 77.45575445469441 0 L 70.45575445469441 -3.5 L 70.45575445469441 -0.5 L 68.28451785234721 -0.5 Z"/><text text-anchor="middle" pointer-events="none" font-size="8px" fill="#000000" x="47.72787722734721" y="3" font-family="sans-serif">ACTED…</text></g><g class="relationship" transform="translate(-41.557597237893276 329.550741430347) rotate(262.9124256591966)"><path class="outline" fill="#A5ABB6" stroke="none" d="M 25 0.5 L 33.92345298684515 0.5 L 33.92345298684515 -0.5 L 25 -0.5 Z M 79.48595298684515 0.5 L 88.4094059736903 0.5 L 88.4094059736903 3.5 L 95.4094059736903 0 L 88.4094059736903 -3.5 L 88.4094059736903 -0.5 L 79.48595298684515 -0.5 Z"/><text text-anchor="middle" pointer-events="none" font-size="8px" fill="#000000" x="56.70470298684515" y="3" transform="rotate(180 56.70470298684515 0)" font-family="sans-serif">ACTED_IN</text></g></g><g class="layer nodes"><g class="node" transform="translate(208.78422334610025,292.2079192506944)"><circle class="outline" cx="0" cy="0" r="25" fill="#57C7E3" stroke="#23b3d7" stroke-width="2px"/><text text-anchor="middle" pointer-events="none" font-family="sans-serif" dy="1.5625" font-size="25" fill="#2A2C34"/><text text-anchor="middle" pointer-events="none" font-family="sans-serif" dy="1.5625" font-size="25" fill="#2A2C34"/><text text-anchor="middle" pointer-events="none" x="0" y="0" font-size="10px" fill="#2A2C34" font-family="sans-serif"> Tom</text><text text-anchor="middle" pointer-events="none" x="0" y="10" font-size="10px" fill="#2A2C34" font-family="sans-serif"> Hanks</text></g><g class="node" transform="translate(179.0271441634648,174.07786615783618)"><circle class="outline" cx="0" cy="0" r="25" fill="#F79767" stroke="#f36924" stroke-width="2px"/><text text-anchor="middle" pointer-events="none" font-family="sans-serif" dy="1.5625" font-size="25" fill="#FFFFFF"/><text text-anchor="middle" pointer-events="none" font-family="sans-serif" dy="1.5625" font-size="25" fill="#FFFFFF"/><text text-anchor="middle" pointer-events="none" x="0" y="0" font-size="10px" fill="#FFFFFF" font-family="sans-serif"> Cloud</text><text text-anchor="middle" pointer-events="none" x="0" y="10" font-size="10px" fill="#FFFFFF" font-family="sans-serif"> Atlas</text></g><g class="node" transform="translate(56.52229213282354,110.92400405568117)"><circle class="outline" cx="0" cy="0" r="25" fill="#57C7E3" stroke="#23b3d7" stroke-width="2px"/><text text-anchor="middle" pointer-events="none" font-family="sans-serif" dy="1.5625" font-size="25" fill="#2A2C34"/><text text-anchor="middle" pointer-events="none" font-family="sans-serif" dy="1.5625" font-size="25" fill="#2A2C34"/><text text-anchor="middle" pointer-events="none" x="0" y="0" font-size="10px" fill="#2A2C34" font-family="sans-serif"> Hugo</text><text text-anchor="middle" pointer-events="none" x="0" y="10" font-size="10px" fill="#2A2C34" font-family="sans-serif"> Weaving</text></g><g class="node" transform="translate(289.3095488773956,229.9645630915715)"><circle class="outline" cx="0" cy="0" r="25" fill="#57C7E3" stroke="#23b3d7" stroke-width="2px"/><text text-anchor="middle" pointer-events="none" font-family="sans-serif" dy="1.5625" font-size="25" fill="#2A2C34"/><text text-anchor="middle" pointer-events="none" font-family="sans-serif" dy="1.5625" font-size="25" fill="#2A2C34"/><text text-anchor="middle" pointer-events="none" x="0" y="0" font-size="10px" fill="#2A2C34" font-family="sans-serif"> Jim</text><text text-anchor="middle" pointer-events="none" x="0" y="10" font-size="10px" fill="#2A2C34" font-family="sans-serif"> Broadb…</text></g><g class="node" transform="translate(296.29430969863716,136.34988515149624)"><circle class="outline" cx="0" cy="0" r="25" fill="#57C7E3" stroke="#23b3d7" stroke-width="2px"/><text text-anchor="middle" pointer-events="none" font-family="sans-serif" dy="1.5625" font-size="25" fill="#2A2C34"/><text text-anchor="middle" pointer-events="none" font-family="sans-serif" dy="1.5625" font-size="25" fill="#2A2C34"/><text text-anchor="middle" pointer-events="none" x="0" y="0" font-size="10px" fill="#2A2C34" font-family="sans-serif"> Halle</text><text text-anchor="middle" pointer-events="none" x="0" y="10" font-size="10px" fill="#2A2C34" font-family="sans-serif"> Berry</text></g><g class="node" transform="translate(237.20711910537298,-13.55260269568298)"><circle class="outline" cx="0" cy="0" r="25" fill="#57C7E3" stroke="#23b3d7" stroke-width="2px"/><text text-anchor="middle" pointer-events="none" font-family="sans-serif" dy="1.5625" font-size="25" fill="#2A2C34"/><text text-anchor="middle" pointer-events="none" x="0" y="5" font-size="10px" fill="#2A2C34" font-family="sans-serif"> John Hurt</text></g><g class="node" transform="translate(115.82655607034377,-7.59777537391165)"><circle class="outline" cx="0" cy="0" r="25" fill="#F79767" stroke="#f36924" stroke-width="2px"/><text text-anchor="middle" pointer-events="none" font-family="sans-serif" dy="1.5625" font-size="25" fill="#FFFFFF"/><text text-anchor="middle" pointer-events="none" font-family="sans-serif" dy="1.5625" font-size="25" fill="#FFFFFF"/><text text-anchor="middle" pointer-events="none" x="0" y="0" font-size="10px" fill="#FFFFFF" font-family="sans-serif"> V for</text><text text-anchor="middle" pointer-events="none" x="0" y="10" font-size="10px" fill="#FFFFFF" font-family="sans-serif"> Vendetta</text></g><g class="node" transform="translate(205.51205593959216,-93.91247814833265)"><circle class="outline" cx="0" cy="0" r="25" fill="#57C7E3" stroke="#23b3d7" stroke-width="2px"/><text text-anchor="middle" pointer-events="none" font-family="sans-serif" dy="1.5625" font-size="25" fill="#2A2C34"/><text text-anchor="middle" pointer-events="none" font-family="sans-serif" dy="1.5625" font-size="25" fill="#2A2C34"/><text text-anchor="middle" pointer-events="none" x="0" y="0" font-size="10px" fill="#2A2C34" font-family="sans-serif"> Stephen</text><text text-anchor="middle" pointer-events="none" x="0" y="10" font-size="10px" fill="#2A2C34" font-family="sans-serif"> Rea</text></g><g class="node" transform="translate(37.918005142619,-101.09582135722617)"><circle class="outline" cx="0" cy="0" r="25" fill="#57C7E3" stroke="#23b3d7" stroke-width="2px"/><text text-anchor="middle" pointer-events="none" font-family="sans-serif" dy="1.5625" font-size="25" fill="#2A2C34"/><text text-anchor="middle" pointer-events="none" font-family="sans-serif" dy="1.5625" font-size="25" fill="#2A2C34"/><text text-anchor="middle" pointer-events="none" x="0" y="0" font-size="10px" fill="#2A2C34" font-family="sans-serif"> Natalie</text><text text-anchor="middle" pointer-events="none" x="0" y="10" font-size="10px" fill="#2A2C34" font-family="sans-serif"> Portman</text></g><g class="node" transform="translate(124.09282611554816,-130.48195684120915)"><circle class="outline" cx="0" cy="0" r="25" fill="#57C7E3" stroke="#23b3d7" stroke-width="2px"/><text text-anchor="middle" pointer-events="none" font-family="sans-serif" dy="1.5625" font-size="25" fill="#2A2C34"/><text text-anchor="middle" pointer-events="none" x="0" y="5" font-size="10px" fill="#2A2C34" font-family="sans-serif"> Ben Miles</text></g><g class="node" transform="translate(29.109366685239642,178.56532862531057)"><circle class="outline" cx="0" cy="0" r="25" fill="#57C7E3" stroke="#23b3d7" stroke-width="2px"/><text text-anchor="middle" pointer-events="none" font-family="sans-serif" dy="1.5625" font-size="25" fill="#2A2C34"/><text text-anchor="middle" pointer-events="none" font-family="sans-serif" dy="1.5625" font-size="25" fill="#2A2C34"/><text text-anchor="middle" pointer-events="none" x="0" y="0" font-size="10px" fill="#2A2C34" font-family="sans-serif"> Laurence</text><text text-anchor="middle" pointer-events="none" x="0" y="10" font-size="10px" fill="#2A2C34" font-family="sans-serif"> Fishbur…</text></g><g class="node" transform="translate(-56.29833626492796,72.68189149964499)"><circle class="outline" cx="0" cy="0" r="25" fill="#F79767" stroke="#f36924" stroke-width="2px"/><text text-anchor="middle" pointer-events="none" font-family="sans-serif" dy="1.5625" font-size="25" fill="#FFFFFF"/><text text-anchor="middle" pointer-events="none" font-family="sans-serif" dy="1.5625" font-size="25" fill="#FFFFFF"/><text text-anchor="middle" pointer-events="none" font-family="sans-serif" dy="1.5625" font-size="25" fill="#FFFFFF"/><text text-anchor="middle" pointer-events="none" x="0" y="-5" font-size="10px" fill="#FFFFFF" font-family="sans-serif"> The</text><text text-anchor="middle" pointer-events="none" x="0" y="5" font-size="10px" fill="#FFFFFF" font-family="sans-serif"> Matrix</text><text text-anchor="middle" pointer-events="none" x="0" y="15" font-size="10px" fill="#FFFFFF" font-family="sans-serif"> Revol…</text></g><g class="node" transform="translate(-153.2556513969006,109.94315047692554)"><circle class="outline" cx="0" cy="0" r="25" fill="#57C7E3" stroke="#23b3d7" stroke-width="2px"/><text text-anchor="middle" pointer-events="none" font-family="sans-serif" dy="1.5625" font-size="25" fill="#2A2C34"/><text text-anchor="middle" pointer-events="none" x="0" y="5" font-size="10px" fill="#2A2C34" font-family="sans-serif"> Carrie-A…</text></g><g class="node" transform="translate(-151.30119410764783,171.41312948977915)"><circle class="outline" cx="0" cy="0" r="25" fill="#57C7E3" stroke="#23b3d7" stroke-width="2px"/><text text-anchor="middle" pointer-events="none" font-family="sans-serif" dy="1.5625" font-size="25" fill="#2A2C34"/><text text-anchor="middle" pointer-events="none" font-family="sans-serif" dy="1.5625" font-size="25" fill="#2A2C34"/><text text-anchor="middle" pointer-events="none" x="0" y="0" font-size="10px" fill="#2A2C34" font-family="sans-serif"> Keanu</text><text text-anchor="middle" pointer-events="none" x="0" y="10" font-size="10px" fill="#2A2C34" font-family="sans-serif"> Reeves</text></g><g class="node" transform="translate(-55.62972588656435,132.6679854236423)"><circle class="outline" cx="0" cy="0" r="25" fill="#F79767" stroke="#f36924" stroke-width="2px"/><text text-anchor="middle" pointer-events="none" font-family="sans-serif" dy="1.5625" font-size="25" fill="#FFFFFF"/><text text-anchor="middle" pointer-events="none" font-family="sans-serif" dy="1.5625" font-size="25" fill="#FFFFFF"/><text text-anchor="middle" pointer-events="none" font-family="sans-serif" dy="1.5625" font-size="25" fill="#FFFFFF"/><text text-anchor="middle" pointer-events="none" x="0" y="-5" font-size="10px" fill="#FFFFFF" font-family="sans-serif"> The</text><text text-anchor="middle" pointer-events="none" x="0" y="5" font-size="10px" fill="#FFFFFF" font-family="sans-serif"> Matrix</text><text text-anchor="middle" pointer-events="none" x="0" y="15" font-size="10px" fill="#FFFFFF" font-family="sans-serif"> Reloa…</text></g><g class="node" transform="translate(-41.557597237893276,329.550741430347)"><circle class="outline" cx="0" cy="0" r="25" fill="#57C7E3" stroke="#23b3d7" stroke-width="2px"/><text text-anchor="middle" pointer-events="none" font-family="sans-serif" dy="1.5625" font-size="25" fill="#2A2C34"/><text text-anchor="middle" pointer-events="none" font-family="sans-serif" dy="1.5625" font-size="25" fill="#2A2C34"/><text text-anchor="middle" pointer-events="none" x="0" y="0" font-size="10px" fill="#2A2C34" font-family="sans-serif"> Emil</text><text text-anchor="middle" pointer-events="none" x="0" y="10" font-size="10px" fill="#2A2C34" font-family="sans-serif"> Eifrem</text></g><g class="node" transform="translate(-56.414464489128044,210.06141746198506)"><circle class="outline" cx="0" cy="0" r="25" fill="#F79767" stroke="#f36924" stroke-width="2px"/><text text-anchor="middle" pointer-events="none" font-family="sans-serif" dy="1.5625" font-size="25" fill="#FFFFFF"/><text text-anchor="middle" pointer-events="none" font-family="sans-serif" dy="1.5625" font-size="25" fill="#FFFFFF"/><text text-anchor="middle" pointer-events="none" x="0" y="0" font-size="10px" fill="#FFFFFF" font-family="sans-serif"> The</text><text text-anchor="middle" pointer-events="none" x="0" y="10" font-size="10px" fill="#FFFFFF" font-family="sans-serif"> Matrix</text></g></g></svg>